{"glyphs":{"0":{"ha":785,"x_min":64,"x_max":871,"o":"m 325 0 q 213 23 264 0 q 128 86 163 46 q 78 181 93 126 q 74 297 64 235 l 117 568 q 158 684 126 629 q 236 779 190 739 l 254 793 q 381 905 303 861 q 547 949 460 949 l 601 949 q 717 924 665 949 q 805 858 769 900 q 856 761 840 817 q 861 642 871 706 l 818 369 q 749 210 803 279 q 619 101 694 140 l 601 88 q 498 24 554 47 q 379 0 442 0 l 325 0 m 185 369 q 189 263 175 313 q 234 177 203 214 q 311 119 265 140 q 413 97 357 97 l 467 97 q 575 119 522 97 q 671 177 628 140 q 743 263 714 214 q 782 369 772 313 l 825 642 q 819 747 833 697 q 774 833 806 796 q 697 891 743 869 q 596 913 651 913 l 542 913 q 433 891 486 913 q 338 833 381 869 q 265 747 294 796 q 228 642 236 697 l 185 369 m 438 261 q 367 292 393 261 q 347 369 340 324 l 364 478 l 372 532 l 390 642 q 434 717 397 685 q 515 750 471 750 l 569 750 q 642 717 615 750 q 661 642 668 685 l 643 532 l 635 478 l 618 369 q 574 292 611 324 q 492 261 538 261 l 438 261 m 383 369 q 397 318 378 339 q 443 297 415 297 l 497 297 l 508 297 l 551 568 q 538 627 557 601 q 482 653 518 653 l 428 653 l 426 642 l 383 369 m 296 279 q 315 271 307 279 q 319 251 322 263 q 308 232 317 240 q 288 224 299 224 q 269 232 276 224 q 264 251 261 240 q 276 271 267 263 q 296 279 285 279 m 290 238 q 306 251 303 238 q 294 267 308 267 q 276 251 279 267 q 279 241 275 244 q 290 238 283 238 m 279 433 q 260 442 268 433 q 256 461 253 450 q 267 481 258 474 q 288 489 276 489 q 306 481 299 489 q 311 461 314 474 q 299 442 308 450 q 279 433 290 433 m 286 476 q 268 461 271 476 q 281 447 265 447 q 297 461 294 447 q 286 476 300 476 m 485 208 q 503 200 496 208 q 507 181 510 192 q 496 161 504 169 q 476 153 488 153 q 458 161 465 153 q 453 181 450 169 q 465 200 456 192 q 485 208 474 208 m 478 165 q 494 181 492 165 q 483 196 497 196 q 465 181 468 196 q 478 165 463 165 m 382 219 q 400 211 393 219 q 404 192 407 203 q 393 172 403 181 q 372 164 383 164 q 354 172 361 164 q 349 192 347 181 q 361 211 351 203 q 382 219 371 219 m 375 176 q 390 192 388 176 q 379 207 393 207 q 361 192 364 207 q 364 181 360 185 q 375 176 368 176 m 299 538 q 280 546 288 538 q 275 565 272 554 q 287 585 278 576 q 307 593 296 593 q 326 585 318 593 q 331 565 333 576 q 319 546 328 554 q 299 538 310 538 m 306 581 q 289 565 292 581 q 300 551 286 551 q 318 565 315 551 q 306 581 321 581 m 696 763 q 678 771 685 763 q 674 790 671 779 q 685 810 675 801 q 706 818 694 818 q 724 810 717 818 q 729 790 731 801 q 717 771 726 779 q 696 763 707 763 m 703 806 q 686 790 689 806 q 699 775 683 775 q 717 790 714 775 q 714 801 718 797 q 703 806 710 806 m 586 235 q 605 226 597 235 q 610 207 613 218 q 598 187 607 194 q 578 179 589 179 q 559 187 567 179 q 554 207 551 194 q 566 226 557 218 q 586 235 575 235 m 579 192 q 596 207 593 192 q 585 221 599 221 q 567 207 569 221 q 579 192 564 192 m 733 663 q 715 671 722 663 q 710 690 707 679 q 722 710 713 701 q 742 718 731 718 q 760 710 753 718 q 765 690 768 701 q 753 671 763 679 q 733 663 744 663 m 740 706 q 722 690 725 706 q 735 675 719 675 q 753 690 750 675 q 740 706 756 706 m 325 650 q 306 658 314 650 q 301 678 299 667 q 313 697 304 689 q 333 706 322 706 q 352 697 344 706 q 357 678 360 689 q 345 658 354 667 q 325 650 336 650 m 332 693 q 320 688 325 693 q 314 678 315 683 q 326 663 311 663 q 343 678 340 663 q 342 688 344 683 q 332 693 339 693 m 600 796 q 582 804 589 796 q 576 824 575 813 q 589 843 579 835 q 610 851 599 851 q 628 843 622 851 q 632 824 635 835 q 622 804 631 813 q 600 796 613 796 m 607 838 q 590 824 593 838 q 603 808 588 808 q 619 824 617 808 q 607 838 622 838 m 489 807 q 471 815 478 807 q 467 835 464 822 q 477 853 468 846 q 497 861 486 861 q 521 835 524 861 q 509 815 518 822 q 489 807 500 807 m 494 849 q 484 844 489 849 q 479 835 479 840 q 490 819 476 819 q 508 835 506 819 q 494 849 508 849 m 385 750 q 366 758 374 750 q 361 778 358 767 q 373 797 364 789 q 393 806 382 806 q 412 797 404 806 q 417 778 419 789 q 405 758 414 767 q 385 750 396 750 m 392 793 q 375 778 378 793 q 388 764 372 764 q 404 778 401 764 q 392 793 407 793 m 296 350 q 285 331 294 339 q 264 322 275 322 q 246 331 253 322 q 240 350 239 339 q 253 369 243 361 q 274 378 263 378 q 292 369 285 378 q 296 350 299 361 m 254 350 q 267 335 251 335 q 283 350 281 335 q 271 365 286 365 q 254 350 257 365 m 722 508 q 741 500 733 508 q 746 481 749 492 q 735 461 744 469 q 714 453 725 453 q 696 461 703 453 q 690 481 689 469 q 702 500 693 492 q 722 508 711 508 m 717 465 q 733 481 731 465 q 721 496 736 496 q 710 492 715 496 q 703 481 704 488 q 706 469 701 474 q 717 465 711 465 m 708 415 q 726 407 719 415 q 732 388 733 399 q 720 368 729 376 q 700 360 711 360 q 681 368 689 360 q 676 388 674 376 q 688 407 678 399 q 708 415 697 415 m 701 374 q 719 388 717 374 q 717 399 721 394 q 706 403 713 403 q 689 388 692 403 q 692 378 688 382 q 701 374 696 374 m 669 315 q 688 307 681 315 q 693 288 696 299 q 682 268 692 276 q 661 260 672 260 q 643 268 650 260 q 638 288 636 276 q 649 307 640 299 q 669 315 658 315 m 664 272 q 681 288 678 272 q 678 299 682 294 q 668 303 674 303 q 650 288 653 303 q 653 276 649 281 q 664 272 657 272 m 739 613 q 758 604 751 613 q 763 585 765 596 q 751 565 760 574 q 731 557 743 557 q 713 565 719 557 q 708 585 706 574 q 719 604 711 596 q 739 613 728 613 m 732 569 q 750 585 747 569 q 738 599 753 599 q 721 585 724 599 q 732 569 718 569 m 593 901 q 690 881 646 901 q 763 826 733 861 q 805 743 792 790 q 810 643 818 696 l 767 372 q 731 271 758 318 q 663 189 703 224 q 572 135 622 154 q 469 115 522 115 l 415 115 q 319 135 363 115 q 245 189 275 154 q 203 271 215 224 q 199 372 190 318 l 242 643 q 278 743 250 696 q 346 826 306 790 q 436 881 386 861 q 539 901 486 901 l 593 901 m 783 690 q 775 722 786 710 q 744 735 764 735 q 710 722 725 735 q 692 690 694 710 q 700 658 689 671 q 731 646 711 646 q 765 658 750 646 q 783 690 781 671 m 708 836 q 674 823 689 836 q 657 790 660 810 q 665 758 654 771 q 694 746 675 746 q 729 758 714 746 q 747 790 744 771 q 739 823 750 810 q 708 836 728 836 m 611 868 q 578 856 593 868 q 560 824 563 843 q 568 791 557 804 q 597 778 579 778 q 632 791 617 778 q 650 824 647 804 q 642 856 653 843 q 611 868 631 868 m 500 879 q 466 866 481 879 q 449 835 451 853 q 456 802 446 815 q 485 789 465 789 q 520 802 504 789 q 539 835 536 815 q 531 866 542 853 q 500 879 519 879 m 396 824 q 362 810 376 824 q 344 778 347 797 q 352 747 342 760 q 382 733 363 733 q 417 747 401 733 q 435 778 432 760 q 426 810 438 797 q 396 824 415 824 m 336 722 q 301 710 317 722 q 283 678 286 697 q 292 645 281 658 q 322 632 303 632 q 356 645 342 632 q 374 678 371 658 q 366 710 376 697 q 336 722 356 722 m 310 610 q 276 597 292 610 q 258 565 261 585 q 267 533 256 546 q 296 521 278 521 q 331 533 315 521 q 349 565 346 546 q 340 597 351 585 q 310 610 329 610 m 290 507 q 256 494 271 507 q 238 461 240 481 q 246 430 235 443 q 276 417 257 417 q 310 430 296 417 q 328 461 325 443 q 320 494 331 481 q 290 507 310 507 m 224 350 q 232 317 221 331 q 261 304 243 304 q 296 317 281 304 q 314 350 311 331 q 306 382 317 369 q 275 394 294 394 q 242 382 257 394 q 224 350 226 369 m 285 207 q 318 219 303 207 q 336 251 333 232 q 328 283 339 271 q 299 296 317 296 q 264 283 279 296 q 246 251 249 271 q 254 219 243 232 q 285 207 265 207 m 369 146 q 403 159 389 146 q 421 192 418 172 q 414 224 424 211 q 385 238 404 238 q 349 224 365 238 q 331 192 333 211 q 339 159 328 172 q 369 146 350 146 m 332 372 q 334 324 328 346 q 355 285 340 301 q 390 258 369 268 q 436 249 411 249 l 490 249 q 583 284 542 249 q 632 372 624 319 l 675 643 q 673 690 679 668 q 653 729 667 713 q 618 756 639 746 q 572 767 597 767 l 518 767 q 469 756 493 767 q 426 729 446 746 q 392 690 406 713 q 375 643 379 668 l 332 372 m 474 135 q 508 148 493 135 q 525 181 522 161 q 517 213 528 200 q 488 225 507 225 q 453 213 468 225 q 435 181 438 200 q 443 148 432 161 q 474 135 454 135 m 575 161 q 608 174 593 161 q 626 207 624 188 q 618 238 629 225 q 589 251 607 251 q 554 238 569 251 q 536 207 539 225 q 544 174 533 188 q 575 161 556 161 m 658 242 q 692 255 678 242 q 710 288 707 268 q 702 319 713 307 q 672 332 692 332 q 638 319 653 332 q 619 288 622 307 q 628 255 617 268 q 658 242 639 242 m 697 343 q 731 356 717 343 q 749 388 746 369 q 741 420 751 407 q 711 433 731 433 q 677 420 692 433 q 660 388 663 407 q 667 356 657 369 q 697 343 678 343 m 711 435 q 745 448 731 435 q 763 481 760 461 q 755 513 765 500 q 725 525 744 525 q 691 513 706 525 q 674 481 676 500 q 681 448 671 461 q 711 435 692 435 m 728 539 q 763 552 747 539 q 781 585 778 565 q 772 617 783 604 q 742 629 761 629 q 708 617 724 629 q 690 585 693 604 q 699 552 688 565 q 728 539 710 539 z "},"1":{"ha":511,"x_min":114,"x_max":640,"o":"m 196 651 q 186 761 199 710 q 149 865 174 813 l 221 926 l 214 949 l 590 949 q 627 945 615 949 q 640 934 639 942 q 633 914 640 926 q 615 883 626 901 q 593 852 604 872 q 578 804 582 832 l 483 206 q 485 153 479 176 q 501 119 490 131 q 502 85 513 103 q 464 61 492 67 l 406 10 q 389 2 399 4 q 368 0 379 0 l 158 0 q 121 14 128 0 q 128 39 114 28 l 136 47 q 175 133 165 71 l 257 651 l 196 651 m 276 913 q 272 910 274 913 q 272 906 269 908 q 304 834 294 872 q 308 750 314 796 l 369 750 l 283 206 q 243 108 271 128 q 239 101 239 106 q 246 97 239 97 l 456 97 q 462 101 461 97 q 461 108 463 106 q 447 206 435 131 l 457 268 l 490 478 l 518 651 l 533 750 l 542 804 q 586 901 554 876 q 585 913 593 913 l 506 913 l 342 913 l 276 913 m 382 265 q 363 274 371 265 q 358 293 356 282 q 370 313 361 304 q 390 321 379 321 q 409 313 401 321 q 414 293 417 304 q 402 274 411 282 q 382 265 393 265 m 389 308 q 371 293 374 308 q 383 278 368 278 q 401 293 399 278 q 389 308 404 308 m 396 371 q 377 379 385 371 q 372 399 369 388 q 384 418 375 410 q 404 426 393 426 q 422 418 415 426 q 426 399 429 410 q 415 379 424 388 q 396 371 407 371 m 403 414 q 385 399 388 414 q 397 383 382 383 q 414 399 411 383 q 403 414 417 414 m 460 757 q 478 749 471 757 q 483 729 485 740 q 471 710 481 718 q 450 701 461 701 q 432 710 439 701 q 428 729 425 718 q 439 749 429 740 q 460 757 449 757 m 453 715 q 471 729 468 715 q 468 740 472 736 q 457 744 464 744 q 440 729 443 744 q 453 715 438 715 m 386 861 q 404 853 397 861 q 410 833 411 844 q 397 814 407 822 q 376 806 388 806 q 358 814 365 806 q 354 833 351 822 q 365 853 356 844 q 386 861 375 861 m 379 818 q 396 833 393 818 q 383 847 396 847 q 372 844 376 847 q 367 833 367 840 q 379 818 364 818 m 444 651 q 463 643 456 651 q 468 624 469 635 q 456 604 465 613 q 435 596 446 596 q 416 604 422 596 q 413 624 410 613 q 423 643 414 635 q 444 651 432 651 m 438 610 q 454 624 451 610 q 442 639 457 639 q 425 624 428 639 q 438 610 422 610 m 422 536 q 440 528 433 536 q 443 508 446 519 q 433 489 442 497 q 413 481 424 481 q 394 489 401 481 q 389 508 388 497 q 401 528 392 519 q 422 536 411 536 m 415 493 q 426 497 421 493 q 431 508 431 501 q 419 524 433 524 q 401 508 404 524 q 415 493 401 493 m 435 206 q 440 113 424 138 l 263 113 q 300 206 290 138 l 389 764 l 328 764 q 324 834 331 804 q 300 894 318 864 l 342 897 l 565 897 q 543 858 551 882 q 529 804 535 833 l 435 206 m 433 579 q 467 592 451 579 q 485 624 482 604 q 476 656 488 643 q 447 669 465 669 q 413 656 428 669 q 394 624 397 643 q 403 592 392 604 q 433 579 414 579 m 461 508 q 454 541 464 528 q 425 554 444 554 q 390 541 406 554 q 371 508 374 528 q 379 476 368 489 q 410 464 390 464 q 444 476 429 464 q 461 508 458 489 m 449 685 q 483 697 468 685 q 501 729 499 710 q 493 762 504 749 q 463 775 482 775 q 428 762 443 775 q 411 729 414 749 q 419 697 408 710 q 449 685 429 685 m 374 788 q 408 801 392 788 q 426 833 424 814 q 418 865 429 853 q 389 878 407 878 q 354 865 369 878 q 336 833 339 853 q 344 801 333 814 q 374 788 354 788 m 407 443 q 372 431 388 443 q 354 399 357 418 q 363 366 351 379 q 393 353 374 353 q 427 366 413 353 q 444 399 442 379 q 437 431 447 418 q 407 443 426 443 m 393 338 q 359 325 374 338 q 342 293 344 313 q 349 260 339 274 q 379 247 360 247 q 414 260 399 247 q 432 293 429 274 q 424 325 435 313 q 393 338 413 338 m 365 135 q 399 147 385 135 q 417 179 414 160 q 409 212 419 199 q 379 225 399 225 q 344 212 360 225 q 326 179 329 199 q 335 147 324 160 q 365 135 346 135 m 472 788 q 507 801 492 788 q 525 833 522 814 q 517 865 528 853 q 488 878 507 878 q 453 865 468 878 q 435 833 438 853 q 442 801 432 814 q 472 788 453 788 m 485 861 q 503 853 496 861 q 508 833 510 844 q 496 814 506 822 q 475 806 486 806 q 457 814 464 806 q 453 833 450 822 q 464 853 454 844 q 485 861 474 861 m 478 818 q 496 833 493 818 q 482 847 496 847 q 470 844 475 847 q 465 833 465 840 q 478 818 463 818 m 376 207 q 395 199 388 207 q 400 179 403 190 q 388 160 397 168 q 368 151 379 151 q 349 160 357 151 q 344 179 342 168 q 356 199 347 190 q 376 207 365 207 m 369 165 q 386 179 383 165 q 375 194 389 194 q 357 179 360 194 q 369 165 354 165 z "},"2":{"ha":796,"x_min":36,"x_max":882,"o":"m 392 326 q 379 297 383 313 l 668 297 q 722 306 699 297 q 761 331 746 315 q 781 340 771 339 q 799 334 790 340 q 810 316 807 328 q 811 286 814 304 l 776 63 l 756 63 l 685 0 l 36 0 l 71 221 q 114 345 82 288 q 196 446 146 403 l 213 461 q 269 522 238 493 q 340 572 301 551 l 126 572 q 169 694 138 639 q 249 790 200 750 l 272 811 q 387 913 321 875 q 526 950 453 950 l 635 950 q 741 928 693 950 q 821 869 789 907 q 867 780 853 831 q 872 671 882 729 q 807 522 858 588 q 685 421 756 457 l 668 406 q 571 347 624 368 q 464 326 518 326 l 406 326 l 392 326 m 281 518 q 272 513 276 515 q 264 504 267 510 l 281 518 m 342 294 q 360 345 346 321 q 394 387 374 369 q 440 415 415 404 q 493 425 465 425 l 497 425 l 551 425 q 649 444 601 425 q 736 497 697 464 q 801 576 775 531 q 836 671 828 621 q 832 765 844 721 q 791 842 819 808 q 721 894 763 875 q 629 913 679 913 l 575 913 l 521 913 q 424 894 471 913 q 338 842 376 875 q 273 765 299 808 q 239 671 247 721 l 401 671 l 424 671 q 429 678 432 671 q 435 719 422 700 q 461 743 449 738 q 478 749 469 749 q 494 750 486 750 l 549 750 l 603 750 q 659 726 639 750 q 674 671 679 703 q 640 611 668 635 q 576 588 613 588 l 522 588 l 518 588 q 400 565 457 588 q 297 502 343 542 q 220 409 251 463 q 179 294 189 356 l 149 99 l 392 99 l 446 99 l 500 99 l 746 99 l 771 261 l 775 286 q 773 293 776 293 q 767 290 769 293 q 663 261 738 261 l 525 261 l 471 261 l 417 261 l 336 261 l 342 294 m 469 635 l 444 635 l 406 601 q 529 624 463 624 l 558 624 q 542 644 553 635 q 515 653 532 653 l 464 653 l 469 635 m 367 781 q 385 772 378 781 q 389 753 392 764 q 378 733 388 742 q 357 725 368 725 q 339 733 346 725 q 333 753 332 742 q 346 772 336 764 q 367 781 356 781 m 360 738 q 376 753 374 738 q 364 767 379 767 q 347 753 350 767 q 360 738 344 738 m 261 214 q 279 206 272 214 q 285 186 286 197 q 273 167 282 175 q 253 158 264 158 q 234 167 242 158 q 229 186 226 175 q 240 206 231 197 q 261 214 250 214 m 254 171 q 272 186 269 171 q 269 197 274 193 q 258 201 265 201 q 243 186 246 201 q 254 171 240 171 m 731 661 q 742 681 733 672 q 763 689 751 689 q 781 681 774 689 q 786 661 789 672 q 774 642 783 650 q 754 633 765 633 q 735 642 743 633 q 731 661 728 650 m 772 661 q 769 671 774 667 q 760 675 765 675 q 743 661 746 675 q 756 646 740 646 q 772 661 769 646 m 317 428 q 335 419 328 428 q 340 400 343 411 q 328 381 338 389 q 308 372 319 372 q 290 381 297 372 q 285 400 282 389 q 297 419 288 411 q 317 428 306 428 m 310 385 q 328 400 325 385 q 315 415 331 415 q 297 400 300 415 q 310 385 294 385 m 385 449 q 366 457 374 449 q 361 476 358 465 q 373 496 364 488 q 393 504 382 504 q 412 496 404 504 q 417 476 419 488 q 405 457 414 465 q 385 449 396 449 m 390 490 q 374 476 376 490 q 386 461 371 461 q 404 476 401 461 q 401 486 406 482 q 390 490 397 490 m 278 319 q 297 311 289 319 q 301 292 304 303 q 290 272 299 279 q 269 264 281 264 q 251 272 258 264 q 246 292 243 279 q 258 311 249 303 q 278 319 267 319 m 271 276 q 289 292 286 276 q 286 301 290 297 q 275 306 282 306 q 260 292 263 306 q 271 276 257 276 m 664 858 q 683 850 675 858 q 688 831 690 842 q 676 811 685 819 q 656 803 667 803 q 637 811 644 803 q 632 831 629 819 q 644 850 635 842 q 664 858 653 858 m 657 815 q 675 831 672 815 q 663 844 678 844 q 646 831 649 844 q 657 815 643 815 m 764 767 q 753 747 761 756 q 732 739 744 739 q 713 747 721 739 q 708 767 706 756 q 720 785 711 778 q 740 793 729 793 q 764 767 768 793 m 722 767 q 733 751 719 751 q 751 767 749 751 q 739 781 754 781 q 722 767 725 781 m 592 485 q 573 493 581 485 q 568 513 565 501 q 580 532 571 524 q 600 540 589 540 q 619 532 611 540 q 624 513 626 524 q 612 493 621 501 q 592 485 603 485 m 599 528 q 581 513 583 528 q 593 497 578 497 q 611 513 608 497 q 599 528 614 528 m 486 469 q 467 478 475 469 q 463 497 460 486 q 474 517 465 508 q 494 525 483 525 q 513 517 506 525 q 517 497 519 508 q 506 478 514 486 q 486 469 497 469 m 493 513 q 475 497 478 513 q 489 483 472 483 q 504 497 501 483 q 493 513 507 513 m 558 865 q 577 857 569 865 q 582 838 585 849 q 570 818 579 826 q 550 810 561 810 q 531 818 539 810 q 526 838 524 826 q 538 857 529 849 q 558 865 547 865 m 551 822 q 569 838 567 822 q 557 851 572 851 q 539 838 542 851 q 551 822 536 822 m 456 853 q 474 844 467 853 q 479 825 481 836 q 467 805 476 813 q 446 797 457 797 q 425 825 421 797 q 435 844 426 836 q 456 853 444 853 m 449 810 q 467 825 464 810 q 453 839 467 839 q 438 825 438 839 q 449 810 435 810 m 700 536 q 681 544 689 536 q 676 564 674 553 q 688 583 679 575 q 708 592 697 592 q 727 583 719 592 q 732 564 735 575 q 720 544 729 553 q 700 536 711 536 m 706 578 q 690 564 693 578 q 701 549 688 549 q 719 564 717 549 q 717 574 721 569 q 706 578 713 578 m 597 211 q 606 194 606 206 q 600 174 607 183 q 581 160 593 163 q 561 164 569 157 q 550 180 551 169 q 556 201 549 190 q 576 215 564 211 q 597 211 588 218 m 590 181 q 588 200 600 193 q 576 201 583 203 q 567 194 569 200 q 568 175 557 183 q 580 173 574 172 q 590 181 586 174 m 663 164 q 653 180 654 169 q 658 201 651 190 q 678 215 665 211 q 699 211 690 218 q 709 194 708 206 q 701 174 710 183 q 683 160 694 163 q 663 164 672 157 m 669 194 q 671 175 660 183 q 683 173 676 172 q 692 181 689 174 q 690 200 701 193 q 678 201 685 203 q 669 194 672 200 m 490 211 q 501 194 500 206 q 493 174 501 183 q 475 160 486 163 q 454 164 464 157 q 444 180 446 169 q 450 201 443 190 q 469 215 457 211 q 490 211 482 218 m 483 181 q 482 200 493 193 q 470 201 476 203 q 461 194 464 200 q 463 175 451 183 q 483 181 475 168 m 386 211 q 397 194 396 206 q 389 174 397 183 q 371 160 382 163 q 350 164 360 157 q 340 180 342 169 q 346 201 339 190 q 365 215 353 211 q 386 211 378 218 m 379 181 q 378 200 390 192 q 366 201 372 203 q 357 194 360 200 q 358 175 347 183 q 379 181 371 168 m 665 247 q 721 253 697 247 q 761 269 744 258 l 736 114 l 168 114 l 197 294 q 237 403 207 353 q 310 492 267 454 q 408 552 354 531 q 521 574 463 574 l 579 574 q 652 602 619 574 q 692 671 685 631 q 674 738 699 710 q 610 765 650 765 l 500 765 q 480 764 489 765 q 460 754 471 763 l 460 758 q 431 732 447 750 q 415 686 414 714 l 260 686 q 296 768 271 729 q 356 836 321 807 q 434 882 392 865 q 521 899 476 899 l 631 899 q 717 881 678 899 q 783 833 757 864 q 822 760 810 801 q 825 671 833 718 q 793 581 818 624 q 732 508 768 539 q 651 458 696 476 q 558 440 606 440 l 504 440 q 443 428 472 440 q 390 397 414 417 q 351 351 367 378 q 331 294 335 325 l 324 247 l 665 247 m 803 661 q 795 693 806 681 q 765 706 785 706 q 731 693 746 706 q 713 661 715 681 q 721 628 710 642 q 751 615 732 615 q 785 628 771 615 q 803 661 800 642 m 354 707 q 389 720 374 707 q 407 753 404 733 q 399 785 410 772 q 368 797 388 797 q 334 785 349 797 q 317 753 319 772 q 324 720 314 733 q 354 707 335 707 m 443 779 q 478 792 463 779 q 497 825 494 806 q 489 856 500 843 q 458 869 478 869 q 424 856 439 869 q 407 825 410 843 q 414 792 404 806 q 443 779 424 779 m 547 792 q 581 805 567 792 q 599 838 596 818 q 591 869 601 856 q 561 882 581 882 q 526 869 542 882 q 508 838 511 856 q 517 805 506 818 q 547 792 528 792 m 653 785 q 688 798 672 785 q 706 831 703 811 q 697 862 708 849 q 667 875 686 875 q 633 862 647 875 q 615 831 618 849 q 623 798 613 811 q 653 785 633 785 m 692 767 q 700 734 689 747 q 729 721 711 721 q 764 734 749 721 q 782 767 779 747 q 774 799 785 786 q 743 811 763 811 q 710 799 725 811 q 692 767 694 786 m 711 608 q 677 596 692 608 q 660 564 663 583 q 667 532 657 544 q 697 519 678 519 q 732 532 717 519 q 750 564 747 544 q 742 596 753 583 q 711 608 731 608 m 603 558 q 568 545 583 558 q 550 513 553 532 q 558 480 547 493 q 589 467 569 467 q 623 480 608 467 q 640 513 638 493 q 633 545 643 532 q 603 558 622 558 m 497 543 q 463 530 478 543 q 444 497 447 517 q 453 465 442 478 q 483 453 464 453 q 517 465 503 453 q 535 497 532 478 q 527 530 538 517 q 497 543 517 543 m 396 521 q 362 508 376 521 q 344 476 347 494 q 352 444 342 457 q 382 431 363 431 q 417 444 401 431 q 435 476 432 457 q 426 508 438 494 q 396 521 415 521 m 249 140 q 284 153 268 140 q 303 186 300 167 q 294 219 306 206 q 264 232 283 232 q 230 219 244 232 q 213 186 215 206 q 219 153 210 167 q 249 140 229 140 m 267 246 q 301 259 286 246 q 319 292 317 272 q 311 323 322 310 q 281 336 300 336 q 247 323 261 336 q 229 292 232 310 q 237 259 226 272 q 267 246 247 246 m 306 354 q 340 367 325 354 q 357 400 354 381 q 349 432 360 419 q 319 444 339 444 q 285 432 300 444 q 267 400 269 419 q 275 367 264 381 q 306 354 286 354 m 403 165 q 413 199 415 181 q 396 226 411 217 q 363 231 382 236 q 332 210 344 226 q 322 176 321 194 q 339 149 324 158 q 373 144 354 139 q 403 165 392 149 m 507 165 q 517 199 519 181 q 500 226 515 217 q 467 231 486 236 q 436 210 449 226 q 427 176 425 194 q 443 149 429 158 q 477 144 458 139 q 507 165 496 149 m 614 165 q 624 199 626 181 q 607 226 622 217 q 573 231 592 236 q 542 210 554 226 q 533 176 531 194 q 549 149 535 158 q 583 144 564 139 q 614 165 603 149 m 708 226 q 676 231 694 236 q 644 210 657 226 q 635 176 633 194 q 651 149 638 158 q 685 144 667 139 q 715 165 704 149 q 726 199 728 181 q 708 226 724 217 z "},"3":{"ha":788,"x_min":65,"x_max":875,"o":"m 424 622 l 550 622 q 536 642 547 633 q 513 651 525 651 l 458 651 q 441 633 450 640 q 421 626 432 626 l 358 572 q 348 565 354 565 q 335 564 342 564 l 306 564 l 119 572 q 160 690 129 635 q 239 786 192 746 l 260 803 q 377 909 308 869 q 522 949 446 949 l 632 949 q 742 925 694 949 q 819 863 789 901 q 863 773 850 824 q 867 667 875 722 q 842 581 858 618 q 789 503 825 543 q 815 427 807 467 q 815 343 822 388 q 751 195 801 261 q 629 94 700 129 l 608 75 q 516 20 568 40 q 410 0 464 0 l 300 0 q 199 23 244 0 q 122 86 153 46 q 78 181 92 126 q 76 300 65 236 l 147 361 l 150 383 l 321 383 l 349 539 l 421 601 l 424 622 m 460 717 l 458 717 q 457 713 457 717 l 460 717 m 413 260 q 369 285 381 260 q 375 340 357 310 q 378 345 379 343 q 374 347 376 347 l 344 347 l 181 347 l 181 343 q 185 247 172 292 q 226 168 197 201 q 296 116 254 135 q 388 97 338 97 l 442 97 l 497 97 q 594 116 547 97 q 679 168 642 135 q 743 247 717 201 q 778 343 769 292 q 776 429 785 392 q 742 503 768 467 q 824 634 804 563 q 825 767 843 706 q 756 871 807 829 q 626 913 706 913 l 571 913 l 517 913 q 419 893 467 913 q 332 841 371 874 q 267 764 293 808 q 232 669 240 719 l 231 663 l 394 663 l 424 663 q 428 665 426 663 q 428 674 431 668 q 439 726 419 703 q 490 749 458 749 l 544 749 l 600 749 q 652 725 632 749 q 667 669 672 701 q 633 610 660 633 q 574 586 606 586 l 551 586 l 497 586 l 453 586 l 450 586 l 425 424 l 421 401 q 428 397 421 393 q 472 418 447 413 q 526 424 496 424 l 549 424 q 601 400 581 424 q 615 343 621 376 q 581 283 608 307 q 522 260 554 260 l 467 260 l 413 260 m 411 322 q 418 296 408 296 l 499 296 q 485 316 496 307 q 461 325 474 325 l 439 325 q 426 324 433 325 q 411 322 418 322 m 706 550 q 685 553 694 547 q 675 571 676 560 q 681 592 674 582 q 700 604 689 601 q 722 601 713 607 q 731 583 731 594 q 724 563 732 572 q 706 550 717 553 m 701 592 q 688 574 688 589 q 706 563 690 560 q 715 569 711 564 q 718 581 719 574 q 713 590 718 588 q 701 592 708 593 m 443 201 q 462 193 454 201 q 467 174 469 185 q 456 154 465 163 q 435 146 446 146 q 417 154 424 146 q 411 174 410 163 q 423 193 414 185 q 443 201 432 201 m 438 160 q 454 174 451 160 q 442 189 457 189 q 424 174 426 189 q 426 163 422 167 q 438 160 431 160 m 751 779 q 745 758 753 768 q 726 746 738 749 q 706 749 714 743 q 696 767 697 756 q 702 788 694 778 q 721 800 710 797 q 741 797 732 803 q 751 779 750 790 m 708 769 q 713 760 708 763 q 725 758 718 757 q 739 776 739 761 q 721 788 736 790 q 711 781 715 786 q 708 769 707 775 m 350 225 q 369 217 361 225 q 374 199 376 210 q 362 179 371 188 q 342 171 353 171 q 323 179 331 171 q 318 199 315 188 q 330 217 321 210 q 350 225 339 225 m 343 183 q 360 199 357 183 q 349 213 363 213 q 331 199 333 213 q 343 183 328 183 m 611 535 q 633 531 624 538 q 643 514 642 525 q 636 494 644 503 q 617 482 628 485 q 588 501 590 475 q 592 522 585 513 q 611 535 600 532 m 617 494 q 631 513 631 497 q 614 522 628 526 q 603 516 607 521 q 600 504 599 511 q 605 495 600 499 q 617 494 610 492 m 276 304 q 295 296 288 304 q 300 276 303 288 q 288 257 297 265 q 268 249 279 249 q 250 257 257 249 q 246 276 243 265 q 257 296 249 288 q 276 304 265 304 m 269 263 q 288 276 285 263 q 275 292 290 292 q 258 276 261 292 q 269 263 256 263 m 519 533 q 538 526 531 533 q 542 506 544 518 q 531 486 539 494 q 511 478 522 478 q 492 486 500 478 q 488 506 485 494 q 499 526 490 518 q 519 533 508 533 m 514 492 q 529 506 526 492 q 518 521 532 521 q 500 506 503 521 q 503 496 499 500 q 514 492 507 492 m 340 764 q 360 760 351 767 q 369 743 368 754 q 343 710 369 717 q 314 731 317 704 q 319 751 311 742 q 340 764 328 761 m 343 722 q 357 740 357 725 q 340 751 354 754 q 326 733 326 747 q 343 722 329 719 m 719 665 q 726 686 718 676 q 744 699 733 696 q 766 696 757 701 q 776 679 775 690 q 769 658 776 668 q 750 644 761 647 q 731 648 739 642 q 719 665 722 654 m 763 675 q 757 685 761 682 q 747 686 753 689 q 736 680 740 685 q 733 669 732 675 q 749 657 733 654 q 763 675 765 661 m 538 864 q 558 860 549 867 q 569 843 567 854 q 562 822 569 832 q 543 810 554 813 q 522 813 531 807 q 513 829 513 818 q 519 851 511 840 q 538 864 526 861 m 542 822 q 556 840 556 825 q 540 851 553 854 q 528 844 533 849 q 526 833 524 839 q 531 823 526 826 q 542 822 535 819 m 640 856 q 662 853 653 858 q 671 836 671 847 q 664 815 672 825 q 644 801 656 804 q 625 805 633 799 q 615 822 617 811 q 622 843 614 833 q 640 856 629 853 m 643 814 q 658 833 658 818 q 642 843 656 847 q 628 825 628 840 q 643 814 631 811 m 426 849 q 448 845 439 851 q 457 828 457 839 q 451 807 458 817 q 432 794 443 797 q 412 798 421 792 q 401 815 403 804 q 408 836 400 826 q 426 849 415 846 m 432 807 q 444 825 446 813 q 440 835 444 832 q 428 836 435 838 q 418 829 422 835 q 415 818 414 824 q 432 807 415 804 m 667 339 q 678 358 669 350 q 699 367 688 367 q 717 358 710 367 q 722 339 725 350 q 710 319 719 328 q 690 311 701 311 q 672 319 679 311 q 667 339 664 328 m 710 339 q 697 354 713 354 q 681 339 683 354 q 693 325 678 325 q 710 339 707 325 m 814 667 q 783 585 807 626 q 718 503 760 544 q 760 425 750 463 q 763 343 769 388 q 730 253 754 294 q 669 180 706 211 q 588 131 633 149 q 496 113 543 113 l 388 113 q 303 129 342 113 q 238 176 264 146 q 198 246 211 206 q 192 333 185 286 l 340 333 l 351 333 q 356 270 340 294 q 410 246 371 246 l 518 246 q 589 274 557 246 q 628 343 621 303 q 610 410 633 382 q 547 438 586 438 l 526 438 q 478 435 499 438 q 436 421 458 432 l 461 572 l 569 572 q 640 601 608 572 q 679 669 672 629 q 663 736 686 708 q 600 764 639 764 l 492 764 q 428 737 453 764 q 406 678 403 710 l 246 678 q 283 764 257 724 q 346 834 310 804 q 425 881 382 864 q 513 899 468 899 l 621 899 q 712 879 672 899 q 776 827 751 860 q 811 753 801 794 q 814 667 821 711 m 793 682 q 778 710 792 701 q 744 717 764 719 q 713 695 725 711 q 703 661 701 679 q 718 633 704 643 q 751 629 732 624 q 783 649 771 633 q 793 682 796 664 m 346 693 q 376 713 364 697 q 388 747 389 729 q 372 776 386 767 q 339 781 357 785 q 307 760 319 775 q 296 726 294 744 q 312 698 297 707 q 346 693 326 689 m 433 778 q 465 798 453 782 q 475 832 478 814 q 458 860 472 851 q 425 865 444 869 q 394 845 407 861 q 383 811 382 829 q 400 783 386 792 q 433 778 414 774 m 544 793 q 576 813 564 797 q 586 847 588 829 q 570 875 585 865 q 536 881 556 885 q 505 860 517 876 q 496 825 493 844 q 511 797 497 807 q 544 793 525 788 m 647 786 q 678 806 667 790 q 688 839 690 821 q 672 868 686 858 q 639 874 658 878 q 608 853 619 868 q 597 818 596 838 q 614 790 600 800 q 647 786 628 781 m 676 763 q 694 733 679 743 q 728 729 708 724 q 758 749 746 733 q 769 783 771 765 q 753 812 767 803 q 721 817 739 821 q 688 797 701 813 q 676 763 675 781 m 699 621 q 668 601 681 617 q 657 567 656 585 q 674 538 660 547 q 707 533 688 528 q 739 553 726 538 q 749 588 751 569 q 732 616 746 607 q 699 621 718 625 m 508 461 q 542 474 528 461 q 560 506 557 488 q 552 538 563 525 q 522 551 542 551 q 488 538 503 551 q 469 506 472 525 q 478 474 467 488 q 508 461 489 461 m 618 464 q 650 485 638 469 q 661 519 663 500 q 644 547 658 538 q 611 551 631 557 q 580 532 592 547 q 569 497 568 517 q 586 469 572 479 q 618 464 600 460 m 265 232 q 300 244 285 232 q 318 276 315 257 q 310 309 321 296 q 279 322 299 322 q 245 309 260 322 q 228 276 231 296 q 235 244 225 257 q 265 232 246 232 m 339 153 q 373 166 358 153 q 390 199 388 179 q 383 231 393 218 q 353 243 372 243 q 318 231 333 243 q 300 199 303 218 q 308 166 297 179 q 339 153 319 153 m 432 129 q 467 142 451 129 q 485 174 482 154 q 477 206 488 193 q 447 219 467 219 q 413 206 428 219 q 394 174 397 193 q 402 142 392 154 q 432 129 413 129 m 538 143 q 572 156 557 143 q 590 189 588 169 q 582 221 593 208 q 551 233 571 233 q 518 221 533 233 q 500 189 503 208 q 508 156 497 169 q 538 143 519 143 m 643 194 q 678 207 663 194 q 696 239 693 219 q 688 272 699 258 q 657 285 676 285 q 623 272 638 285 q 606 239 608 258 q 613 207 603 219 q 643 194 624 194 m 740 339 q 732 371 743 358 q 701 383 721 383 q 668 371 683 383 q 650 339 653 358 q 658 307 647 319 q 688 294 669 294 q 722 307 707 294 q 740 339 738 319 m 728 439 q 719 472 731 458 q 689 485 708 485 q 655 472 669 485 q 638 439 640 458 q 644 407 635 419 q 674 394 654 394 q 709 407 693 394 q 728 439 725 419 m 549 217 q 567 208 560 217 q 572 189 575 200 q 560 169 569 178 q 540 161 551 161 q 522 169 529 161 q 518 189 515 178 q 529 208 521 200 q 549 217 538 217 m 542 174 q 560 189 557 174 q 547 203 563 203 q 531 189 533 203 q 542 174 528 174 m 654 439 q 665 458 656 450 q 686 467 675 467 q 704 458 697 467 q 710 439 711 450 q 697 419 707 428 q 676 411 688 411 q 658 419 665 411 q 654 439 651 428 m 697 439 q 683 454 697 454 q 672 450 676 454 q 667 439 667 446 q 679 425 664 425 q 697 439 694 425 m 654 267 q 672 258 665 267 q 678 239 679 250 q 666 220 675 228 q 646 213 657 213 q 627 220 635 213 q 622 239 619 228 q 633 258 624 250 q 654 267 643 267 m 647 225 q 665 239 663 225 q 663 250 667 246 q 651 254 658 254 q 635 239 638 254 q 647 225 632 225 z "},"4":{"ha":775,"x_min":57,"x_max":913,"o":"m 57 282 l 257 636 l 254 632 q 283 712 278 672 q 281 788 288 751 l 353 849 q 353 859 354 854 q 353 871 351 864 l 547 871 l 589 907 q 603 933 589 921 q 649 946 617 946 l 858 946 q 903 925 894 946 q 893 888 913 904 q 865 853 878 875 q 847 801 851 832 l 753 207 q 751 140 749 176 q 772 63 753 103 l 751 63 l 681 0 l 360 0 q 446 135 435 67 l 469 282 l 57 282 m 182 379 l 582 379 l 554 207 q 538 144 547 169 q 514 106 529 119 q 515 99 504 99 l 725 99 q 731 106 733 99 q 715 144 719 119 q 717 207 710 169 l 726 268 l 744 379 l 769 542 l 786 640 l 803 747 l 811 801 q 856 900 824 876 q 858 906 858 903 q 853 910 858 910 l 774 910 l 643 910 q 637 906 638 910 q 639 900 636 903 q 649 801 661 878 l 607 542 l 449 542 l 465 571 l 554 731 l 604 819 l 614 835 l 397 835 q 392 832 394 835 q 393 826 390 829 q 361 697 407 790 l 182 379 m 504 578 l 515 578 l 519 603 l 504 578 m 688 535 q 706 526 699 535 q 711 507 714 518 q 700 488 710 496 q 679 479 690 479 q 661 488 668 479 q 656 507 654 496 q 667 526 658 518 q 688 535 676 535 m 682 492 q 699 507 696 492 q 686 522 701 522 q 669 507 672 522 q 672 496 668 500 q 682 492 676 492 m 569 489 q 588 481 581 489 q 593 461 596 474 q 581 442 590 450 q 561 435 572 435 q 542 442 550 435 q 538 461 535 450 q 549 481 540 474 q 569 489 558 489 m 563 447 q 579 461 576 447 q 568 476 582 476 q 551 461 554 476 q 563 447 549 447 m 636 203 q 654 194 647 203 q 658 175 661 186 q 647 156 657 164 q 626 147 638 147 q 608 156 615 147 q 603 175 601 164 q 615 194 606 186 q 636 203 625 203 m 629 160 q 641 164 636 160 q 646 175 646 168 q 633 190 649 190 q 617 175 619 190 q 629 160 617 160 m 443 489 q 462 481 454 489 q 467 461 469 474 q 455 442 464 450 q 435 435 446 435 q 416 442 424 435 q 411 461 408 450 q 423 481 414 474 q 443 489 432 489 m 436 447 q 454 461 451 447 q 442 476 457 476 q 424 461 426 476 q 436 447 421 447 m 671 425 q 690 417 682 425 q 694 397 697 408 q 683 378 692 386 q 663 369 674 369 q 644 378 651 369 q 639 397 636 386 q 651 417 642 408 q 671 425 660 425 m 664 382 q 682 397 679 382 q 679 408 683 404 q 668 411 675 411 q 653 397 656 411 q 664 382 650 382 m 475 736 q 457 744 464 736 q 453 764 450 753 q 464 783 454 775 q 485 792 474 792 q 503 783 496 792 q 508 764 510 775 q 496 744 506 753 q 475 736 486 736 m 482 778 q 470 774 475 778 q 465 764 465 769 q 478 749 463 749 q 496 764 493 749 q 482 778 496 778 m 378 593 q 397 585 389 593 q 401 565 404 576 q 390 546 399 554 q 369 538 381 538 q 351 546 358 538 q 346 565 343 554 q 358 585 349 576 q 378 593 367 593 m 371 551 q 389 565 386 551 q 376 581 392 581 q 360 565 363 581 q 371 551 357 551 m 425 633 q 407 642 414 633 q 403 661 400 650 q 414 681 406 672 q 433 689 422 689 q 452 681 444 689 q 457 661 460 672 q 445 642 454 650 q 425 633 436 633 m 431 675 q 415 661 418 675 q 426 646 413 646 q 444 661 442 646 q 442 671 446 667 q 431 675 438 675 m 328 493 q 351 465 354 493 q 319 439 347 439 q 297 465 293 439 q 308 485 299 478 q 328 493 317 493 m 321 451 q 339 465 336 451 q 325 481 342 481 q 310 465 313 481 q 321 451 307 451 m 653 315 q 672 307 664 315 q 676 288 679 299 q 665 269 675 276 q 644 261 656 261 q 626 269 633 261 q 621 288 619 276 q 633 307 624 299 q 653 315 642 315 m 647 274 q 664 288 661 274 q 651 303 667 303 q 635 288 638 303 q 638 278 633 282 q 647 274 642 274 m 700 210 q 697 157 696 182 q 700 115 697 132 l 539 115 q 554 156 546 132 q 567 210 563 179 l 597 397 l 207 397 l 372 692 q 403 765 392 731 q 411 822 414 800 l 588 822 l 538 736 l 539 739 l 449 581 l 419 531 l 618 531 l 661 804 q 654 899 671 865 l 832 899 q 794 804 804 868 l 700 210 m 488 808 q 453 795 468 808 q 435 764 438 782 q 442 731 432 744 q 472 718 453 718 q 507 731 492 718 q 525 764 522 744 q 517 795 528 782 q 488 808 507 808 m 436 706 q 402 692 417 706 q 385 661 388 679 q 392 628 382 642 q 422 615 403 615 q 457 628 442 615 q 475 661 472 642 q 467 692 478 679 q 436 706 456 706 m 315 421 q 351 434 335 421 q 369 465 367 447 q 361 498 372 485 q 331 511 350 511 q 297 498 313 511 q 279 465 282 485 q 287 434 276 447 q 315 421 297 421 m 367 521 q 401 533 386 521 q 418 565 415 546 q 410 598 421 585 q 381 611 400 611 q 347 598 361 611 q 329 565 332 585 q 337 533 326 546 q 367 521 347 521 m 432 417 q 467 430 451 417 q 485 461 482 443 q 476 494 488 481 q 446 507 465 507 q 412 494 426 507 q 394 461 397 481 q 402 430 392 443 q 432 417 413 417 m 558 417 q 592 430 578 417 q 610 461 607 443 q 602 494 613 481 q 572 507 592 507 q 538 494 553 507 q 521 461 524 481 q 528 430 518 443 q 558 417 539 417 m 624 131 q 658 143 643 131 q 676 175 674 156 q 669 208 679 194 q 639 221 658 221 q 605 208 621 221 q 586 175 589 194 q 594 143 583 156 q 624 131 606 131 m 642 243 q 676 256 661 243 q 694 288 692 269 q 687 320 697 307 q 657 333 676 333 q 623 320 639 333 q 604 288 607 307 q 613 256 601 269 q 642 243 624 243 m 660 353 q 694 365 679 353 q 713 397 710 378 q 704 428 715 415 q 674 442 693 442 q 640 428 656 442 q 622 397 625 415 q 631 365 619 378 q 660 353 642 353 m 676 461 q 711 474 696 461 q 729 507 726 488 q 721 539 732 526 q 690 551 710 551 q 657 539 672 551 q 639 507 642 526 q 647 474 636 488 q 676 461 658 461 m 696 574 q 730 586 715 574 q 747 618 744 599 q 740 650 750 638 q 710 663 729 663 q 675 650 690 663 q 657 618 660 638 q 665 586 654 599 q 696 574 676 574 m 674 728 q 682 695 671 708 q 711 682 693 682 q 746 695 731 682 q 764 728 761 708 q 756 759 767 746 q 726 772 746 772 q 692 759 708 772 q 674 728 676 746 m 731 793 q 765 806 750 793 q 782 838 779 818 q 774 869 785 856 q 744 882 764 882 q 710 869 725 882 q 692 838 694 856 q 700 806 689 818 q 731 793 711 793 m 714 700 q 696 708 703 700 q 690 728 689 717 q 703 747 693 739 q 724 756 713 756 q 742 747 735 756 q 746 728 749 739 q 735 708 744 717 q 714 700 725 700 m 721 742 q 704 728 707 742 q 707 717 703 721 q 717 713 711 713 q 733 728 731 713 q 721 742 736 742 m 707 646 q 726 638 718 646 q 731 618 733 629 q 719 599 728 607 q 699 590 710 590 q 680 599 688 590 q 675 618 672 607 q 687 638 678 629 q 707 646 696 646 m 700 603 q 718 618 715 603 q 706 632 721 632 q 688 618 690 632 q 700 603 685 603 m 742 865 q 760 857 753 865 q 765 838 768 849 q 753 818 763 826 q 733 810 744 810 q 715 818 722 810 q 710 838 707 826 q 722 857 713 849 q 742 865 731 865 m 735 822 q 753 838 750 822 q 740 851 756 851 q 722 838 725 851 q 735 822 719 822 z "},"5":{"ha":743,"x_min":69,"x_max":858,"o":"m 379 381 q 412 364 404 381 q 393 307 419 347 q 400 304 396 306 q 410 296 407 301 l 435 296 q 447 297 440 296 q 461 300 454 297 l 463 311 q 443 377 468 349 q 381 406 418 406 l 97 406 l 169 865 l 242 926 l 246 949 l 858 949 l 822 728 q 801 673 817 692 q 768 663 786 654 l 710 611 q 763 509 746 567 q 768 383 779 451 q 699 221 754 293 q 564 104 644 149 l 547 90 q 435 23 496 46 q 306 0 374 0 q 204 23 250 0 q 127 86 158 46 q 83 180 96 126 q 79 296 69 233 l 151 358 l 156 381 l 379 381 m 414 261 q 386 268 400 261 q 367 292 375 275 q 375 332 358 310 q 374 343 382 343 l 349 343 l 186 343 q 190 247 178 292 q 231 168 203 201 q 301 116 260 135 q 393 97 343 97 l 404 97 q 517 119 463 97 q 617 181 572 142 q 691 272 661 219 q 731 383 721 324 q 726 493 740 442 q 681 583 713 544 q 601 644 649 622 q 494 667 553 667 l 400 667 l 411 742 l 413 749 l 496 749 l 536 749 l 565 749 l 681 749 q 778 724 760 749 q 783 719 781 718 q 785 728 785 721 l 789 749 l 815 913 l 563 913 l 522 913 l 518 913 l 276 913 l 272 890 l 211 503 l 468 503 q 514 493 493 503 q 549 467 535 483 q 570 430 564 451 q 572 383 576 408 q 554 336 568 358 q 521 297 540 314 q 478 271 501 281 q 429 261 454 261 l 414 261 m 425 564 q 406 572 414 564 q 401 592 399 581 q 413 611 404 603 q 433 619 422 619 q 452 611 444 619 q 457 592 460 603 q 445 572 454 581 q 425 564 436 564 m 432 606 q 414 592 417 606 q 426 576 411 576 q 444 592 442 576 q 432 606 447 606 m 478 813 q 460 821 467 813 q 454 840 453 829 q 466 860 457 851 q 486 868 475 868 q 505 860 497 868 q 510 840 513 851 q 499 821 508 829 q 478 813 489 813 m 485 856 q 467 840 469 856 q 481 826 467 826 q 496 840 496 826 q 485 856 499 856 m 636 356 q 655 348 647 356 q 660 329 663 340 q 648 310 657 318 q 628 301 639 301 q 609 310 617 301 q 604 329 601 318 q 616 348 607 340 q 636 356 625 356 m 629 314 q 647 329 644 314 q 635 343 650 343 q 618 329 621 343 q 629 314 615 314 m 279 307 q 297 299 290 307 q 301 279 304 290 q 290 260 300 268 q 269 251 281 251 q 251 260 258 251 q 246 279 244 268 q 258 299 249 290 q 279 307 268 307 m 272 265 q 284 269 279 265 q 289 279 289 274 q 276 294 292 294 q 258 279 261 294 q 272 265 258 265 m 343 229 q 361 221 354 229 q 365 201 368 213 q 354 182 364 190 q 333 174 344 174 q 315 182 322 174 q 310 201 308 190 q 322 221 313 213 q 343 229 332 229 m 336 186 q 348 190 343 186 q 353 201 353 194 q 340 217 356 217 q 324 201 326 217 q 336 186 324 186 m 456 215 q 474 207 467 215 q 479 188 482 199 q 467 168 476 176 q 447 160 458 160 q 428 168 436 160 q 424 188 421 176 q 435 207 426 199 q 456 215 444 215 m 449 174 q 465 188 463 174 q 454 203 468 203 q 436 188 439 203 q 449 174 433 174 m 621 435 q 633 454 624 446 q 653 463 642 463 q 672 454 664 463 q 676 435 679 446 q 665 415 674 424 q 644 407 656 407 q 626 415 633 407 q 621 435 618 424 m 663 435 q 651 450 665 450 q 633 435 636 450 q 646 419 631 419 q 663 435 660 419 m 597 810 q 578 818 586 810 q 574 838 571 826 q 585 857 576 849 q 606 865 594 865 q 624 857 617 865 q 629 838 632 849 q 617 818 626 826 q 597 810 608 810 m 604 851 q 586 838 589 851 q 599 822 583 822 q 617 838 614 822 q 604 851 619 851 m 615 500 q 596 508 603 500 q 592 528 589 517 q 602 547 593 539 q 624 556 611 556 q 642 547 635 556 q 647 528 649 539 q 635 508 644 517 q 615 500 626 500 m 621 543 q 604 528 607 543 q 617 513 601 513 q 633 528 631 513 q 631 539 635 535 q 621 543 626 543 m 535 557 q 516 565 524 557 q 511 585 508 574 q 523 604 514 596 q 543 613 532 613 q 562 604 554 613 q 567 585 569 596 q 555 565 564 574 q 535 557 546 557 m 542 599 q 524 585 526 599 q 536 569 521 569 q 554 585 551 569 q 542 599 557 599 m 322 626 q 341 618 333 626 q 346 599 349 610 q 334 579 343 588 q 314 571 325 571 q 295 579 303 571 q 290 599 288 588 q 302 618 293 610 q 322 626 311 626 m 315 585 q 332 599 329 585 q 321 614 335 614 q 303 599 306 614 q 315 585 300 585 m 708 810 q 690 818 697 810 q 685 838 682 826 q 697 857 688 849 q 717 865 706 865 q 735 857 728 865 q 740 838 743 849 q 728 818 738 826 q 708 810 719 810 m 715 851 q 697 838 700 851 q 710 822 694 822 q 726 838 724 822 q 715 851 729 851 m 363 861 q 381 853 374 861 q 386 833 388 844 q 374 814 383 822 q 353 806 364 806 q 335 814 342 806 q 331 833 328 822 q 342 853 332 844 q 363 861 351 861 m 356 819 q 372 833 369 819 q 360 849 372 849 q 348 844 353 849 q 343 833 343 840 q 356 819 340 819 m 568 263 q 587 254 579 263 q 592 235 594 246 q 581 215 590 224 q 560 207 571 207 q 542 215 549 207 q 538 235 536 224 q 549 254 540 246 q 568 263 557 263 m 563 221 q 579 235 576 221 q 567 250 582 250 q 550 235 553 250 q 563 221 547 221 m 329 696 q 310 704 318 696 q 306 724 303 713 q 317 743 308 735 q 338 751 326 751 q 356 743 349 751 q 361 724 364 735 q 349 704 358 713 q 329 696 340 696 m 336 738 q 318 724 321 738 q 331 708 315 708 q 349 724 346 708 q 336 738 351 738 m 400 765 l 382 654 l 489 654 q 590 633 544 654 q 667 576 636 613 q 710 490 697 539 q 715 385 724 440 q 678 278 707 328 q 606 192 649 229 q 511 135 564 156 q 403 114 458 114 q 312 130 353 114 q 243 175 271 146 q 203 244 215 204 q 196 331 190 283 l 356 331 q 349 282 338 301 q 376 256 361 263 q 411 249 386 249 l 425 249 q 480 259 453 249 q 528 288 507 269 q 565 332 550 307 q 585 385 581 357 q 582 437 589 413 q 559 480 575 461 q 519 509 543 499 q 468 519 496 519 l 226 519 l 286 900 l 797 900 l 774 747 q 736 760 758 756 q 682 765 714 765 l 400 765 m 719 882 q 685 869 700 882 q 668 838 671 857 q 676 805 665 818 q 706 792 686 792 q 740 805 725 792 q 757 838 754 818 q 749 869 760 857 q 719 882 739 882 m 608 882 q 574 869 589 882 q 556 838 558 857 q 564 805 553 818 q 594 792 575 792 q 629 805 614 792 q 647 838 644 818 q 639 869 650 857 q 608 882 628 882 m 490 886 q 455 873 471 886 q 436 840 439 860 q 444 808 433 821 q 475 796 456 796 q 508 808 493 796 q 526 840 524 821 q 519 873 529 860 q 490 886 508 886 m 229 279 q 237 247 226 260 q 267 235 247 235 q 301 247 286 235 q 319 279 317 260 q 312 312 322 299 q 282 325 301 325 q 247 312 263 325 q 229 279 232 299 m 331 157 q 365 169 350 157 q 383 201 381 182 q 376 233 386 221 q 346 246 365 246 q 311 233 326 246 q 293 201 296 221 q 301 169 290 182 q 331 157 311 157 m 444 143 q 478 156 464 143 q 496 188 493 168 q 488 220 499 207 q 458 233 478 233 q 424 220 439 233 q 406 188 408 207 q 414 156 403 168 q 444 143 425 143 m 557 190 q 592 203 576 190 q 610 235 607 217 q 601 267 613 254 q 571 281 590 281 q 537 267 551 281 q 519 235 522 254 q 527 203 517 217 q 557 190 538 190 m 625 283 q 660 297 644 283 q 678 329 675 310 q 669 361 681 349 q 639 374 658 374 q 605 361 619 374 q 588 329 590 349 q 595 297 585 310 q 625 283 606 283 m 693 435 q 685 467 696 454 q 656 481 675 481 q 622 467 636 481 q 604 435 607 454 q 612 403 601 415 q 642 390 622 390 q 676 403 661 390 q 693 435 690 415 m 626 574 q 592 560 607 574 q 574 528 576 547 q 582 496 571 508 q 613 483 593 483 q 646 496 631 483 q 664 528 661 508 q 656 560 667 547 q 626 574 644 574 m 546 629 q 512 616 526 629 q 494 585 497 603 q 502 552 492 565 q 532 539 513 539 q 566 552 551 539 q 583 585 581 565 q 576 616 586 603 q 546 629 565 629 m 436 636 q 402 623 417 636 q 385 592 388 610 q 392 559 382 572 q 422 546 403 546 q 457 559 442 546 q 475 592 472 572 q 467 623 478 610 q 436 636 456 636 m 311 554 q 345 567 331 554 q 363 599 360 579 q 355 631 365 618 q 325 644 344 644 q 290 631 306 644 q 272 599 275 618 q 281 567 269 579 q 311 554 292 554 m 289 724 q 297 692 286 704 q 326 679 307 679 q 361 692 346 679 q 379 724 376 704 q 371 756 382 743 q 340 768 360 768 q 306 756 321 768 q 289 724 292 743 m 350 789 q 385 801 369 789 q 403 833 400 814 q 395 866 406 853 q 365 879 385 879 q 331 866 346 879 q 313 833 315 853 q 320 801 310 814 q 350 789 331 789 z "},"6":{"ha":804,"x_min":75,"x_max":874,"o":"m 776 585 l 769 585 q 822 481 808 536 q 825 368 835 426 q 760 211 813 285 q 628 97 707 138 l 611 86 q 510 24 568 49 q 386 0 451 0 l 332 0 q 221 23 271 0 q 138 86 171 46 q 90 180 104 126 q 85 296 75 233 l 128 567 q 169 679 138 626 q 249 772 200 732 l 258 779 q 387 897 308 853 q 553 942 465 942 l 610 942 q 714 919 667 942 q 796 858 761 897 q 851 764 831 818 q 874 646 871 710 l 849 646 l 776 585 m 318 831 q 314 826 314 831 l 318 831 m 628 729 q 641 708 636 718 q 642 689 646 697 q 647 682 640 682 l 669 682 l 835 682 q 817 772 835 731 q 769 842 800 813 q 697 889 739 872 q 604 906 654 906 l 547 906 q 440 885 492 906 q 345 828 388 864 q 274 743 303 792 q 236 639 244 694 l 193 368 q 198 262 185 311 q 242 176 211 213 q 318 118 272 139 q 419 97 364 97 l 474 97 q 591 121 536 97 q 688 183 646 144 q 756 272 729 222 q 790 374 782 321 q 783 477 797 426 q 728 569 768 528 q 653 622 693 606 q 558 639 613 639 l 399 639 q 442 715 406 683 q 522 747 478 747 l 579 747 q 606 742 596 747 q 628 729 617 736 m 374 476 l 533 476 q 604 444 579 476 q 622 368 629 413 q 580 291 615 322 q 499 260 544 260 l 444 260 q 374 291 400 260 q 356 368 349 322 l 374 476 m 392 368 q 405 317 388 338 q 450 296 422 296 l 504 296 l 515 296 q 501 353 521 328 q 446 379 482 379 l 394 379 l 392 368 m 338 239 q 356 231 349 239 q 361 211 363 222 q 349 192 358 200 q 329 185 340 185 q 310 192 318 185 q 306 211 303 200 q 317 231 307 222 q 338 239 326 239 m 331 197 q 349 211 346 197 q 346 222 350 218 q 335 226 342 226 q 319 211 322 226 q 331 197 317 197 m 297 488 q 279 496 286 488 q 274 515 272 504 q 285 534 276 526 q 306 542 294 542 q 324 534 317 542 q 329 515 332 526 q 318 496 328 504 q 297 488 308 488 m 304 529 q 286 515 289 529 q 289 504 285 508 q 300 500 293 500 q 317 515 314 500 q 304 529 319 529 m 369 714 q 351 722 358 714 q 346 742 343 731 q 358 761 349 753 q 378 769 367 769 q 397 761 389 769 q 401 742 404 753 q 390 722 399 731 q 369 714 381 714 m 376 757 q 358 742 361 757 q 371 726 356 726 q 389 742 386 726 q 376 757 392 757 m 321 608 q 303 617 310 608 q 299 636 296 625 q 310 656 301 647 q 329 664 318 664 q 348 656 340 664 q 353 636 356 647 q 341 617 350 625 q 321 608 332 608 m 328 651 q 311 636 314 651 q 322 622 308 622 q 340 636 338 622 q 328 651 343 651 m 286 324 q 305 315 297 324 q 310 296 313 307 q 298 276 307 285 q 278 268 289 268 q 259 276 267 268 q 254 296 251 285 q 266 315 257 307 q 286 324 275 324 m 281 282 q 296 296 293 282 q 285 311 299 311 q 267 296 269 311 q 281 282 264 282 m 308 404 q 296 385 306 393 q 275 376 286 376 q 258 385 264 376 q 254 404 251 393 q 265 424 256 415 q 285 432 274 432 q 303 424 296 432 q 308 404 310 415 m 267 404 q 278 389 264 389 q 296 404 293 389 q 293 415 297 411 q 282 419 289 419 q 267 404 269 419 m 696 438 q 678 446 685 438 q 674 465 671 454 q 685 484 675 476 q 706 492 694 492 q 724 484 717 492 q 729 465 731 476 q 717 446 726 454 q 696 438 707 438 m 703 479 q 686 465 689 479 q 699 450 683 450 q 717 465 714 450 q 714 476 718 472 q 703 479 710 479 m 413 532 q 395 540 401 532 q 390 560 389 549 q 401 579 393 571 q 421 588 410 588 q 440 579 432 588 q 444 560 447 571 q 433 540 443 549 q 413 532 424 532 m 419 574 q 403 560 406 574 q 415 544 400 544 q 432 560 429 544 q 419 574 435 574 m 521 532 q 503 540 510 532 q 499 560 497 549 q 510 579 501 571 q 529 588 518 588 q 549 579 542 588 q 553 560 556 571 q 542 540 551 549 q 521 532 533 532 m 528 574 q 511 560 514 574 q 514 549 510 553 q 524 544 518 544 q 540 560 538 544 q 528 574 543 574 m 728 725 q 710 733 717 725 q 704 753 703 742 q 717 772 707 764 q 738 781 726 781 q 755 772 749 781 q 758 753 761 764 q 748 733 757 742 q 728 725 739 725 m 735 768 q 717 753 719 768 q 731 739 714 739 q 746 753 743 739 q 735 768 749 768 m 663 785 q 644 793 651 785 q 639 813 636 801 q 651 832 642 824 q 671 840 660 840 q 689 832 682 840 q 693 813 696 824 q 682 793 690 801 q 663 785 674 785 m 669 826 q 651 813 654 826 q 664 797 649 797 q 681 813 678 797 q 669 826 683 826 m 561 804 q 539 831 535 804 q 550 850 542 842 q 569 858 558 858 q 588 850 581 858 q 593 831 596 842 q 581 812 590 819 q 561 804 572 804 m 568 846 q 551 831 554 846 q 564 817 549 817 q 581 831 578 817 q 568 846 583 846 m 629 514 q 611 522 618 514 q 606 542 604 531 q 617 561 608 553 q 638 569 626 569 q 656 561 649 569 q 661 542 664 553 q 650 522 660 531 q 629 514 640 514 m 636 557 q 618 542 621 557 q 621 531 617 535 q 632 526 625 526 q 649 542 646 526 q 636 557 651 557 m 453 789 q 435 797 442 789 q 432 817 429 806 q 442 835 433 828 q 463 843 451 843 q 481 835 474 843 q 486 817 488 828 q 474 797 483 806 q 453 789 464 789 m 460 831 q 449 826 454 831 q 444 817 444 822 q 456 801 442 801 q 474 817 471 801 q 460 831 474 831 m 557 213 q 575 204 568 213 q 581 185 582 196 q 568 165 578 174 q 547 157 558 157 q 529 165 536 157 q 525 185 522 174 q 536 204 526 196 q 557 213 546 213 m 550 169 q 567 185 564 169 q 564 196 568 192 q 554 200 560 200 q 538 185 540 200 q 550 169 535 169 m 435 197 q 453 189 446 197 q 458 169 461 181 q 447 150 456 158 q 426 142 438 142 q 408 150 415 142 q 403 169 400 158 q 415 189 406 181 q 435 197 424 197 m 428 156 q 446 169 443 156 q 433 185 449 185 q 415 169 418 185 q 428 156 413 156 m 657 288 q 676 279 668 288 q 681 260 683 271 q 669 240 678 249 q 649 232 660 232 q 630 240 638 232 q 625 260 622 249 q 637 279 628 271 q 657 288 646 288 m 650 244 q 668 260 665 244 q 656 275 671 275 q 639 260 642 275 q 650 244 636 244 m 715 557 q 768 466 753 517 q 775 367 783 415 q 742 272 767 318 q 677 189 717 225 q 586 131 638 153 q 475 110 535 110 l 421 110 q 325 130 368 110 q 253 184 282 150 q 213 265 225 218 q 208 367 200 313 l 251 636 q 287 735 260 689 q 353 816 314 782 q 442 869 393 850 q 544 889 492 889 l 603 889 q 685 875 647 889 q 752 835 724 861 q 799 774 781 810 q 821 694 817 738 l 663 694 q 658 703 660 699 q 653 714 656 708 q 649 726 650 719 q 617 750 632 740 q 582 760 601 760 l 524 760 q 476 749 500 760 q 434 718 453 738 q 401 674 415 699 q 383 622 388 649 l 556 622 q 645 605 607 622 q 715 557 683 588 m 708 510 q 674 497 689 510 q 656 465 658 485 q 663 433 653 446 q 693 419 674 419 q 728 433 713 419 q 746 465 743 446 q 738 497 749 485 q 708 510 728 510 m 640 586 q 606 574 621 586 q 588 542 590 561 q 596 509 585 522 q 626 496 607 496 q 660 509 646 496 q 678 542 675 522 q 670 574 681 561 q 640 586 660 586 m 532 604 q 499 591 514 604 q 481 560 483 578 q 489 528 478 540 q 518 515 500 515 q 553 528 538 515 q 571 560 568 540 q 563 591 574 578 q 532 604 551 604 m 424 604 q 390 591 404 604 q 372 560 375 578 q 380 528 369 540 q 410 515 390 515 q 444 528 429 515 q 463 560 460 540 q 454 591 465 578 q 424 604 443 604 m 776 753 q 768 785 779 772 q 739 797 757 797 q 704 785 719 797 q 686 753 689 772 q 694 721 683 733 q 725 708 706 708 q 758 721 743 708 q 776 753 774 733 m 674 857 q 640 844 654 857 q 622 813 625 832 q 630 780 619 793 q 660 767 640 767 q 694 780 679 767 q 711 813 708 793 q 703 844 714 832 q 674 857 693 857 m 572 876 q 538 863 553 876 q 521 831 524 850 q 528 799 518 811 q 558 786 539 786 q 593 799 578 786 q 611 831 608 811 q 603 863 614 850 q 572 876 592 876 m 465 861 q 432 849 447 861 q 414 817 417 836 q 422 784 411 797 q 450 771 432 771 q 485 784 469 771 q 504 817 501 797 q 496 849 507 836 q 465 861 485 861 m 381 788 q 347 774 361 788 q 329 742 332 761 q 337 710 326 722 q 367 697 347 697 q 401 710 386 697 q 419 742 417 722 q 411 774 422 761 q 381 788 400 788 m 332 682 q 298 669 313 682 q 281 636 283 656 q 288 604 278 617 q 318 592 299 592 q 353 604 338 592 q 371 636 368 617 q 363 669 374 656 q 332 682 351 682 m 308 560 q 274 547 289 560 q 257 515 260 533 q 265 483 254 496 q 294 469 275 469 q 328 483 314 469 q 346 515 343 496 q 338 547 349 533 q 308 560 328 560 m 236 404 q 244 372 233 385 q 274 360 256 360 q 308 372 293 360 q 326 404 324 385 q 318 437 329 424 q 288 450 307 450 q 254 437 269 450 q 236 404 239 424 m 236 296 q 244 264 233 276 q 275 251 256 251 q 308 264 293 251 q 326 296 324 276 q 318 328 329 315 q 289 340 307 340 q 254 328 269 340 q 236 296 239 315 m 326 167 q 360 180 346 167 q 378 211 375 193 q 370 244 381 231 q 340 257 360 257 q 307 244 322 257 q 289 211 292 231 q 297 180 286 193 q 326 167 308 167 m 424 125 q 458 138 443 125 q 475 169 472 151 q 467 202 478 189 q 438 215 457 215 q 403 202 418 215 q 386 169 389 189 q 394 138 383 151 q 424 125 404 125 m 496 243 q 588 278 547 243 q 638 367 629 314 q 635 413 642 390 q 615 451 629 435 q 581 478 601 468 q 535 489 560 489 l 363 489 l 343 367 q 364 278 335 314 q 442 243 393 243 l 496 243 m 544 139 q 578 152 563 139 q 597 185 594 165 q 589 217 600 204 q 560 231 578 231 q 525 217 540 231 q 507 185 510 204 q 515 152 504 165 q 544 139 525 139 m 646 215 q 680 228 665 215 q 697 260 694 240 q 690 292 700 279 q 660 306 679 306 q 626 292 642 306 q 608 260 611 279 q 617 228 606 240 q 646 215 628 215 m 707 317 q 742 330 726 317 q 760 361 757 343 q 751 394 763 381 q 721 407 740 407 q 688 394 703 407 q 669 361 672 381 q 678 330 667 343 q 707 317 689 317 m 718 389 q 736 381 729 389 q 742 361 743 372 q 730 342 739 350 q 710 335 721 335 q 692 342 699 335 q 688 361 685 350 q 698 381 689 372 q 718 389 707 389 m 711 347 q 729 361 726 347 q 715 376 732 376 q 700 361 703 376 q 711 347 697 347 z "},"7":{"ha":825,"x_min":160,"x_max":963,"o":"m 168 0 l 517 650 l 329 650 q 281 643 301 650 q 249 629 261 636 l 244 625 l 192 632 l 160 863 l 235 924 l 231 946 l 963 946 l 571 225 q 544 128 526 150 q 540 78 553 94 q 506 63 528 63 l 442 8 q 431 1 436 1 q 417 0 425 0 l 168 0 m 639 747 l 292 99 l 504 99 q 510 110 511 99 q 542 239 481 136 l 903 910 l 275 910 l 303 711 q 307 707 304 708 q 313 711 310 706 q 415 747 349 747 l 639 747 m 429 199 q 448 191 440 199 q 453 171 456 183 q 441 152 450 160 q 421 144 432 144 q 402 152 410 144 q 397 171 394 160 q 409 191 400 183 q 429 199 418 199 m 422 157 q 439 171 436 157 q 428 186 442 186 q 410 171 413 186 q 422 157 407 157 m 575 853 q 592 844 586 853 q 597 825 599 836 q 585 806 594 814 q 565 797 576 797 q 547 806 554 797 q 543 825 540 814 q 554 844 544 836 q 575 853 564 853 m 568 810 q 585 825 582 810 q 572 840 588 840 q 556 825 558 840 q 568 810 553 810 m 775 797 q 757 806 764 797 q 753 825 750 814 q 764 844 754 836 q 785 853 774 853 q 803 844 796 853 q 808 825 810 836 q 796 806 806 814 q 775 797 786 797 m 782 840 q 767 825 769 840 q 778 810 764 810 q 796 825 793 810 q 793 836 797 832 q 782 840 789 840 m 469 853 q 488 844 481 853 q 493 825 494 836 q 481 806 490 814 q 460 797 471 797 q 442 806 449 797 q 438 825 435 814 q 449 844 439 836 q 469 853 458 853 m 463 810 q 481 825 478 810 q 478 836 482 832 q 467 840 474 840 q 450 825 453 840 q 463 810 447 810 m 582 461 q 564 469 571 461 q 558 489 557 478 q 570 508 561 500 q 590 517 579 517 q 609 508 601 517 q 614 489 617 500 q 603 469 613 478 q 582 461 593 461 m 589 504 q 571 489 574 504 q 574 478 569 482 q 585 474 578 474 q 601 489 599 474 q 589 504 604 504 m 703 825 q 690 806 700 814 q 669 797 681 797 q 651 806 658 797 q 647 825 644 814 q 658 844 649 836 q 679 853 668 853 q 697 844 690 853 q 703 825 704 836 m 660 825 q 672 810 657 810 q 689 825 686 810 q 676 840 692 840 q 660 825 663 840 m 708 686 q 690 694 697 686 q 685 714 682 703 q 697 733 688 725 q 717 742 706 742 q 735 733 728 742 q 740 714 743 725 q 728 694 738 703 q 708 686 719 686 m 714 728 q 697 714 700 728 q 710 700 694 700 q 726 714 724 700 q 714 728 729 728 m 879 894 q 703 568 790 726 q 528 242 617 410 l 528 244 q 491 164 501 196 q 489 113 481 132 l 315 113 l 664 761 l 418 761 q 317 732 350 761 l 292 894 l 879 894 m 788 871 q 753 858 768 871 q 736 825 739 844 q 744 793 733 806 q 774 781 754 781 q 808 793 793 781 q 825 825 822 806 q 817 858 828 844 q 788 871 807 871 m 757 714 q 749 746 760 733 q 719 758 738 758 q 685 746 700 758 q 668 714 671 733 q 676 682 665 694 q 706 669 686 669 q 739 682 724 669 q 757 714 754 694 m 356 781 q 390 793 375 781 q 408 825 406 806 q 400 858 411 844 q 369 871 389 871 q 336 858 351 871 q 318 825 321 844 q 326 793 315 806 q 356 781 338 781 m 458 781 q 492 793 478 781 q 510 825 507 806 q 502 858 513 844 q 472 871 492 871 q 438 858 453 871 q 419 825 422 844 q 428 793 417 806 q 458 781 439 781 m 564 781 q 598 793 583 781 q 615 825 613 806 q 608 858 618 844 q 578 871 597 871 q 543 858 558 871 q 525 825 528 844 q 533 793 522 806 q 564 781 544 781 m 629 825 q 638 793 626 806 q 668 781 649 781 q 702 793 688 781 q 719 825 717 806 q 712 858 722 844 q 682 871 701 871 q 647 858 663 871 q 629 825 632 844 m 657 649 q 622 636 638 649 q 604 604 607 624 q 613 572 601 585 q 643 560 624 560 q 676 572 661 560 q 694 604 692 585 q 686 636 697 624 q 657 649 675 649 m 593 533 q 559 521 574 533 q 542 489 544 508 q 549 457 539 469 q 579 444 560 444 q 614 457 599 444 q 632 489 629 469 q 624 521 635 508 q 593 533 613 533 m 418 126 q 452 140 438 126 q 469 171 467 153 q 462 203 472 190 q 432 217 451 217 q 397 203 413 217 q 379 171 382 190 q 388 140 376 153 q 418 126 399 126 m 472 229 q 506 242 492 229 q 524 274 521 254 q 516 306 526 293 q 486 319 506 319 q 451 306 467 319 q 433 274 436 293 q 442 242 431 254 q 472 229 453 229 m 519 343 q 553 356 539 343 q 571 388 568 368 q 563 419 574 407 q 533 432 553 432 q 499 419 514 432 q 481 388 483 407 q 489 356 478 368 q 519 343 500 343 m 483 301 q 501 293 494 301 q 507 274 508 285 q 495 254 504 263 q 475 246 486 246 q 456 254 464 246 q 451 274 449 263 q 463 293 453 285 q 483 301 472 301 m 476 260 q 494 274 492 260 q 492 285 496 281 q 481 289 488 289 q 464 274 467 289 q 476 260 461 260 m 531 415 q 549 407 542 415 q 554 388 556 399 q 542 368 551 376 q 522 360 533 360 q 503 368 511 360 q 499 388 496 376 q 510 407 500 399 q 531 415 519 415 m 524 374 q 542 388 539 374 q 539 398 543 394 q 528 401 535 401 q 511 388 514 401 q 524 374 508 374 m 367 853 q 385 844 378 853 q 390 825 392 836 q 378 806 388 814 q 357 797 368 797 q 340 806 346 797 q 336 825 333 814 q 347 844 338 836 q 367 853 356 853 m 360 810 q 378 825 375 810 q 364 840 381 840 q 349 825 351 840 q 360 810 346 810 m 646 576 q 627 585 633 576 q 622 604 621 593 q 634 624 625 615 q 656 632 643 632 q 673 624 667 632 q 676 604 679 615 q 666 585 675 593 q 646 576 657 576 m 653 619 q 635 604 638 619 q 649 589 632 589 q 664 604 661 589 q 653 619 667 619 z "},"8":{"ha":779,"x_min":54,"x_max":824,"o":"m 419 257 q 349 288 375 257 q 329 363 322 318 q 372 438 336 406 q 453 469 408 469 l 531 469 q 601 438 575 469 q 621 363 628 406 q 578 288 614 318 q 497 257 542 257 l 419 257 m 364 363 q 378 313 358 333 q 425 292 397 292 l 503 292 l 513 292 q 499 349 518 324 q 444 374 479 374 l 365 374 l 364 363 m 307 0 q 192 24 242 0 q 111 90 143 49 q 67 183 79 131 q 63 292 54 235 q 101 397 71 343 q 176 494 131 451 q 164 551 167 518 q 165 611 161 585 q 201 705 174 660 q 264 782 228 750 l 285 800 q 387 894 322 856 q 526 932 451 932 l 604 932 q 701 911 658 932 q 771 855 743 890 q 810 774 799 819 q 813 679 821 728 q 796 623 808 651 q 765 565 783 594 q 813 467 801 517 q 815 367 824 417 q 792 285 808 325 q 749 210 775 246 q 690 146 724 175 q 617 96 656 117 l 600 82 q 503 22 557 44 q 386 0 450 0 l 307 0 m 292 561 q 209 470 239 521 q 170 368 179 419 q 172 267 161 317 q 211 180 182 218 q 286 119 240 142 q 393 96 332 96 l 471 96 q 585 119 532 96 q 680 180 639 142 q 748 267 721 218 q 783 368 775 317 q 776 470 790 419 q 722 561 763 521 q 777 674 767 615 q 769 783 788 733 q 707 864 751 832 q 599 896 663 896 l 521 896 q 403 864 457 896 q 315 783 349 832 q 272 674 281 733 q 292 561 264 615 m 478 629 q 442 645 456 629 q 432 682 429 661 q 454 720 436 704 q 494 736 472 736 l 572 736 q 607 720 593 736 q 617 682 621 704 q 595 645 614 661 q 556 629 576 629 l 478 629 m 356 219 q 373 211 367 219 q 376 192 379 203 q 366 172 375 181 q 346 164 357 164 q 328 172 335 164 q 322 192 321 181 q 335 211 325 203 q 356 219 344 219 m 349 178 q 364 192 361 178 q 353 207 367 207 q 335 192 338 207 q 338 181 333 185 q 349 178 342 178 m 369 550 q 400 576 374 576 q 419 569 411 576 q 424 550 426 561 q 412 531 421 539 q 392 522 403 522 q 374 531 381 522 q 369 550 367 539 m 411 550 q 399 564 414 564 q 382 550 385 564 q 393 535 379 535 q 411 550 408 535 m 513 574 q 531 565 524 574 q 536 546 538 557 q 524 527 533 535 q 504 519 515 519 q 486 527 493 519 q 482 546 479 535 q 492 565 483 557 q 513 574 501 574 m 506 532 q 524 546 521 532 q 521 557 525 553 q 510 561 517 561 q 494 546 497 561 q 506 532 492 532 m 453 196 q 472 188 464 196 q 476 169 479 181 q 465 150 474 158 q 444 142 456 142 q 426 150 433 142 q 422 169 419 158 q 433 188 425 181 q 453 196 442 196 m 446 154 q 464 169 461 154 q 461 180 465 176 q 450 183 457 183 q 435 169 438 183 q 446 154 432 154 m 299 442 q 281 450 288 442 q 276 469 274 458 q 307 496 281 496 q 325 488 318 496 q 329 469 332 481 q 318 450 326 458 q 299 442 310 442 m 306 483 q 289 469 292 483 q 300 454 286 454 q 317 469 314 454 q 306 483 319 483 m 281 364 q 269 344 278 353 q 249 336 260 336 q 230 344 238 336 q 225 364 222 353 q 237 383 228 375 q 257 390 246 390 q 276 383 268 390 q 281 364 283 375 m 238 364 q 250 349 235 349 q 267 364 264 349 q 256 378 269 378 q 238 364 240 378 m 358 622 q 341 631 347 622 q 338 650 335 639 q 348 669 339 661 q 368 676 357 676 q 386 669 379 676 q 392 650 393 661 q 379 631 389 639 q 358 622 369 622 m 365 664 q 350 650 353 664 q 361 636 347 636 q 379 650 376 636 q 376 660 381 657 q 365 664 372 664 m 615 513 q 593 539 589 513 q 604 558 596 550 q 624 567 613 567 q 642 558 635 567 q 647 539 650 550 q 635 520 644 528 q 615 513 626 513 m 622 554 q 606 539 608 554 q 617 525 603 525 q 635 539 632 525 q 622 554 638 554 m 282 292 q 300 283 293 292 q 306 264 307 275 q 294 245 303 253 q 274 238 285 238 q 251 264 247 238 q 262 283 253 275 q 282 292 271 292 m 275 250 q 293 264 290 250 q 290 275 294 271 q 279 279 286 279 q 264 264 267 279 q 275 250 261 250 m 708 551 q 760 465 747 511 q 764 367 772 418 q 732 272 757 318 q 669 191 707 226 q 581 133 631 156 q 472 111 531 111 l 393 111 q 293 133 336 111 q 223 190 250 154 q 185 270 196 225 q 182 364 174 315 q 220 464 190 414 q 308 560 250 514 q 285 623 289 592 q 285 683 281 654 q 311 758 290 722 q 363 822 332 794 q 432 867 393 850 q 515 883 471 883 l 594 883 q 672 866 638 883 q 728 820 706 849 q 758 756 750 792 q 761 681 767 719 q 744 624 757 650 q 711 569 732 597 l 708 551 m 701 507 q 669 494 683 507 q 651 463 654 482 q 659 431 649 444 q 688 418 669 418 q 722 431 707 418 q 739 463 736 444 q 731 494 742 482 q 701 507 721 507 m 553 617 q 602 637 579 617 q 629 683 625 657 q 617 731 635 711 q 574 751 600 751 l 494 751 q 445 731 468 751 q 417 683 422 711 q 430 637 413 657 q 474 617 447 617 l 553 617 m 553 546 q 545 578 556 565 q 515 590 535 590 q 482 578 497 590 q 464 546 467 565 q 472 515 461 528 q 501 503 483 503 q 535 515 521 503 q 553 546 550 528 m 440 550 q 433 581 443 568 q 403 594 422 594 q 370 581 385 594 q 353 550 356 568 q 360 518 350 531 q 389 506 371 506 q 423 518 408 506 q 440 550 438 531 m 626 583 q 593 571 608 583 q 575 539 578 558 q 583 508 572 521 q 613 494 594 494 q 647 508 632 494 q 664 539 661 521 q 656 571 667 558 q 626 583 646 583 m 701 793 q 667 781 682 793 q 649 749 651 768 q 657 717 646 731 q 688 704 668 704 q 721 717 706 704 q 739 749 736 731 q 731 781 742 768 q 701 793 719 793 m 683 682 q 649 669 664 682 q 631 638 633 657 q 639 607 628 619 q 669 594 650 594 q 703 607 688 594 q 721 638 718 619 q 713 669 724 657 q 683 682 701 682 m 615 857 q 583 844 597 857 q 565 813 568 832 q 573 781 563 793 q 601 768 583 768 q 635 781 621 768 q 653 813 650 793 q 645 844 656 832 q 615 857 635 857 m 504 857 q 469 844 485 857 q 451 813 454 831 q 460 781 449 793 q 490 768 471 768 q 523 781 508 768 q 540 813 538 793 q 533 844 543 831 q 504 857 522 857 m 401 807 q 367 794 382 807 q 350 764 353 782 q 358 732 347 744 q 388 719 368 719 q 421 732 406 719 q 439 764 436 744 q 431 794 442 782 q 401 807 419 807 m 319 650 q 328 618 317 631 q 357 606 339 606 q 391 618 376 606 q 408 650 406 631 q 401 682 411 669 q 371 694 390 694 q 338 682 353 694 q 319 650 322 669 m 310 514 q 276 501 290 514 q 258 469 261 489 q 266 438 256 450 q 296 425 276 425 q 330 438 315 425 q 347 469 344 450 q 340 501 350 489 q 310 514 329 514 m 208 364 q 216 332 206 344 q 246 319 226 319 q 279 332 264 319 q 297 364 294 344 q 289 395 300 382 q 260 408 278 408 q 226 395 240 408 q 208 364 211 382 m 271 219 q 305 233 290 219 q 322 264 319 246 q 315 296 325 283 q 285 308 304 308 q 251 296 267 308 q 233 264 236 283 q 242 233 231 246 q 271 219 253 219 m 343 147 q 377 160 363 147 q 394 192 392 174 q 387 224 397 211 q 357 236 376 236 q 323 224 338 236 q 306 192 308 211 q 313 160 303 174 q 343 147 324 147 m 313 364 q 335 278 304 313 q 414 243 365 243 l 493 243 q 584 278 543 243 q 633 364 625 313 q 631 410 638 388 q 611 449 625 432 q 577 475 597 465 q 532 485 557 485 l 453 485 q 406 475 429 485 q 363 449 382 465 q 330 410 343 432 q 313 364 317 388 m 442 125 q 476 138 461 125 q 493 169 490 150 q 485 201 496 188 q 456 214 475 214 q 422 201 438 214 q 404 169 407 188 q 413 138 401 150 q 442 125 424 125 m 547 140 q 580 153 565 140 q 597 183 594 165 q 590 215 600 203 q 561 228 579 228 q 527 215 542 228 q 510 183 513 203 q 517 153 507 165 q 547 140 528 140 m 639 217 q 672 229 657 217 q 689 260 686 242 q 681 292 692 279 q 653 306 671 306 q 619 292 633 306 q 601 260 604 279 q 609 229 599 242 q 639 217 619 217 m 697 315 q 732 328 717 315 q 750 361 747 342 q 742 392 753 379 q 713 404 732 404 q 680 392 694 404 q 663 361 665 379 q 669 328 660 342 q 697 315 679 315 m 493 785 q 474 793 482 785 q 469 813 467 801 q 481 831 472 824 q 501 839 490 839 q 519 831 513 839 q 524 813 526 824 q 513 793 521 801 q 493 785 504 785 m 500 826 q 482 813 485 826 q 494 797 479 797 q 511 813 508 797 q 500 826 514 826 m 650 288 q 668 279 661 288 q 672 260 675 271 q 662 241 671 249 q 642 233 653 233 q 624 241 631 233 q 618 260 617 249 q 630 279 621 271 q 650 288 639 288 m 644 246 q 660 260 657 246 q 649 275 663 275 q 631 260 633 275 q 633 250 629 254 q 644 246 638 246 m 710 388 q 728 380 721 388 q 733 361 735 372 q 722 342 731 350 q 701 333 713 333 q 683 342 690 333 q 679 361 676 350 q 690 380 681 372 q 710 388 699 388 m 703 346 q 721 361 718 346 q 707 375 721 375 q 697 371 701 375 q 692 361 692 367 q 703 346 689 346 m 604 785 q 586 793 593 785 q 582 813 579 801 q 593 832 585 824 q 613 840 601 840 q 631 832 624 840 q 636 813 639 824 q 624 793 633 801 q 604 785 615 785 m 611 828 q 594 813 597 828 q 606 797 592 797 q 624 813 621 797 q 611 828 626 828 m 690 722 q 672 730 679 722 q 667 749 664 738 q 678 768 669 760 q 699 776 688 776 q 717 768 710 776 q 721 749 724 760 q 710 730 718 738 q 690 722 701 722 m 697 764 q 679 749 682 764 q 692 735 676 735 q 708 749 706 735 q 697 764 711 764 m 690 436 q 668 463 664 436 q 679 482 671 474 q 699 490 688 490 q 717 482 710 490 q 722 463 725 474 q 710 444 719 451 q 690 436 701 436 m 697 478 q 681 463 683 478 q 683 452 679 456 q 693 449 688 449 q 710 463 707 449 q 697 478 713 478 m 672 611 q 654 619 661 611 q 649 638 647 626 q 660 657 651 649 q 681 665 669 665 q 699 657 692 665 q 703 638 706 649 q 692 619 701 626 q 672 611 683 611 m 679 653 q 661 638 664 653 q 664 628 660 632 q 675 624 668 624 q 690 638 688 624 q 679 653 693 653 m 560 211 q 577 203 571 211 q 581 183 583 194 q 570 165 579 172 q 550 157 561 157 q 532 165 539 157 q 526 183 525 172 q 539 203 529 194 q 560 211 549 211 m 553 169 q 563 174 558 169 q 568 183 568 178 q 567 194 571 190 q 557 199 563 199 q 539 183 543 199 q 553 169 539 169 m 389 736 q 371 744 378 736 q 367 764 364 753 q 378 783 368 775 q 399 790 388 790 q 421 764 424 790 q 409 744 418 753 q 389 736 400 736 m 396 778 q 384 774 389 778 q 379 764 379 769 q 392 749 376 749 q 408 764 406 749 q 396 778 408 778 z "},"9":{"ha":789,"x_min":67,"x_max":871,"o":"m 569 750 q 641 719 614 750 q 661 642 668 688 l 643 533 l 481 533 q 409 565 435 533 q 390 642 383 597 q 433 719 397 688 q 515 750 469 750 l 569 750 m 551 569 q 536 629 558 606 q 482 653 514 653 l 428 653 l 426 642 q 439 592 422 614 q 486 569 456 569 l 551 569 m 601 949 q 717 925 665 949 q 805 860 769 901 q 856 762 840 818 q 861 642 871 706 l 818 369 q 749 211 803 282 q 619 101 694 140 l 601 88 q 497 24 554 47 q 379 0 439 0 l 321 0 q 220 22 267 0 q 140 81 174 43 q 86 169 106 118 q 67 279 67 219 l 143 344 q 143 363 140 349 l 168 363 q 119 456 131 407 q 117 565 107 506 q 159 682 126 625 q 242 783 192 739 l 258 797 q 381 906 307 863 q 547 949 454 949 l 601 949 m 825 642 q 819 747 833 697 q 774 833 806 796 q 697 891 743 869 q 596 913 651 913 l 542 913 q 425 889 479 913 q 329 826 371 865 q 260 738 288 788 q 226 636 233 689 q 233 532 219 583 q 286 439 246 481 q 361 386 321 403 q 456 369 401 369 l 618 369 q 602 328 614 349 q 573 294 590 308 q 535 270 556 279 q 492 261 514 261 l 433 261 q 407 266 418 261 q 386 279 396 271 q 372 298 376 288 q 371 319 367 308 q 373 324 374 322 q 369 326 372 326 l 344 326 l 178 326 q 195 236 178 278 q 243 164 213 194 q 316 116 274 133 q 408 99 358 99 l 467 99 q 575 120 522 99 q 671 178 628 142 q 744 265 714 215 q 782 369 774 314 l 825 642 m 365 721 q 347 729 354 721 q 342 749 339 738 q 353 768 344 760 q 374 776 363 776 q 392 768 385 776 q 397 749 400 760 q 385 729 394 738 q 365 721 376 721 m 372 764 q 354 749 357 764 q 367 735 351 735 q 385 749 382 735 q 372 764 388 764 m 501 475 q 519 467 513 475 q 524 447 526 458 q 513 428 522 436 q 492 421 503 421 q 474 428 481 421 q 469 447 468 436 q 481 467 472 458 q 501 475 490 475 m 494 433 q 506 438 501 433 q 511 447 511 442 q 499 463 514 463 q 482 447 485 463 q 494 433 482 433 m 581 225 q 599 217 592 225 q 604 197 607 208 q 592 178 601 186 q 572 169 583 169 q 554 178 561 169 q 550 197 547 186 q 561 217 553 208 q 581 225 569 225 m 574 183 q 592 197 589 183 q 579 213 594 213 q 563 197 565 213 q 574 183 560 183 m 476 203 q 494 194 488 203 q 499 175 501 186 q 488 156 497 164 q 467 147 478 147 q 449 156 456 147 q 443 175 442 164 q 456 194 446 186 q 476 203 465 203 m 469 160 q 481 164 476 160 q 486 175 486 168 q 474 190 489 190 q 456 175 458 190 q 469 160 456 160 m 611 475 q 629 467 622 475 q 633 447 636 458 q 622 428 632 436 q 601 421 613 421 q 583 428 590 421 q 578 447 576 436 q 590 467 581 458 q 611 475 600 475 m 604 433 q 619 447 619 433 q 608 463 622 463 q 590 447 593 463 q 604 433 590 433 m 394 494 q 413 486 406 494 q 418 467 419 478 q 406 447 415 454 q 386 439 397 439 q 367 447 375 439 q 363 467 360 454 q 374 486 364 478 q 394 494 383 494 m 388 451 q 406 467 403 451 q 403 476 407 472 q 392 481 399 481 q 375 467 378 481 q 388 451 372 451 m 326 571 q 345 563 339 571 q 349 543 351 554 q 338 524 347 532 q 317 515 329 515 q 299 524 306 515 q 293 543 292 532 q 306 563 296 554 q 326 571 315 571 m 319 528 q 336 543 333 528 q 324 558 339 558 q 307 543 310 558 q 310 532 306 536 q 319 528 314 528 m 335 646 q 324 626 332 635 q 304 618 315 618 q 285 626 293 618 q 281 646 278 635 q 292 665 283 657 q 313 674 301 674 q 331 665 324 674 q 335 646 338 657 m 293 646 q 306 631 290 631 q 322 646 319 631 q 311 661 325 661 q 293 646 296 661 m 667 300 q 685 292 678 300 q 690 272 692 283 q 678 253 688 261 q 657 244 668 244 q 639 253 646 244 q 635 272 632 261 q 646 292 636 283 q 667 300 656 300 m 660 257 q 678 272 675 257 q 674 283 678 278 q 664 288 671 288 q 652 283 657 288 q 647 272 647 278 q 660 257 644 257 m 467 796 q 449 804 456 796 q 443 824 442 813 q 456 843 446 835 q 476 851 465 851 q 494 843 488 851 q 499 824 501 835 q 488 804 497 813 q 467 796 478 796 m 474 839 q 456 824 458 839 q 458 813 454 817 q 469 810 463 810 q 486 824 483 810 q 474 839 489 839 m 363 214 q 381 206 374 214 q 386 186 389 199 q 374 167 383 175 q 354 160 365 160 q 335 167 343 160 q 331 186 328 175 q 342 206 333 199 q 363 214 351 214 m 356 172 q 374 186 371 172 q 371 197 375 193 q 360 201 367 201 q 344 186 347 201 q 356 172 342 172 m 747 631 q 766 623 758 631 q 771 604 774 615 q 760 585 769 593 q 739 576 750 576 q 721 585 728 576 q 715 604 714 593 q 727 623 718 615 q 747 631 736 631 m 742 589 q 758 604 756 589 q 746 618 761 618 q 728 604 731 618 q 731 593 726 597 q 742 589 735 589 m 296 282 q 314 274 307 282 q 318 254 321 265 q 307 235 317 243 q 286 226 297 226 q 268 235 275 226 q 263 254 261 243 q 275 274 265 265 q 296 282 285 282 m 289 239 q 301 243 296 239 q 306 254 306 247 q 293 268 308 268 q 275 254 278 268 q 289 239 275 239 m 589 811 q 570 819 578 811 q 565 839 563 828 q 577 858 568 850 q 597 867 586 867 q 616 858 608 867 q 621 839 624 850 q 609 819 618 828 q 589 811 600 811 m 596 853 q 578 839 581 853 q 590 824 575 824 q 608 839 606 824 q 596 853 611 853 m 739 685 q 720 693 728 685 q 715 713 713 701 q 726 732 717 724 q 747 740 736 740 q 765 732 758 740 q 771 713 772 724 q 759 693 768 701 q 739 685 750 685 m 744 728 q 728 713 731 728 q 740 697 725 697 q 758 713 756 697 q 756 724 760 719 q 744 728 751 728 m 593 899 q 690 878 646 899 q 763 824 733 858 q 805 742 792 789 q 810 642 818 694 l 767 369 q 730 269 758 317 q 661 188 701 222 q 571 133 621 153 q 468 113 521 113 l 410 113 q 326 127 364 113 q 259 169 288 142 q 213 232 231 196 q 192 313 196 268 l 350 313 q 359 287 351 297 q 376 268 367 276 q 401 253 389 260 q 432 247 413 247 l 490 247 q 538 258 514 247 q 581 288 561 269 q 615 332 601 307 q 633 383 629 357 l 456 383 q 367 400 404 383 q 297 449 329 417 q 239 638 222 532 q 272 733 247 686 q 337 817 297 781 q 427 876 376 854 q 538 899 478 899 l 593 899 m 283 208 q 318 222 303 208 q 336 254 333 235 q 328 285 339 272 q 299 299 318 299 q 264 285 279 299 q 246 254 249 272 q 253 222 243 235 q 283 208 264 208 m 351 142 q 386 155 371 142 q 404 186 401 168 q 396 219 407 206 q 365 232 385 232 q 332 219 347 232 q 314 186 317 206 q 322 155 311 168 q 351 142 333 142 m 789 713 q 781 745 792 732 q 750 758 769 758 q 715 745 731 758 q 697 713 700 732 q 706 681 694 693 q 736 668 717 668 q 771 681 756 668 q 789 713 786 693 m 697 842 q 663 829 678 842 q 644 797 647 817 q 653 765 642 778 q 683 751 664 751 q 718 765 703 751 q 736 797 733 778 q 728 829 739 817 q 697 842 717 842 m 600 883 q 565 871 581 883 q 547 839 550 858 q 556 807 544 819 q 586 794 567 794 q 621 807 606 794 q 639 839 636 819 q 631 871 642 858 q 600 883 619 883 m 517 764 q 467 754 492 764 q 424 728 443 744 q 391 689 404 711 q 374 642 378 667 q 376 594 369 617 q 396 556 382 572 q 431 528 410 539 q 478 518 453 518 l 656 518 l 675 642 q 651 728 682 693 q 572 764 621 764 l 517 764 m 479 869 q 444 856 460 869 q 426 824 429 843 q 434 792 424 806 q 464 779 444 779 q 499 792 483 779 q 517 824 514 806 q 509 856 519 843 q 479 869 499 869 m 376 794 q 342 781 357 794 q 325 749 328 768 q 333 717 322 729 q 363 704 343 704 q 397 717 382 704 q 415 749 413 729 q 407 781 418 768 q 376 794 396 794 m 263 646 q 271 614 260 626 q 301 601 282 601 q 335 614 321 601 q 353 646 350 626 q 345 678 356 665 q 315 692 335 692 q 281 678 296 692 q 263 646 265 665 m 314 499 q 349 511 333 499 q 367 543 364 524 q 358 575 369 563 q 328 588 347 588 q 294 575 310 588 q 276 543 279 563 q 285 511 274 524 q 314 499 296 499 m 382 421 q 417 434 401 421 q 436 467 433 447 q 428 498 439 485 q 397 511 417 511 q 363 498 378 511 q 346 467 349 485 q 353 434 343 447 q 382 421 363 421 m 489 403 q 524 415 508 403 q 542 447 539 428 q 535 480 546 467 q 504 493 524 493 q 471 480 486 493 q 451 447 456 467 q 460 415 449 428 q 489 403 471 403 m 599 403 q 633 415 618 403 q 650 447 647 428 q 644 480 654 467 q 614 493 633 493 q 579 480 594 493 q 560 447 564 467 q 568 415 557 428 q 599 403 579 403 m 464 131 q 499 143 483 131 q 517 175 514 156 q 509 208 519 194 q 479 221 499 221 q 444 208 460 221 q 426 175 429 194 q 434 143 424 156 q 464 131 444 131 m 569 153 q 604 166 589 153 q 622 197 619 179 q 614 230 625 217 q 583 243 603 243 q 549 230 564 243 q 532 197 535 217 q 540 166 529 179 q 569 153 550 153 m 654 226 q 689 240 674 226 q 707 272 704 253 q 699 304 710 292 q 669 317 689 317 q 635 304 650 317 q 617 272 619 292 q 624 240 614 253 q 654 226 635 226 m 693 340 q 728 353 713 340 q 746 385 743 365 q 738 417 749 404 q 708 431 728 431 q 674 417 689 431 q 656 385 658 404 q 663 353 653 365 q 693 340 674 340 m 714 447 q 749 460 733 447 q 768 493 765 474 q 760 526 771 513 q 729 539 749 539 q 696 526 711 539 q 678 493 681 513 q 685 460 675 474 q 714 447 696 447 m 736 558 q 770 572 756 558 q 788 604 785 585 q 780 636 790 624 q 750 649 769 649 q 715 636 731 649 q 697 604 700 624 q 706 572 694 585 q 736 558 717 558 m 686 769 q 668 778 675 769 q 663 797 661 786 q 675 817 665 808 q 696 825 685 825 q 714 817 707 825 q 718 797 721 808 q 707 778 717 786 q 686 769 697 769 m 693 813 q 675 797 678 813 q 678 786 674 790 q 689 782 682 782 q 706 797 703 782 q 693 813 708 813 m 706 413 q 724 404 717 413 q 728 385 731 396 q 717 365 726 374 q 696 357 707 357 q 678 365 685 357 q 672 385 671 374 q 685 404 675 396 q 706 413 694 413 m 699 369 q 710 374 706 369 q 715 385 715 379 q 703 400 718 400 q 685 385 688 400 q 688 374 685 379 q 699 369 692 369 m 726 521 q 745 513 739 521 q 750 493 751 504 q 739 474 747 482 q 718 465 731 465 q 699 474 707 465 q 694 493 692 482 q 706 513 696 504 q 726 521 715 521 m 719 478 q 738 493 735 478 q 735 504 739 500 q 724 508 731 508 q 708 493 711 508 q 719 478 706 478 z "},"\u0000":{"ha":0,"x_min":0,"x_max":0,"o":""},"\r":{"ha":374,"x_min":0,"x_max":0,"o":""}," ":{"ha":374,"x_min":0,"x_max":0,"o":""},"!":{"ha":411,"x_min":50,"x_max":532,"o":"m 410 285 l 367 242 q 376 213 374 228 q 375 178 378 197 q 342 105 368 135 q 279 64 315 75 l 238 32 q 201 9 222 18 q 158 0 181 0 q 90 31 115 0 q 72 107 65 61 q 86 146 75 128 q 113 178 97 164 l 157 213 q 160 220 157 215 q 163 228 163 225 l 50 231 q 69 254 60 239 q 88 288 79 269 q 102 324 96 306 q 111 356 108 342 l 171 735 q 160 817 181 793 q 167 860 154 849 l 228 910 q 278 949 228 949 l 483 949 q 519 945 508 949 q 531 934 531 942 q 525 914 532 926 q 507 885 518 901 q 488 857 496 878 q 475 807 479 836 l 414 426 q 416 360 408 394 q 442 285 424 325 l 410 285 m 244 96 q 306 119 279 96 q 339 178 333 143 q 325 233 344 210 q 271 256 306 256 q 212 233 239 256 q 179 178 185 210 q 193 119 174 143 q 244 96 213 96 m 388 328 q 378 426 365 354 l 388 486 l 413 647 l 421 700 l 429 753 l 439 807 q 478 903 449 881 q 478 914 486 914 l 456 914 l 403 914 l 272 914 q 265 903 261 914 q 279 807 290 882 l 218 426 q 175 328 206 353 q 178 319 164 319 l 383 319 q 388 328 393 319 m 264 207 q 282 199 275 207 q 286 179 289 190 q 275 160 283 168 q 256 153 267 153 q 237 160 244 153 q 232 179 229 168 q 244 199 235 190 q 264 207 253 207 m 257 165 q 274 179 271 165 q 263 194 276 194 q 244 179 247 194 q 257 165 242 165 m 268 244 q 313 226 297 244 q 325 181 329 207 q 299 132 321 151 q 247 113 276 113 q 205 132 219 113 q 194 181 190 151 q 219 226 199 207 q 268 244 240 244 m 253 135 q 285 148 271 135 q 303 179 300 161 q 295 211 306 199 q 267 224 285 224 q 233 211 247 224 q 215 179 218 199 q 223 148 213 161 q 253 135 233 135 m 364 429 q 360 379 361 406 q 361 338 358 353 l 201 338 q 221 378 213 356 q 233 429 229 400 l 294 810 q 296 861 299 836 q 286 901 293 886 l 457 901 q 438 863 447 886 q 425 810 429 839 l 364 429 m 292 361 q 325 374 310 361 q 343 406 340 386 q 335 436 346 424 q 306 449 324 449 q 272 436 286 449 q 254 406 257 424 q 262 374 251 386 q 292 361 272 361 m 308 469 q 342 482 326 469 q 360 513 357 494 q 351 544 363 532 q 322 557 340 557 q 288 544 303 557 q 271 513 274 532 q 278 482 268 494 q 308 469 289 469 m 325 578 q 360 591 344 578 q 378 622 375 604 q 370 654 381 642 q 340 667 360 667 q 307 654 322 667 q 289 622 292 642 q 297 591 286 604 q 325 578 307 578 m 306 731 q 313 699 303 711 q 343 686 324 686 q 376 699 361 686 q 394 731 392 711 q 386 763 397 750 q 357 775 375 775 q 323 763 338 775 q 306 731 308 750 m 360 794 q 394 807 379 794 q 413 839 410 819 q 404 871 415 858 q 374 883 393 883 q 341 871 356 883 q 324 839 326 858 q 331 807 321 819 q 360 794 342 794 m 303 432 q 325 406 328 432 q 314 386 322 394 q 294 378 306 378 q 276 386 283 378 q 271 406 268 394 q 282 424 272 417 q 303 432 292 432 m 296 390 q 313 406 310 390 q 300 419 315 419 q 283 406 286 419 q 296 390 281 390 m 346 703 q 327 711 335 703 q 322 731 319 719 q 334 750 325 742 q 354 758 343 758 q 372 750 365 758 q 376 731 379 742 q 365 711 374 719 q 346 703 357 703 m 353 746 q 335 731 338 746 q 347 715 332 715 q 364 731 361 715 q 353 746 367 746 m 338 650 q 356 642 349 650 q 360 622 363 633 q 349 603 358 611 q 328 596 339 596 q 310 603 317 596 q 306 622 304 611 q 317 642 308 633 q 338 650 326 650 m 331 608 q 347 622 347 608 q 335 638 350 638 q 318 622 321 638 q 331 608 318 608 m 319 540 q 338 532 331 540 q 342 513 344 524 q 331 494 339 501 q 311 486 322 486 q 292 494 300 486 q 288 513 285 501 q 299 532 290 524 q 319 540 308 540 m 313 499 q 329 513 326 499 q 318 528 332 528 q 300 513 303 528 q 313 499 297 499 m 371 865 q 390 858 382 865 q 394 839 397 850 q 383 820 392 828 q 363 813 374 813 q 344 820 351 813 q 340 839 338 828 q 351 858 343 850 q 371 865 360 865 m 365 825 q 382 839 379 825 q 369 853 385 853 q 353 839 356 853 q 356 828 351 832 q 365 825 360 825 z "},"?":{"ha":781,"x_min":103,"x_max":885,"o":"m 640 946 q 747 924 699 946 q 826 866 794 903 q 871 779 857 829 q 875 672 885 729 q 815 532 863 593 q 699 433 767 471 l 678 419 q 572 356 635 376 l 576 351 q 574 300 589 315 q 536 285 558 285 l 507 260 q 531 178 538 228 q 498 108 524 138 q 438 68 472 79 l 393 29 q 318 0 360 0 q 247 31 274 0 q 228 107 221 63 q 242 147 231 129 q 268 178 253 164 l 313 214 q 315 221 313 217 q 317 228 317 225 l 183 231 l 217 256 q 235 276 228 267 q 250 292 243 285 l 239 292 q 251 302 246 297 q 264 310 257 307 q 267 320 267 315 q 269 331 268 325 q 308 416 283 374 q 367 488 333 458 l 390 504 q 469 587 422 553 q 574 625 515 621 q 556 645 569 636 q 524 654 543 654 l 439 654 q 439 645 438 649 q 439 636 440 642 l 415 636 l 344 576 l 103 576 q 144 694 114 640 q 221 789 175 749 l 251 811 q 361 910 297 874 q 494 946 425 946 l 640 946 m 403 96 q 462 119 435 96 q 494 178 489 143 q 481 233 500 210 q 429 256 461 256 q 367 233 394 256 q 335 178 340 210 q 349 119 329 143 q 403 96 368 96 m 589 433 q 677 460 635 439 q 753 512 719 481 q 810 584 788 543 q 840 672 833 625 q 836 765 849 722 q 796 840 824 808 q 727 891 768 872 q 635 910 686 910 l 582 910 l 564 910 l 511 910 l 489 910 q 394 891 440 910 q 310 840 347 872 q 247 765 272 808 q 214 672 222 722 l 374 672 l 396 672 q 400 679 404 672 q 406 719 393 700 q 432 743 419 738 q 449 749 440 749 q 464 750 457 750 l 497 750 l 539 750 l 557 750 l 610 750 q 665 727 646 750 q 679 672 685 704 q 647 613 674 636 q 585 590 621 590 q 513 574 546 590 q 452 530 479 557 q 406 469 425 503 q 378 399 388 435 q 360 360 371 376 q 331 328 349 343 q 328 323 326 325 q 332 321 329 321 l 539 321 q 544 323 542 321 q 543 331 546 325 q 536 388 524 349 q 540 399 536 394 q 589 433 554 429 m 636 551 q 655 543 647 551 q 660 524 663 535 q 648 504 657 513 q 628 496 639 496 q 610 504 617 496 q 606 524 603 513 q 617 543 608 535 q 636 551 625 551 m 629 508 q 647 524 644 508 q 635 539 650 539 q 618 524 621 539 q 629 508 615 508 m 424 846 q 442 838 435 846 q 447 818 450 829 q 435 799 444 807 q 415 792 426 792 q 397 799 404 792 q 393 818 390 807 q 404 838 396 829 q 424 846 413 846 m 417 804 q 435 818 432 804 q 422 833 438 833 q 406 818 408 833 q 417 804 403 804 m 649 856 q 667 847 660 856 q 671 828 674 839 q 660 809 668 817 q 640 801 651 801 q 622 809 629 801 q 617 828 614 817 q 628 847 619 839 q 649 856 638 856 m 642 814 q 658 828 656 814 q 647 843 661 843 q 629 828 632 843 q 642 814 626 814 m 532 517 q 554 490 558 517 q 544 472 553 479 q 524 464 535 464 q 500 490 497 464 q 512 509 503 501 q 532 517 521 517 m 526 476 q 542 490 539 476 q 531 504 544 504 q 513 490 515 504 q 515 480 511 483 q 526 476 519 476 m 467 422 q 484 414 478 422 q 488 394 490 406 q 477 375 486 383 q 457 367 468 367 q 439 375 446 367 q 433 394 432 383 q 446 414 436 406 q 467 422 456 422 m 460 381 q 475 394 475 381 q 464 410 478 410 q 446 394 449 410 q 460 381 446 381 m 774 713 q 791 704 785 713 q 796 685 797 696 q 784 665 793 674 q 764 657 775 657 q 746 665 753 657 q 742 685 739 674 q 753 704 743 696 q 774 713 763 713 m 767 669 q 783 685 781 669 q 771 699 786 699 q 754 685 757 699 q 767 669 751 669 m 764 782 q 752 763 761 771 q 732 754 743 754 q 714 763 721 754 q 710 782 707 771 q 720 801 711 793 q 740 808 729 808 q 764 782 767 808 m 722 782 q 733 767 719 767 q 751 782 749 767 q 749 792 753 789 q 738 796 744 796 q 722 782 725 796 m 731 610 q 749 601 742 610 q 754 582 757 593 q 742 563 751 571 q 722 556 733 556 q 704 563 711 556 q 700 582 697 571 q 711 601 703 593 q 731 610 719 610 m 724 568 q 742 582 739 568 q 729 597 744 597 q 713 582 715 597 q 724 568 710 568 m 635 894 q 721 877 682 894 q 786 829 760 860 q 824 758 813 799 q 828 671 835 718 q 799 588 821 626 q 745 520 778 550 q 672 472 713 490 q 589 447 632 453 q 553 431 565 442 q 529 401 540 419 l 533 408 q 527 398 531 403 q 524 390 524 393 q 519 360 519 375 q 526 333 519 344 l 363 333 q 381 366 375 350 q 394 397 388 382 q 421 463 403 431 q 464 519 439 494 q 519 560 489 544 q 585 575 550 575 q 657 603 625 575 q 696 671 689 631 q 679 736 703 708 q 615 764 656 764 l 469 764 q 449 763 458 764 q 428 753 440 761 l 429 757 q 401 731 418 749 q 386 686 385 713 l 233 686 q 269 766 244 728 q 328 833 294 804 q 403 878 363 861 q 489 894 444 894 l 635 894 m 325 701 q 358 715 343 701 q 376 746 374 728 q 369 778 379 765 q 340 790 358 790 q 306 778 321 790 q 289 746 292 765 q 296 715 286 728 q 325 701 306 701 m 413 775 q 447 788 432 775 q 464 818 461 800 q 456 850 467 838 q 426 863 446 863 q 393 850 408 863 q 375 818 378 838 q 383 788 372 800 q 413 775 394 775 m 517 783 q 549 797 535 783 q 567 828 564 810 q 559 860 569 847 q 531 872 549 872 q 497 860 511 872 q 479 828 482 847 q 487 797 476 810 q 517 783 497 783 m 638 783 q 670 797 656 783 q 688 828 685 810 q 680 860 690 847 q 651 872 669 872 q 617 860 632 872 q 600 828 603 847 q 608 797 597 810 q 638 783 618 783 m 692 782 q 700 750 689 763 q 729 738 711 738 q 763 750 749 738 q 781 782 778 763 q 773 813 783 800 q 743 826 763 826 q 710 813 725 826 q 692 782 694 800 m 454 350 q 488 363 472 350 q 506 394 503 376 q 498 426 508 414 q 469 439 488 439 q 435 426 450 439 q 417 394 419 414 q 424 363 414 376 q 454 350 435 350 m 521 446 q 555 458 540 446 q 572 490 569 471 q 565 522 575 510 q 535 535 554 535 q 501 522 515 535 q 483 490 486 510 q 491 458 481 471 q 521 446 501 446 m 625 479 q 659 492 644 479 q 676 524 674 506 q 669 556 679 543 q 639 568 658 568 q 606 556 621 568 q 588 524 590 543 q 596 492 585 506 q 625 479 607 479 m 719 539 q 753 551 739 539 q 771 582 768 564 q 763 614 774 601 q 733 626 753 626 q 701 614 715 626 q 683 582 686 601 q 691 551 681 564 q 719 539 701 539 m 763 640 q 796 653 781 640 q 814 685 811 665 q 806 716 817 703 q 776 729 794 729 q 742 716 757 729 q 725 685 728 703 q 733 653 722 665 q 763 640 743 640 m 528 856 q 546 847 539 856 q 550 828 553 839 q 519 801 546 801 q 501 809 508 801 q 496 828 493 817 q 508 847 499 839 q 528 856 517 856 m 521 814 q 538 828 535 814 q 526 843 540 843 q 508 828 511 843 q 521 814 506 814 m 338 774 q 355 765 349 774 q 360 746 361 757 q 349 727 357 735 q 329 719 340 719 q 310 727 318 719 q 306 746 303 735 q 317 765 307 757 q 338 774 326 774 m 331 732 q 347 746 344 732 q 335 761 350 761 q 318 746 321 761 q 331 732 315 732 m 421 208 q 440 200 432 208 q 444 181 447 192 q 433 161 442 169 q 413 153 424 153 q 394 161 401 153 q 390 181 388 169 q 401 200 393 192 q 421 208 410 208 m 415 167 q 432 181 429 167 q 419 196 435 196 q 403 181 406 196 q 406 170 401 174 q 415 167 410 167 m 429 244 q 472 226 456 244 q 483 181 488 208 q 457 132 479 151 q 408 113 435 113 q 363 132 379 113 q 351 181 347 151 q 378 226 356 208 q 429 244 400 244 m 410 136 q 444 149 429 136 q 461 181 458 163 q 453 213 464 200 q 424 225 443 225 q 391 213 406 225 q 374 181 376 200 q 381 149 371 163 q 410 136 392 136 z "},"a":{"ha":768,"x_min":22,"x_max":810,"o":"m 596 594 q 604 538 603 567 q 603 478 606 508 l 386 478 q 404 538 394 508 q 429 594 414 567 l 543 786 l 596 594 m 486 514 q 476 553 481 536 q 464 588 471 571 l 461 579 q 446 548 453 565 q 432 514 439 531 l 486 514 m 743 949 q 791 933 792 949 q 765 879 790 918 q 754 855 756 872 q 756 818 753 838 q 776 746 764 786 q 793 674 788 706 q 806 574 803 628 q 801 467 810 521 l 760 207 q 753 158 756 176 q 756 138 751 140 l 757 142 q 773 118 771 132 q 769 92 775 104 q 750 70 763 79 q 721 61 738 61 l 664 11 q 640 0 657 0 l 435 0 q 407 20 413 0 q 421 54 401 40 l 433 65 q 443 94 438 76 q 451 133 449 113 l 464 217 l 381 217 l 379 207 q 379 138 371 150 q 392 94 403 118 q 353 61 382 69 l 294 11 q 261 0 283 0 l 54 0 q 27 20 32 0 q 40 54 22 40 l 53 65 q 71 133 64 92 l 111 394 q 140 499 119 447 q 185 597 161 551 q 228 670 204 631 q 268 743 253 710 l 274 746 q 279 811 290 794 q 283 858 271 842 l 347 913 q 396 949 351 949 l 743 949 m 739 901 q 738 913 747 913 l 390 913 q 383 901 381 913 q 376 804 406 879 l 293 658 q 222 467 236 561 l 207 369 l 181 207 q 165 144 174 168 q 140 108 156 119 q 135 101 133 106 q 142 97 136 97 l 349 97 q 357 101 354 97 q 353 108 360 106 q 340 144 344 119 q 343 207 336 168 l 360 315 l 576 315 l 560 207 q 544 144 553 168 q 519 108 535 119 q 515 101 514 106 q 522 97 517 97 l 728 97 q 737 101 735 97 q 733 108 739 106 q 724 207 711 131 l 750 369 l 765 467 q 769 563 772 515 q 756 658 767 610 l 717 804 q 721 866 714 842 q 739 901 728 890 m 656 518 q 666 538 657 529 q 688 546 675 546 q 706 538 699 546 q 711 518 713 529 q 699 499 708 507 q 678 490 689 490 q 659 499 665 490 q 656 518 653 507 m 697 518 q 694 529 699 525 q 685 533 690 533 q 668 518 671 533 q 681 503 665 503 q 697 518 694 503 m 647 629 q 659 649 650 640 q 679 657 668 657 q 698 649 690 657 q 703 629 706 640 q 692 610 701 618 q 671 603 682 603 q 647 629 644 603 m 690 629 q 678 644 693 644 q 660 629 663 644 q 663 619 658 622 q 674 615 667 615 q 690 629 688 615 m 303 432 q 321 424 314 432 q 326 404 328 415 q 314 385 324 393 q 293 376 304 376 q 274 385 282 376 q 269 404 267 393 q 281 424 271 415 q 303 432 292 432 m 296 389 q 314 404 311 389 q 311 415 315 411 q 300 419 307 419 q 283 404 286 419 q 296 389 281 389 m 326 542 q 345 534 338 542 q 350 514 353 526 q 338 495 347 503 q 318 488 329 488 q 299 495 307 488 q 294 514 292 503 q 306 534 297 526 q 326 542 315 542 m 321 500 q 338 514 335 500 q 325 529 340 529 q 307 514 310 529 q 310 504 306 508 q 321 500 314 500 m 472 808 q 453 817 461 808 q 449 836 446 825 q 460 856 450 847 q 481 864 469 864 q 500 856 493 864 q 506 836 507 847 q 494 817 503 825 q 472 808 485 808 m 478 850 q 463 836 465 850 q 474 821 460 821 q 492 836 489 821 q 478 850 494 850 m 263 206 q 283 197 275 206 q 288 178 290 189 q 276 158 285 167 q 254 150 267 150 q 235 158 243 150 q 231 178 228 167 q 242 197 233 189 q 263 206 251 206 m 256 164 q 274 178 271 164 q 261 193 276 193 q 243 178 246 193 q 256 164 240 164 m 624 732 q 635 751 626 743 q 656 760 643 760 q 674 751 667 760 q 679 732 682 743 q 667 713 676 721 q 647 704 658 704 q 628 713 635 704 q 624 732 621 721 m 665 732 q 654 747 668 747 q 636 732 639 747 q 649 718 633 718 q 665 732 663 718 m 672 435 q 691 426 683 435 q 696 407 699 418 q 684 388 693 396 q 664 381 675 381 q 645 388 653 381 q 640 407 638 396 q 652 426 643 418 q 672 435 661 435 m 665 393 q 683 407 681 393 q 671 422 686 422 q 654 407 657 422 q 665 393 651 393 m 417 704 q 397 713 406 704 q 392 732 389 721 q 404 751 394 743 q 425 760 414 760 q 444 751 436 760 q 449 732 451 743 q 437 713 446 721 q 417 704 428 704 m 424 747 q 406 732 408 747 q 418 718 403 718 q 435 732 432 718 q 424 747 438 747 m 285 319 q 303 311 296 319 q 308 292 311 303 q 297 272 306 281 q 276 264 288 264 q 257 272 265 264 q 251 292 249 281 q 264 311 254 303 q 285 319 274 319 m 278 276 q 296 292 293 276 q 283 307 299 307 q 265 292 268 307 q 278 276 263 276 m 624 804 q 605 813 611 804 q 600 832 599 821 q 612 851 603 843 q 633 860 621 860 q 651 851 644 860 q 656 832 658 843 q 644 813 654 821 q 624 804 635 804 m 631 847 q 613 832 615 847 q 615 821 611 825 q 626 817 619 817 q 642 832 639 817 q 631 847 644 847 m 636 210 q 655 201 647 210 q 660 182 663 193 q 649 163 658 171 q 628 154 639 154 q 610 163 617 154 q 604 182 603 171 q 616 201 607 193 q 636 210 625 210 m 631 167 q 647 182 644 167 q 635 197 650 197 q 618 182 621 197 q 631 167 615 167 m 554 432 q 572 424 565 432 q 578 404 579 415 q 565 385 575 393 q 544 376 556 376 q 525 385 532 376 q 521 404 518 393 q 532 424 522 415 q 554 432 542 432 m 547 389 q 558 393 553 389 q 565 404 564 397 q 551 418 565 418 q 533 404 533 418 q 547 389 531 389 m 535 113 q 572 207 564 143 l 592 329 l 346 329 l 326 207 q 322 151 321 174 q 329 113 324 128 l 156 113 q 193 207 185 146 l 235 467 q 259 560 242 514 q 303 656 276 607 l 389 800 q 404 899 407 864 l 711 899 q 700 800 694 864 l 738 656 q 752 560 749 607 q 749 467 756 514 l 707 207 q 704 152 703 176 q 714 113 706 128 l 535 113 m 625 136 q 659 149 644 136 q 676 182 674 163 q 669 214 679 201 q 639 226 658 226 q 605 214 619 226 q 588 182 590 201 q 595 149 585 163 q 625 136 606 136 m 643 253 q 678 266 663 253 q 696 299 693 279 q 688 331 699 318 q 658 343 678 343 q 624 331 639 343 q 607 299 610 318 q 614 266 604 279 q 643 253 624 253 m 661 363 q 695 375 681 363 q 713 407 710 388 q 705 440 715 426 q 675 453 694 453 q 641 440 656 453 q 624 407 626 426 q 631 375 621 388 q 661 363 642 363 m 728 518 q 719 551 731 538 q 690 564 708 564 q 656 551 671 564 q 638 518 640 538 q 645 485 635 499 q 675 472 656 472 q 709 485 693 472 q 728 518 725 499 m 719 629 q 712 662 722 649 q 682 675 701 675 q 647 662 663 675 q 629 629 632 649 q 638 597 626 610 q 668 585 649 585 q 702 597 688 585 q 719 629 717 610 m 696 732 q 688 764 699 751 q 658 776 676 776 q 624 764 639 776 q 606 732 608 751 q 614 700 603 713 q 644 688 625 688 q 678 700 663 688 q 696 732 693 713 m 635 876 q 600 864 615 876 q 582 832 585 851 q 590 799 579 813 q 621 786 601 786 q 654 799 639 786 q 672 832 669 813 q 664 864 675 851 q 635 876 653 876 m 483 881 q 449 868 464 881 q 431 836 433 856 q 439 803 428 817 q 469 790 450 790 q 505 803 489 790 q 524 836 521 817 q 515 868 526 856 q 483 881 503 881 m 428 778 q 392 765 408 778 q 374 732 376 751 q 383 700 371 713 q 414 688 394 688 q 449 700 433 688 q 467 732 464 713 q 458 765 469 751 q 428 778 447 778 m 251 133 q 287 146 271 133 q 306 178 303 158 q 297 210 308 197 q 265 224 285 224 q 231 210 246 224 q 213 178 215 197 q 221 146 210 158 q 251 133 232 133 m 274 247 q 308 260 293 247 q 326 292 324 272 q 318 324 329 311 q 288 338 307 338 q 253 324 268 338 q 235 292 238 311 q 243 260 232 272 q 274 247 254 247 m 292 360 q 326 372 311 360 q 344 404 342 385 q 336 436 347 424 q 306 449 325 449 q 271 436 286 449 q 253 404 256 424 q 261 372 250 385 q 292 360 272 360 m 315 469 q 351 483 335 469 q 369 514 367 496 q 360 547 372 533 q 329 560 349 560 q 294 547 310 560 q 276 514 279 533 q 285 483 274 496 q 315 469 296 469 m 346 578 q 381 590 365 578 q 400 622 397 603 q 392 655 403 642 q 361 668 381 668 q 326 655 342 668 q 307 622 310 642 q 315 590 304 603 q 346 578 326 578 m 415 356 q 450 369 435 356 q 468 400 465 382 q 460 433 471 419 q 429 446 449 446 q 394 433 410 446 q 376 400 379 419 q 385 369 374 382 q 415 356 396 356 m 542 358 q 577 372 561 358 q 596 404 593 385 q 588 436 599 424 q 557 449 576 449 q 522 436 538 449 q 503 404 506 424 q 511 372 500 385 q 542 358 522 358 m 613 464 q 617 538 617 501 q 610 597 617 574 l 549 829 l 414 597 q 387 538 399 574 q 367 464 375 501 l 613 464 m 426 428 q 445 420 438 428 q 450 400 453 413 q 438 381 447 389 q 418 372 429 372 q 399 381 407 372 q 394 400 392 389 q 406 420 397 413 q 426 428 415 428 m 421 386 q 438 400 435 386 q 425 415 440 415 q 407 400 410 415 q 410 390 406 394 q 421 386 414 386 m 358 650 q 378 642 371 650 q 382 622 385 633 q 371 603 381 611 q 349 594 361 594 q 331 603 338 594 q 325 622 324 611 q 338 642 328 633 q 358 650 347 650 m 351 608 q 368 622 368 608 q 356 638 371 638 q 338 622 340 638 q 351 608 338 608 m 656 326 q 674 318 667 326 q 679 299 681 310 q 667 279 676 288 q 646 271 657 271 q 628 279 635 271 q 624 299 621 288 q 635 318 625 310 q 656 326 644 326 m 649 283 q 667 299 664 283 q 664 310 668 306 q 653 314 660 314 q 638 299 640 314 q 649 283 635 283 z "},"b":{"ha":749,"x_min":19,"x_max":804,"o":"m 596 368 q 552 291 589 322 q 471 260 515 260 l 363 260 l 397 476 l 506 476 q 576 444 550 476 q 596 368 603 413 m 404 296 l 476 296 l 488 296 q 472 353 493 328 q 418 379 450 379 l 404 296 m 61 79 q 74 106 68 93 q 83 133 81 119 l 178 729 q 177 785 183 761 q 156 822 171 810 q 153 838 151 829 q 161 851 154 846 l 224 906 q 237 933 222 919 q 283 946 251 946 l 579 946 q 678 925 635 946 q 749 869 721 904 q 790 789 778 835 q 793 693 801 743 q 776 632 788 665 q 749 574 764 599 q 793 475 782 528 q 794 368 804 422 q 771 287 788 326 q 728 212 754 247 q 667 147 701 176 q 594 97 633 118 l 581 88 q 481 24 536 49 q 358 0 425 0 l 88 0 l 19 0 l 61 79 m 274 899 q 286 801 299 876 l 192 206 q 147 104 179 128 q 144 99 144 101 q 150 97 144 97 l 175 97 l 446 97 q 562 121 508 97 q 657 183 615 144 q 725 272 699 222 q 759 374 751 321 q 753 478 767 426 q 699 571 739 529 q 753 685 743 625 q 746 794 764 744 q 683 877 728 844 q 574 910 639 910 l 465 910 l 303 910 l 278 910 q 272 906 272 910 q 274 899 271 901 m 594 693 q 572 654 590 669 q 531 639 553 639 l 422 639 l 440 747 l 549 747 q 584 731 571 747 q 594 693 597 715 m 611 493 q 622 513 613 504 q 642 521 631 521 q 660 513 654 521 q 665 493 667 504 q 654 474 663 482 q 633 465 646 465 q 615 474 622 465 q 611 493 608 482 m 653 493 q 639 508 656 508 q 624 493 626 508 q 635 479 621 479 q 653 493 650 479 m 471 804 q 453 813 460 804 q 447 832 446 821 q 459 851 450 843 q 479 858 468 858 q 498 851 490 858 q 503 832 506 843 q 492 813 501 821 q 471 804 482 804 m 478 846 q 460 832 463 846 q 463 821 458 825 q 474 817 467 817 q 490 832 488 817 q 478 846 493 846 m 419 529 q 401 538 408 529 q 396 557 393 546 q 408 576 399 568 q 428 585 417 585 q 447 576 439 585 q 451 557 454 568 q 440 538 449 546 q 419 529 431 529 m 426 571 q 410 557 413 571 q 421 542 407 542 q 439 557 436 542 q 426 571 442 571 m 379 204 q 397 196 390 204 q 403 176 404 188 q 390 157 400 165 q 369 149 381 149 q 351 157 358 149 q 347 176 344 165 q 358 196 349 188 q 379 204 368 204 m 372 161 q 390 176 388 161 q 388 188 392 183 q 376 192 383 192 q 361 176 364 192 q 372 161 358 161 m 353 693 q 334 701 342 693 q 329 721 326 710 q 340 740 331 732 q 361 749 350 749 q 378 740 372 749 q 383 721 385 732 q 372 701 381 710 q 353 693 364 693 m 358 736 q 342 721 344 736 q 354 706 339 706 q 371 721 368 706 q 368 732 372 728 q 358 736 364 736 m 343 639 q 362 631 354 639 q 367 611 369 622 q 356 592 365 600 q 335 585 346 585 q 317 592 324 585 q 311 611 310 600 q 323 631 314 622 q 343 639 332 639 m 338 597 q 354 611 351 597 q 342 626 357 626 q 325 611 328 626 q 338 597 322 597 m 278 204 q 296 196 289 204 q 301 176 303 188 q 289 157 299 165 q 268 149 279 149 q 250 157 257 149 q 246 176 243 165 q 257 196 247 188 q 278 204 267 204 m 271 161 q 289 176 286 161 q 286 188 290 183 q 275 192 282 192 q 258 176 261 192 q 271 161 256 161 m 575 800 q 556 808 564 800 q 551 828 549 817 q 563 847 554 839 q 583 856 572 856 q 602 847 594 856 q 607 828 610 839 q 595 808 604 817 q 575 800 586 800 m 581 842 q 564 828 567 842 q 576 813 561 813 q 594 828 592 813 q 592 838 596 833 q 581 842 588 842 m 318 474 q 299 482 307 474 q 294 501 292 490 q 306 520 296 513 q 326 528 315 528 q 344 520 338 528 q 349 501 350 513 q 338 482 346 490 q 318 474 329 474 m 324 515 q 307 501 307 515 q 319 486 304 486 q 336 501 333 486 q 324 515 336 515 m 300 363 q 281 371 289 363 q 276 390 274 379 q 288 410 279 401 q 308 418 297 418 q 326 410 319 418 q 331 390 333 401 q 319 371 328 379 q 300 363 311 363 m 307 406 q 289 390 292 406 q 301 375 286 375 q 318 390 315 375 q 307 406 321 406 m 282 254 q 264 263 271 254 q 260 282 257 271 q 271 301 261 293 q 292 310 281 310 q 309 301 303 310 q 314 282 315 293 q 302 263 311 271 q 282 254 293 254 m 289 297 q 272 282 275 297 q 285 268 269 268 q 301 282 299 268 q 299 293 303 289 q 289 297 294 297 m 681 565 q 739 469 725 519 q 744 367 753 419 q 712 272 738 318 q 647 190 686 226 q 558 133 608 154 q 449 111 507 111 l 178 111 q 198 151 193 131 q 208 204 203 172 l 303 800 q 304 855 308 832 q 292 893 300 878 l 572 893 q 651 876 617 893 q 708 831 686 860 q 740 767 731 803 q 743 692 749 731 q 723 631 739 664 q 681 565 707 597 m 683 493 q 675 525 686 513 q 644 538 664 538 q 611 525 626 538 q 593 493 596 513 q 601 461 590 474 q 631 449 613 449 q 665 461 650 449 q 683 493 681 474 m 531 624 q 582 642 558 624 q 610 692 606 661 q 597 740 614 719 q 551 760 579 760 l 429 760 l 408 624 l 531 624 m 636 642 q 602 629 617 642 q 585 597 588 617 q 592 565 582 578 q 622 553 603 553 q 657 565 642 553 q 675 597 672 578 q 667 629 678 617 q 636 642 656 642 m 536 597 q 502 585 517 597 q 485 553 488 572 q 492 521 482 533 q 521 508 501 508 q 555 521 539 508 q 574 553 571 533 q 565 585 576 572 q 536 597 554 597 m 386 490 l 347 244 l 469 244 q 518 254 494 244 q 562 281 542 264 q 595 319 582 297 q 613 367 608 342 q 610 414 617 392 q 590 453 604 436 q 554 480 575 469 q 508 490 533 490 l 386 490 m 724 689 q 716 721 726 708 q 686 733 706 733 q 652 721 667 733 q 635 689 638 708 q 642 657 632 669 q 672 644 653 644 q 706 657 692 644 q 724 689 721 669 m 669 828 q 635 815 650 828 q 617 782 619 801 q 625 750 614 763 q 656 738 636 738 q 690 750 675 738 q 707 782 704 763 q 699 815 710 801 q 669 828 689 828 m 586 872 q 552 859 567 872 q 535 828 538 846 q 542 795 532 808 q 572 782 553 782 q 606 795 592 782 q 624 828 621 808 q 616 859 626 846 q 586 872 606 872 m 482 876 q 447 863 463 876 q 429 832 432 850 q 438 799 426 813 q 468 786 449 786 q 502 799 488 786 q 519 832 517 813 q 512 863 522 850 q 482 876 501 876 m 381 876 q 347 863 361 876 q 329 832 332 850 q 337 799 326 813 q 367 786 347 786 q 401 799 386 786 q 418 832 415 813 q 410 863 421 850 q 381 876 400 876 m 364 767 q 329 753 344 767 q 311 721 314 740 q 319 689 308 701 q 350 676 331 676 q 383 689 368 676 q 401 721 399 701 q 393 753 404 740 q 364 767 382 767 m 383 611 q 376 644 386 631 q 346 657 365 657 q 312 644 326 657 q 294 611 297 631 q 302 579 292 592 q 332 567 313 567 q 366 579 351 567 q 383 611 381 592 m 329 546 q 294 533 310 546 q 276 501 279 519 q 284 469 274 482 q 314 456 294 456 q 348 469 332 456 q 367 501 364 482 q 358 533 369 519 q 329 546 347 546 m 311 436 q 276 423 292 436 q 258 390 261 410 q 267 358 256 371 q 297 346 278 346 q 331 358 315 346 q 349 390 346 371 q 340 423 351 410 q 311 436 329 436 m 294 326 q 260 314 275 326 q 242 282 244 301 q 250 251 239 264 q 281 238 261 238 q 314 251 299 238 q 332 282 329 264 q 324 314 335 301 q 294 326 313 326 m 265 131 q 300 144 285 131 q 318 176 315 157 q 310 208 321 196 q 281 221 300 221 q 247 208 261 221 q 229 176 232 196 q 236 144 226 157 q 265 131 246 131 m 431 601 q 397 589 413 601 q 379 557 382 576 q 388 524 376 538 q 417 511 399 511 q 451 524 436 511 q 469 557 467 538 q 461 589 472 576 q 431 601 450 601 m 367 131 q 401 144 386 131 q 419 176 417 157 q 412 208 422 196 q 382 221 401 221 q 348 208 363 221 q 331 176 333 196 q 338 144 328 157 q 367 131 347 131 m 468 139 q 501 151 486 139 q 519 183 517 164 q 512 216 522 203 q 483 229 501 229 q 448 216 464 229 q 429 183 432 203 q 438 151 426 164 q 468 139 449 139 m 572 165 q 607 178 592 165 q 625 210 622 192 q 617 242 628 229 q 588 256 607 256 q 553 242 568 256 q 535 210 538 229 q 542 178 532 192 q 572 165 553 165 m 644 247 q 678 260 664 247 q 696 293 693 274 q 688 325 699 313 q 658 338 678 338 q 624 325 639 338 q 606 293 608 313 q 614 260 603 274 q 644 247 625 247 m 675 353 q 710 365 694 353 q 728 397 725 378 q 719 429 731 417 q 689 442 708 442 q 656 429 671 442 q 638 397 640 417 q 646 365 635 378 q 675 353 657 353 m 524 525 q 506 533 513 525 q 501 553 499 542 q 513 572 503 564 q 533 581 522 581 q 551 572 544 581 q 557 553 558 564 q 544 533 554 542 q 524 525 535 525 m 531 568 q 519 564 524 568 q 514 553 514 560 q 526 538 511 538 q 543 553 540 538 q 531 568 543 568 m 481 211 q 499 203 492 211 q 503 183 506 194 q 492 164 501 172 q 471 156 482 156 q 453 164 460 156 q 447 183 446 172 q 460 203 450 194 q 481 211 469 211 m 474 168 q 489 183 486 168 q 478 199 492 199 q 460 183 463 199 q 463 172 458 176 q 474 168 467 168 m 686 425 q 705 417 697 425 q 710 397 713 408 q 698 378 707 386 q 678 369 689 369 q 660 378 667 369 q 656 397 653 386 q 667 417 658 408 q 686 425 675 425 m 679 383 q 697 397 694 383 q 685 413 700 413 q 668 397 671 413 q 679 383 665 383 m 624 569 q 606 578 613 569 q 601 597 599 586 q 613 617 603 608 q 633 625 622 625 q 651 617 644 625 q 657 597 658 608 q 644 578 654 586 q 624 569 635 569 m 631 611 q 614 597 617 611 q 626 583 611 583 q 644 597 642 583 q 642 608 646 604 q 631 611 638 611 m 585 238 q 603 229 596 238 q 607 210 610 221 q 596 190 606 199 q 575 182 586 182 q 557 190 564 182 q 551 210 550 199 q 564 229 554 221 q 585 238 574 238 m 578 196 q 590 200 585 196 q 594 210 594 204 q 593 221 597 217 q 582 225 589 225 q 565 210 569 225 q 578 196 565 196 m 651 689 q 663 708 654 700 q 683 717 672 717 q 702 708 694 717 q 707 689 710 700 q 695 669 704 678 q 675 661 686 661 q 656 669 664 661 q 651 689 649 678 m 694 689 q 682 703 697 703 q 664 689 667 703 q 676 675 661 675 q 694 689 692 675 m 656 321 q 674 313 667 321 q 679 293 682 304 q 667 274 676 282 q 647 265 658 265 q 628 274 636 265 q 624 293 621 282 q 635 313 626 304 q 656 321 644 321 m 649 278 q 665 293 663 278 q 654 307 668 307 q 636 293 639 307 q 649 278 633 278 m 658 754 q 640 763 647 754 q 635 782 632 771 q 646 801 636 793 q 667 810 656 810 q 685 801 678 810 q 690 782 692 793 q 678 763 688 771 q 658 754 669 754 m 664 797 q 647 782 650 797 q 660 767 644 767 q 671 771 665 767 q 678 782 676 775 q 674 793 679 789 q 664 797 669 797 m 369 804 q 351 813 358 804 q 346 832 344 821 q 358 851 349 843 q 378 858 367 858 q 397 851 389 858 q 401 832 404 843 q 390 813 400 821 q 369 804 381 804 m 376 846 q 360 832 363 846 q 372 817 357 817 q 389 832 386 817 q 376 846 392 846 z "},"c":{"ha":761,"x_min":63,"x_max":844,"o":"m 529 533 q 508 549 515 533 q 517 588 500 564 q 522 615 526 597 l 510 633 q 492 638 503 636 q 468 640 482 640 l 415 640 l 413 629 l 371 363 q 385 314 367 336 q 431 292 404 292 l 467 292 q 464 306 464 300 q 460 317 464 311 l 533 381 l 526 399 l 803 399 q 735 227 788 304 q 608 107 682 150 l 579 82 q 479 23 532 46 q 367 0 426 0 l 314 0 q 206 23 254 0 q 124 85 157 46 q 77 178 92 125 q 72 292 63 232 l 114 558 q 156 674 125 621 q 232 768 186 728 l 253 786 q 375 892 301 853 q 532 932 449 932 l 586 932 q 701 906 650 932 q 785 833 751 879 q 831 726 818 788 q 833 594 844 665 l 813 594 l 742 533 l 529 533 m 554 736 q 606 725 583 736 l 624 704 q 614 640 642 664 q 615 629 607 629 l 644 629 l 803 629 q 799 734 811 685 q 756 819 786 783 q 681 875 726 854 q 581 896 636 896 l 526 896 q 421 875 472 896 q 328 819 369 854 q 258 734 286 783 q 221 629 229 685 l 179 363 q 183 260 171 308 q 226 175 196 211 q 301 118 256 139 q 400 97 346 97 l 454 97 q 561 118 510 97 q 654 175 613 139 q 724 260 696 211 q 761 363 753 308 l 603 363 l 574 363 q 568 356 565 363 q 558 292 588 328 q 533 271 543 274 q 479 256 507 256 l 425 256 q 386 265 404 256 q 356 288 368 274 q 339 322 344 303 q 336 363 333 342 l 353 469 l 361 524 l 378 629 q 393 672 382 651 q 421 706 404 692 q 458 728 438 719 q 500 736 479 736 l 554 736 m 293 410 q 282 390 290 399 q 263 382 274 382 q 244 390 251 382 q 239 410 236 399 q 251 428 242 421 q 271 436 260 436 q 289 428 282 436 q 293 410 296 421 m 251 410 q 264 394 249 394 q 281 410 278 394 q 269 424 283 424 q 251 410 254 424 m 269 324 q 288 315 281 324 q 293 296 296 307 q 281 276 290 285 q 261 268 272 268 q 243 276 250 268 q 239 296 236 285 q 250 315 242 307 q 269 324 258 324 m 264 282 q 281 296 278 282 q 268 311 283 311 q 251 296 254 311 q 264 282 249 282 m 304 600 q 285 608 293 600 q 281 628 278 617 q 292 647 283 639 q 313 654 301 654 q 331 647 324 654 q 335 628 338 639 q 324 608 332 617 q 304 600 315 600 m 311 642 q 293 628 296 642 q 306 613 290 613 q 322 628 319 613 q 311 642 325 642 m 554 792 q 535 800 543 792 q 531 819 528 808 q 542 838 533 831 q 563 846 551 846 q 581 838 574 846 q 586 819 589 831 q 574 800 583 808 q 554 792 565 792 m 561 833 q 544 819 547 833 q 556 804 542 804 q 574 819 571 804 q 561 833 576 833 m 276 493 q 258 501 265 493 q 253 521 250 510 q 264 540 254 532 q 285 547 274 547 q 303 540 296 547 q 308 521 310 532 q 297 501 306 510 q 276 493 288 493 m 282 535 q 265 521 268 535 q 278 506 263 506 q 294 521 292 506 q 282 535 297 535 m 450 774 q 431 782 439 774 q 426 801 424 790 q 438 821 429 813 q 458 829 447 829 q 476 821 469 829 q 481 801 483 813 q 469 782 478 790 q 450 774 461 774 m 456 815 q 439 801 442 815 q 451 786 436 786 q 468 801 465 786 q 456 815 471 815 m 435 203 q 453 195 446 203 q 458 176 460 188 q 446 157 456 165 q 425 149 436 149 q 407 157 414 149 q 403 176 400 165 q 414 195 404 188 q 435 203 424 203 m 428 161 q 446 176 443 161 q 432 190 446 190 q 417 176 417 190 q 428 161 414 161 m 350 710 q 332 717 339 710 q 326 736 325 725 q 339 756 329 747 q 360 764 349 764 q 378 756 371 764 q 382 736 385 747 q 371 717 381 725 q 350 710 361 710 m 357 751 q 339 736 342 751 q 342 726 338 729 q 353 722 346 722 q 369 736 367 722 q 357 751 372 751 m 331 233 q 349 225 342 233 q 353 206 356 217 q 342 186 350 194 q 322 178 333 178 q 303 186 311 178 q 299 206 296 194 q 310 225 301 217 q 331 233 319 233 m 324 192 q 340 206 338 192 q 329 221 343 221 q 311 206 314 221 q 324 192 308 192 m 639 242 q 621 250 628 242 q 615 269 614 258 q 627 289 618 281 q 647 297 636 297 q 665 289 658 297 q 669 269 672 281 q 659 250 668 258 q 639 242 650 242 m 646 285 q 628 269 631 285 q 631 259 626 263 q 642 256 635 256 q 657 269 654 256 q 646 285 660 285 m 713 681 q 694 689 701 681 q 689 708 688 697 q 701 727 692 719 q 721 735 710 735 q 739 727 732 735 q 743 708 746 719 q 733 689 742 697 q 713 681 724 681 m 719 722 q 701 708 704 722 q 704 697 700 701 q 715 693 708 693 q 731 708 728 693 q 719 722 733 722 m 517 193 q 528 213 518 204 q 549 221 538 221 q 566 213 560 221 q 571 193 572 204 q 540 167 567 167 q 522 174 529 167 q 517 193 514 182 m 558 193 q 546 208 558 208 q 534 204 539 208 q 529 193 529 200 q 542 179 526 179 q 558 193 556 179 m 597 349 l 743 349 q 705 256 732 299 q 638 181 678 213 q 551 130 599 149 q 454 111 504 111 l 400 111 q 306 131 349 111 q 236 185 264 150 q 196 265 208 219 q 192 363 183 310 l 233 629 q 269 728 242 682 q 335 809 296 775 q 422 863 374 843 q 522 882 471 882 l 576 882 q 668 864 626 882 q 739 813 710 846 q 782 737 768 781 q 790 643 796 693 l 633 643 q 632 718 651 672 l 617 736 q 556 750 585 750 l 501 750 q 454 741 478 750 q 411 715 431 732 q 378 676 392 699 q 361 629 365 654 l 319 363 q 342 278 313 314 q 421 242 372 242 l 475 242 q 506 245 493 242 q 538 260 519 249 l 538 256 q 551 266 543 258 q 567 285 560 274 q 586 344 593 319 l 597 349 m 761 708 q 753 739 764 726 q 724 751 742 751 q 690 739 704 751 q 672 708 675 726 q 680 676 669 689 q 710 663 690 663 q 743 676 728 663 q 761 708 758 689 m 665 835 q 631 822 646 835 q 614 790 617 810 q 622 758 611 771 q 651 746 632 746 q 685 758 671 746 q 703 790 700 771 q 695 822 706 810 q 665 835 685 835 m 565 864 q 533 851 547 864 q 515 819 518 838 q 523 788 513 800 q 551 775 533 775 q 585 788 571 775 q 603 819 600 800 q 595 851 606 838 q 565 864 585 864 m 461 844 q 427 832 442 844 q 410 801 413 819 q 417 769 407 782 q 447 757 428 757 q 481 769 465 757 q 499 801 496 782 q 490 832 501 819 q 461 844 479 844 m 363 781 q 328 768 344 781 q 310 736 313 756 q 318 704 307 717 q 347 692 329 692 q 381 704 367 692 q 399 736 396 717 q 392 768 401 756 q 363 781 382 781 m 315 672 q 281 659 296 672 q 264 628 267 646 q 272 595 261 608 q 301 582 282 582 q 335 595 319 582 q 353 628 350 608 q 344 659 356 646 q 315 672 333 672 m 288 565 q 253 552 268 565 q 236 521 239 539 q 244 489 233 501 q 274 476 254 476 q 307 489 292 476 q 325 521 322 501 q 317 552 328 539 q 288 565 306 565 m 222 410 q 230 378 219 390 q 260 365 240 365 q 292 378 278 365 q 310 410 307 390 q 302 440 313 428 q 274 453 292 453 q 240 440 254 453 q 222 410 225 428 m 222 296 q 230 265 219 278 q 258 253 240 253 q 292 265 278 253 q 310 296 307 278 q 302 328 313 315 q 272 340 292 340 q 240 328 254 340 q 222 296 225 315 m 319 163 q 352 175 338 163 q 369 206 367 188 q 362 238 372 225 q 333 250 351 250 q 299 238 314 250 q 282 206 285 225 q 290 175 279 188 q 319 163 300 163 m 424 132 q 458 144 443 132 q 475 176 472 157 q 467 207 478 194 q 438 219 457 219 q 403 207 418 219 q 386 176 389 194 q 394 144 383 157 q 424 132 404 132 m 650 314 q 616 301 631 314 q 599 269 601 289 q 606 239 596 251 q 636 226 617 226 q 669 239 654 226 q 688 269 685 251 q 679 301 690 289 q 650 314 668 314 m 589 193 q 581 225 592 213 q 551 238 569 238 q 517 225 532 238 q 500 193 503 213 q 508 163 497 175 q 538 150 518 150 q 571 163 556 150 q 589 193 586 175 m 654 764 q 635 772 643 764 q 631 790 628 779 q 642 809 632 801 q 663 817 651 817 q 680 809 674 817 q 685 790 686 801 q 674 772 682 779 q 654 764 665 764 m 660 804 q 644 790 647 804 q 656 776 642 776 q 672 790 669 776 q 660 804 675 804 z "},"d":{"ha":761,"x_min":21,"x_max":847,"o":"m 578 86 q 473 23 531 46 q 356 0 415 0 l 58 0 q 44 4 51 0 q 31 15 36 8 q 23 27 25 21 q 28 39 21 33 l 46 54 q 79 133 71 82 l 174 731 q 172 798 179 763 q 151 865 165 833 l 222 926 l 215 949 l 578 949 q 694 925 642 949 q 781 860 746 901 q 832 762 817 818 q 838 640 847 706 l 793 368 q 725 210 779 281 q 596 101 671 139 l 578 86 m 226 97 l 389 97 l 443 97 q 551 119 499 97 q 647 177 604 140 q 719 263 690 214 q 757 368 749 313 l 801 640 q 796 747 810 697 q 751 834 782 797 q 674 892 719 871 q 572 913 628 913 l 300 913 l 275 913 q 270 910 272 913 q 271 904 268 907 q 282 803 294 879 l 188 206 q 144 108 175 131 q 142 101 140 106 q 146 97 143 97 l 226 97 m 593 368 q 549 292 586 325 q 468 260 513 260 l 360 260 l 376 368 l 403 532 l 438 749 l 546 749 q 617 718 590 749 q 638 640 644 688 l 593 368 m 401 296 l 474 296 l 485 296 l 528 568 q 513 628 535 604 q 458 651 490 651 l 401 296 m 286 315 q 306 307 299 315 q 310 288 313 299 q 299 268 308 276 q 278 260 290 260 q 260 268 267 260 q 254 288 253 276 q 266 307 257 299 q 286 315 275 315 m 281 272 q 297 288 294 272 q 285 303 300 303 q 268 288 271 303 q 271 276 267 281 q 281 272 275 272 m 471 204 q 490 197 482 204 q 494 176 497 189 q 483 158 492 165 q 463 150 474 150 q 439 176 435 150 q 471 204 443 204 m 464 163 q 481 176 478 163 q 478 188 482 183 q 468 192 474 192 q 451 176 454 192 q 464 163 449 163 m 576 242 q 595 233 588 242 q 600 214 603 225 q 588 194 597 203 q 568 186 579 186 q 549 194 557 186 q 544 214 542 203 q 556 233 547 225 q 576 242 565 242 m 569 199 q 588 214 585 199 q 585 224 589 221 q 574 228 581 228 q 557 214 560 228 q 569 199 554 199 m 268 201 q 288 193 281 201 q 292 174 294 185 q 281 154 290 163 q 260 146 272 146 q 242 154 249 146 q 236 174 235 163 q 248 193 239 185 q 268 201 257 201 m 263 158 q 279 174 276 158 q 267 188 282 188 q 250 174 253 188 q 253 163 249 167 q 263 158 257 158 m 304 424 q 323 415 317 424 q 328 396 329 407 q 316 376 325 385 q 294 368 307 368 q 276 376 283 368 q 272 396 269 385 q 283 415 274 407 q 304 424 293 424 m 297 382 q 315 396 313 382 q 301 411 318 411 q 286 396 289 411 q 297 382 283 382 m 321 535 q 340 526 333 535 q 344 507 347 518 q 334 488 343 496 q 313 479 325 479 q 294 488 301 479 q 289 507 288 496 q 301 526 292 518 q 321 535 310 535 m 315 492 q 332 507 329 492 q 319 521 335 521 q 303 507 306 521 q 306 496 301 500 q 315 492 310 492 m 340 646 q 359 638 351 646 q 364 618 367 629 q 352 599 361 607 q 332 590 343 590 q 313 599 321 590 q 308 618 306 607 q 320 638 311 629 q 340 646 329 646 m 333 603 q 351 618 349 603 q 339 632 354 632 q 321 618 324 632 q 333 603 318 603 m 347 700 q 329 708 336 700 q 324 728 322 717 q 336 747 326 739 q 357 756 346 756 q 376 747 369 756 q 379 728 382 739 q 369 708 378 717 q 347 700 360 700 m 354 743 q 338 728 340 743 q 350 713 338 713 q 367 728 367 713 q 354 743 369 743 m 365 197 q 384 190 376 197 q 389 171 392 182 q 377 151 386 158 q 357 143 368 143 q 338 151 346 143 q 333 171 331 158 q 345 190 336 182 q 365 197 354 197 m 358 156 q 376 171 374 156 q 364 185 379 185 q 346 171 349 185 q 358 156 343 156 m 718 667 q 699 675 707 667 q 694 694 692 683 q 706 714 696 706 q 726 722 715 722 q 744 714 738 722 q 749 694 750 706 q 738 675 746 683 q 718 667 729 667 m 724 708 q 707 694 710 708 q 719 679 704 679 q 736 694 733 679 q 733 705 738 701 q 724 708 729 708 m 375 865 q 394 858 386 865 q 399 839 401 850 q 387 819 396 828 q 367 811 378 811 q 348 819 356 811 q 343 839 340 828 q 355 858 346 850 q 375 865 364 865 m 368 824 q 386 839 383 824 q 374 853 389 853 q 356 839 358 853 q 368 824 353 824 m 671 756 q 652 764 660 756 q 647 783 644 772 q 659 803 650 794 q 679 811 668 811 q 698 803 690 811 q 703 783 706 794 q 691 764 700 772 q 671 756 682 756 m 678 799 q 660 783 663 799 q 672 769 657 769 q 690 783 688 769 q 678 799 693 799 m 722 613 q 741 604 733 613 q 746 585 749 596 q 734 565 743 574 q 714 557 725 557 q 695 565 703 557 q 690 585 688 574 q 702 604 693 596 q 722 613 711 613 m 715 569 q 732 585 729 569 q 721 600 735 600 q 703 585 706 600 q 715 569 700 569 m 568 897 q 665 878 621 897 q 738 824 708 858 q 780 742 767 789 q 785 640 793 694 l 740 368 q 704 269 732 315 q 636 187 676 222 q 546 131 596 151 q 443 111 496 111 l 160 111 q 185 150 174 126 q 201 206 196 174 l 296 803 q 299 858 301 833 q 293 897 297 882 l 568 897 m 729 739 q 694 726 710 739 q 676 694 679 714 q 684 662 674 675 q 714 649 694 649 q 748 662 732 649 q 767 694 764 675 q 758 726 769 714 q 729 739 747 739 m 703 538 q 669 524 683 538 q 651 492 654 511 q 658 460 649 472 q 688 447 668 447 q 723 460 707 447 q 742 492 739 472 q 733 524 744 511 q 703 538 722 538 m 682 829 q 648 816 663 829 q 631 783 633 803 q 638 751 628 764 q 668 739 649 739 q 703 751 688 739 q 721 783 718 764 q 713 816 724 803 q 682 829 701 829 m 590 868 q 556 856 571 868 q 539 824 542 843 q 547 792 536 804 q 576 779 557 779 q 610 792 596 779 q 628 824 625 804 q 620 856 631 843 q 590 868 610 868 m 489 879 q 454 867 469 879 q 436 835 439 854 q 444 802 433 815 q 474 789 454 789 q 508 802 492 789 q 526 835 524 815 q 518 867 529 854 q 489 879 507 879 m 342 246 l 465 246 q 514 256 490 246 q 556 282 538 265 q 588 321 575 299 q 606 368 601 343 l 650 640 q 626 728 657 692 q 547 764 596 764 l 424 764 l 342 246 m 257 129 q 292 142 276 129 q 310 174 307 154 q 301 206 313 193 q 271 218 290 218 q 238 206 253 218 q 219 174 222 193 q 228 142 217 154 q 257 129 239 129 m 275 242 q 310 255 294 242 q 328 288 325 268 q 319 319 331 307 q 289 332 308 332 q 256 319 271 332 q 238 288 240 307 q 246 255 235 268 q 275 242 257 242 m 293 351 q 328 364 313 351 q 346 396 343 376 q 338 428 349 415 q 307 442 326 442 q 274 428 289 442 q 256 396 258 415 q 264 364 253 376 q 293 351 275 351 m 310 461 q 344 474 329 461 q 363 507 360 488 q 354 539 365 526 q 324 551 343 551 q 290 539 306 551 q 272 507 275 526 q 281 474 269 488 q 310 461 292 461 m 329 574 q 364 586 349 574 q 382 618 379 599 q 374 650 385 638 q 343 663 363 663 q 309 650 324 663 q 292 618 294 638 q 299 586 289 599 q 329 574 310 574 m 307 728 q 315 695 304 708 q 344 682 326 682 q 379 695 364 682 q 397 728 394 708 q 390 760 400 747 q 360 774 379 774 q 326 760 342 774 q 307 728 310 747 m 364 793 q 399 806 383 793 q 417 839 414 819 q 408 871 419 858 q 378 883 397 883 q 344 871 358 883 q 326 839 329 858 q 334 806 324 819 q 364 793 344 793 m 354 125 q 388 138 374 125 q 406 171 403 151 q 398 202 408 189 q 368 215 388 215 q 333 202 349 215 q 315 171 318 189 q 324 138 313 151 q 354 125 335 125 m 460 132 q 493 145 478 132 q 511 176 508 158 q 503 209 514 196 q 474 222 492 222 q 439 209 454 222 q 421 176 424 196 q 429 145 418 158 q 460 132 440 132 m 565 169 q 600 182 585 169 q 618 214 615 194 q 610 246 621 233 q 579 258 599 258 q 545 246 560 258 q 528 214 531 233 q 535 182 525 194 q 565 169 546 169 m 642 246 q 676 259 661 246 q 694 292 692 272 q 686 324 697 311 q 656 336 675 336 q 622 324 636 336 q 604 292 607 311 q 612 259 601 272 q 642 246 622 246 m 676 347 q 710 360 696 347 q 728 392 725 372 q 720 424 731 411 q 690 436 710 436 q 656 424 671 436 q 638 392 640 411 q 646 360 635 372 q 676 347 657 347 m 711 539 q 745 552 731 539 q 763 585 760 565 q 755 617 765 604 q 725 629 744 629 q 690 617 706 629 q 672 585 675 604 q 681 552 669 565 q 711 539 692 539 m 690 464 q 672 472 679 464 q 668 492 665 481 q 679 511 669 503 q 700 519 689 519 q 718 511 711 519 q 724 492 725 503 q 711 472 721 481 q 690 464 701 464 m 697 507 q 682 492 685 507 q 693 476 679 476 q 711 492 708 476 q 708 503 713 499 q 697 507 704 507 m 688 419 q 706 411 699 419 q 711 392 714 403 q 699 372 708 381 q 679 364 690 364 q 660 372 668 364 q 656 392 653 381 q 667 411 658 403 q 688 419 676 419 m 682 378 q 699 392 696 378 q 686 407 701 407 q 668 392 671 407 q 671 381 667 385 q 682 378 675 378 m 653 319 q 672 311 664 319 q 676 292 679 303 q 665 272 674 281 q 644 264 656 264 q 626 272 633 264 q 621 292 618 281 q 633 311 624 303 q 653 319 642 319 m 646 276 q 664 292 661 276 q 661 302 665 299 q 650 306 657 306 q 633 292 636 306 q 646 276 631 276 m 478 807 q 459 815 467 807 q 454 835 451 824 q 465 854 456 846 q 486 863 475 863 q 504 854 497 863 q 510 835 511 846 q 498 815 507 824 q 478 807 489 807 m 483 850 q 467 835 469 850 q 479 819 464 819 q 496 835 493 819 q 493 846 497 842 q 483 850 489 850 m 579 796 q 561 804 568 796 q 556 824 554 813 q 568 843 558 835 q 589 851 578 851 q 607 843 600 851 q 611 824 614 835 q 600 804 610 813 q 579 796 590 796 m 586 839 q 569 824 572 839 q 582 810 567 810 q 599 824 596 810 q 586 839 601 839 z "},"g":{"ha":774,"x_min":63,"x_max":849,"o":"m 317 0 q 208 23 257 0 q 125 85 158 46 q 77 178 92 125 q 72 290 63 231 l 114 557 q 154 671 124 619 q 231 763 185 722 l 247 778 q 373 889 296 847 q 536 931 450 931 l 589 931 q 704 904 653 931 q 789 832 756 878 q 835 725 822 786 q 838 593 849 664 l 815 593 l 775 557 l 832 557 l 801 361 q 734 206 788 276 q 606 99 681 136 l 589 85 q 488 22 543 44 q 371 0 433 0 l 317 0 m 179 361 q 184 258 171 307 q 228 173 197 210 q 303 115 258 136 q 403 94 349 94 l 456 94 q 563 115 511 94 q 657 173 615 136 q 728 258 699 210 q 765 361 757 307 l 790 522 l 763 522 l 442 522 l 417 522 q 413 514 410 522 q 425 415 438 488 l 417 361 l 524 361 l 567 361 l 606 361 q 581 308 600 332 q 538 269 563 283 q 510 258 522 261 q 482 256 497 256 l 429 256 q 359 287 386 256 q 339 361 332 318 l 356 468 l 364 522 l 381 629 q 397 671 385 651 q 425 704 408 690 q 463 726 442 718 q 504 735 483 735 l 557 735 q 610 724 588 735 l 628 703 q 617 639 642 667 q 619 629 611 629 l 647 629 l 807 629 q 802 733 815 685 q 759 817 789 782 q 683 874 729 853 q 582 894 638 894 l 529 894 q 423 874 475 894 q 329 817 371 853 q 258 733 288 782 q 221 629 229 685 l 179 361 m 519 582 q 526 598 524 588 q 525 614 528 608 l 514 632 q 495 637 506 635 q 471 639 485 639 l 417 639 l 415 629 l 404 557 l 508 557 q 514 578 511 571 l 519 582 m 271 326 q 288 319 282 326 q 293 300 294 311 q 282 281 290 289 q 263 272 274 272 q 244 281 251 272 q 239 300 236 289 q 250 319 240 311 q 271 326 260 326 m 264 285 q 281 300 278 285 q 278 310 282 306 q 268 314 274 314 q 251 300 254 314 q 264 285 249 285 m 626 261 q 645 253 638 261 q 650 233 653 244 q 639 215 649 222 q 618 207 629 207 q 600 215 607 207 q 594 233 593 222 q 606 253 597 244 q 626 261 615 261 m 621 219 q 636 233 633 219 q 625 249 639 249 q 607 233 610 249 q 610 223 606 226 q 621 219 614 219 m 440 415 q 436 508 449 475 l 774 508 l 751 363 q 717 264 743 310 q 651 184 690 218 q 562 130 611 150 q 460 110 513 110 l 406 110 q 310 130 353 110 q 239 184 268 150 q 197 264 210 218 q 193 363 185 310 l 235 629 q 270 728 243 682 q 338 808 297 774 q 426 861 378 842 q 528 881 475 881 l 582 881 q 674 863 632 881 q 744 813 715 844 q 788 737 774 781 q 796 643 801 693 l 636 643 q 645 679 647 658 q 631 721 643 700 l 622 735 q 591 746 606 743 q 561 749 576 749 l 507 749 q 460 740 483 749 q 417 714 436 731 q 384 676 397 697 q 367 629 371 654 l 325 363 q 348 278 318 314 q 426 242 378 242 l 481 242 q 512 245 499 242 q 543 260 525 249 q 593 305 571 274 q 622 376 615 336 l 433 376 l 440 415 m 756 707 q 748 739 758 726 q 718 751 738 751 q 685 739 700 751 q 667 707 669 726 q 675 675 664 688 q 704 663 686 663 q 738 675 724 663 q 756 707 753 688 m 667 831 q 633 818 647 831 q 615 786 618 806 q 623 754 613 767 q 653 742 633 742 q 685 754 671 742 q 703 786 700 767 q 695 818 706 806 q 667 831 685 831 m 564 856 q 529 843 544 856 q 511 813 514 831 q 519 781 508 793 q 550 768 531 768 q 583 781 568 768 q 600 813 597 793 q 592 843 603 831 q 564 856 582 856 m 458 838 q 425 825 440 838 q 407 793 410 813 q 415 762 404 775 q 444 749 426 749 q 478 762 464 749 q 496 793 493 775 q 488 825 499 813 q 458 838 478 838 m 364 774 q 330 760 344 774 q 313 729 315 747 q 320 697 310 710 q 350 685 331 685 q 383 697 368 685 q 401 729 399 710 q 393 760 404 747 q 364 774 382 774 m 314 671 q 280 658 294 671 q 263 626 265 646 q 270 595 260 608 q 300 582 281 582 q 333 595 318 582 q 350 626 347 608 q 342 658 353 646 q 314 671 332 671 m 292 561 q 258 548 274 561 q 240 517 243 535 q 249 485 238 497 q 278 472 260 472 q 312 485 297 472 q 329 517 326 497 q 322 548 332 535 q 292 561 311 561 m 224 408 q 232 377 221 390 q 261 364 243 364 q 295 377 281 364 q 313 408 310 390 q 305 440 315 428 q 275 453 294 453 q 242 440 257 453 q 224 408 226 428 m 221 300 q 229 268 218 281 q 260 256 240 256 q 293 268 278 256 q 311 300 308 281 q 303 331 314 318 q 274 343 292 343 q 239 331 254 343 q 221 300 224 318 m 314 165 q 348 178 333 165 q 365 210 363 190 q 358 240 368 228 q 328 253 347 253 q 294 240 308 253 q 276 210 279 228 q 284 178 274 190 q 314 165 294 165 m 411 128 q 444 140 429 128 q 461 172 458 153 q 453 203 464 190 q 425 215 443 215 q 391 203 406 215 q 374 172 376 190 q 381 140 371 153 q 411 128 392 128 m 519 135 q 553 147 539 135 q 571 179 568 160 q 563 210 574 197 q 533 224 553 224 q 499 210 514 224 q 482 179 485 197 q 490 147 479 160 q 519 135 500 135 m 615 189 q 649 202 633 189 q 667 233 664 215 q 658 265 669 253 q 629 278 647 278 q 595 265 610 278 q 578 233 581 253 q 585 202 575 215 q 615 189 596 189 m 704 486 q 670 474 685 486 q 653 442 656 461 q 660 410 650 424 q 690 397 671 397 q 724 410 710 397 q 742 442 739 424 q 734 474 744 461 q 704 486 724 486 m 686 379 q 653 367 668 379 q 635 335 638 354 q 643 303 632 317 q 672 290 654 290 q 706 303 692 290 q 724 335 721 317 q 716 367 726 354 q 686 379 706 379 m 604 486 q 572 474 586 486 q 554 442 557 461 q 562 410 551 424 q 590 397 572 397 q 624 410 610 397 q 642 442 639 424 q 634 474 644 461 q 604 486 624 486 m 508 486 q 474 474 489 486 q 457 442 460 461 q 465 410 454 424 q 494 397 475 397 q 528 410 513 397 q 546 442 543 424 q 538 474 549 461 q 508 486 526 486 m 447 767 q 428 774 436 767 q 424 793 421 782 q 435 813 426 804 q 456 821 444 821 q 474 813 467 821 q 479 793 482 804 q 467 774 476 782 q 447 767 458 767 m 454 808 q 438 793 440 808 q 449 779 435 779 q 467 793 464 779 q 454 808 469 808 m 553 785 q 534 793 542 785 q 529 813 526 801 q 541 831 532 824 q 561 839 550 839 q 579 831 572 839 q 583 813 586 824 q 572 793 581 801 q 553 785 564 785 m 560 826 q 542 813 544 826 q 554 797 539 797 q 571 813 568 797 q 560 826 574 826 m 325 236 q 344 228 336 236 q 349 210 351 221 q 338 190 347 199 q 317 182 328 182 q 299 190 306 182 q 294 210 293 199 q 306 228 297 221 q 325 236 314 236 m 319 194 q 335 210 332 194 q 324 224 338 224 q 307 210 310 224 q 319 194 304 194 m 422 199 q 440 191 433 199 q 444 172 447 183 q 433 153 442 161 q 414 144 425 144 q 395 153 403 144 q 390 172 388 161 q 402 191 393 183 q 422 199 411 199 m 415 157 q 432 172 429 157 q 421 186 435 186 q 403 172 406 186 q 415 157 400 157 m 693 415 q 675 423 682 415 q 671 442 668 431 q 682 461 674 453 q 701 469 690 469 q 719 461 713 469 q 724 442 726 453 q 713 423 721 431 q 693 415 704 415 m 700 457 q 683 442 686 457 q 694 428 681 428 q 711 442 708 428 q 700 457 714 457 m 531 206 q 549 198 542 206 q 553 179 556 190 q 542 160 550 168 q 522 151 533 151 q 503 160 511 151 q 499 179 496 168 q 510 198 501 190 q 531 206 519 206 m 524 164 q 540 179 538 164 q 529 193 543 193 q 511 179 514 193 q 524 164 508 164 m 351 701 q 333 710 340 701 q 329 729 326 718 q 340 748 331 740 q 361 756 350 756 q 383 729 386 756 q 372 710 381 718 q 351 701 363 701 m 358 743 q 347 739 351 743 q 342 729 342 735 q 354 714 339 714 q 371 729 368 714 q 358 743 371 743 m 303 600 q 284 608 292 600 q 279 626 276 615 q 291 646 282 638 q 311 654 300 654 q 330 646 322 654 q 335 626 338 638 q 323 608 332 615 q 303 600 314 600 m 310 642 q 292 626 294 642 q 304 613 289 613 q 321 626 318 613 q 310 642 324 642 m 593 415 q 575 423 582 415 q 571 442 568 431 q 582 461 574 453 q 601 469 590 469 q 620 461 613 469 q 625 442 628 453 q 613 423 622 431 q 593 415 604 415 m 600 457 q 583 442 586 457 q 594 428 581 428 q 613 442 610 428 q 600 457 615 457 m 707 681 q 690 688 696 681 q 685 707 683 696 q 696 726 688 718 q 715 735 704 735 q 734 726 726 735 q 739 707 742 718 q 728 688 738 696 q 707 681 718 681 m 714 721 q 697 707 700 721 q 710 693 694 693 q 726 707 724 693 q 714 721 729 721 m 497 415 q 478 423 486 415 q 474 442 471 431 q 485 461 476 453 q 506 469 494 469 q 524 461 517 469 q 529 442 532 453 q 517 423 526 431 q 497 415 508 415 m 504 457 q 486 442 489 457 q 499 428 483 428 q 515 442 513 428 q 504 457 518 457 m 281 489 q 263 497 269 489 q 258 517 257 506 q 289 543 263 543 q 308 535 300 543 q 313 517 315 528 q 301 497 311 506 q 281 489 292 489 m 288 531 q 271 517 274 531 q 274 506 269 510 q 283 501 278 501 q 300 517 297 501 q 288 531 303 531 m 675 308 q 653 335 649 308 q 663 354 654 346 q 683 363 672 363 q 701 354 694 363 q 707 335 708 346 q 695 316 704 324 q 675 308 686 308 m 681 350 q 665 335 668 350 q 676 321 663 321 q 694 335 692 321 q 692 346 696 342 q 681 350 688 350 m 296 408 q 284 390 293 397 q 264 382 275 382 q 246 390 253 382 q 242 408 239 397 q 253 428 244 419 q 272 436 261 436 q 291 428 283 436 q 296 408 299 419 m 254 408 q 265 394 251 394 q 283 408 281 394 q 271 424 286 424 q 254 408 257 424 m 656 760 q 638 767 644 760 q 632 786 631 775 q 644 806 635 797 q 664 814 653 814 q 682 806 675 814 q 686 786 689 797 q 676 767 685 775 q 656 760 667 760 m 663 800 q 644 786 647 800 q 647 776 643 779 q 658 772 651 772 q 674 786 671 772 q 663 800 676 800 z "},"h":{"ha":778,"x_min":15,"x_max":918,"o":"m 306 0 l 15 0 l 28 11 q 47 57 40 38 q 58 90 54 76 q 63 115 61 104 q 69 135 65 125 l 164 732 q 147 826 174 800 q 144 841 143 832 q 151 856 144 850 l 214 910 q 228 936 213 924 q 275 949 243 949 l 485 949 q 529 928 521 949 q 518 892 538 908 q 490 856 503 878 q 472 804 478 835 l 444 624 l 528 624 l 544 732 q 528 826 554 800 q 524 841 522 832 q 532 856 525 850 l 594 910 q 608 936 593 924 q 656 949 622 949 l 865 949 q 910 928 901 949 q 899 892 918 908 q 871 856 883 878 q 853 804 858 835 l 758 207 q 758 140 754 176 q 781 63 761 103 l 757 63 l 686 4 l 429 0 q 395 16 393 0 q 418 51 397 32 q 438 83 432 63 q 450 135 444 103 l 481 326 l 397 326 l 378 207 q 383 140 374 176 q 410 63 392 103 l 378 63 l 306 0 m 138 106 q 140 99 131 99 l 350 99 q 356 106 358 99 q 340 144 344 119 q 342 207 335 169 l 368 371 l 376 424 l 593 424 l 585 371 l 558 207 q 542 144 551 169 q 518 106 533 119 q 521 99 508 99 l 731 99 q 735 106 739 99 q 719 144 724 119 q 721 207 714 169 l 815 804 q 834 867 822 843 q 860 903 846 892 q 865 910 864 906 q 860 914 865 914 l 650 914 q 642 910 643 914 q 643 903 640 906 q 653 804 665 882 l 636 696 l 618 588 l 401 588 l 419 696 l 436 804 q 481 903 449 878 q 484 910 483 906 q 479 914 485 914 l 269 914 q 263 910 264 914 q 263 903 261 906 q 278 867 276 892 q 274 804 281 843 l 188 261 l 179 207 q 163 144 172 169 q 138 106 154 119 m 350 750 q 369 742 361 750 q 374 722 376 733 q 362 703 371 711 q 342 694 353 694 q 323 703 331 694 q 318 722 315 711 q 330 742 321 733 q 350 750 339 750 m 343 707 q 360 722 357 707 q 347 736 363 736 q 331 722 333 736 q 343 707 328 707 m 368 860 q 386 851 379 860 q 390 832 393 843 q 379 813 389 821 q 358 804 369 804 q 341 813 347 804 q 336 832 335 821 q 348 851 339 843 q 368 860 357 860 m 361 818 q 373 822 368 818 q 378 832 378 826 q 365 847 381 847 q 349 832 351 847 q 361 818 349 818 m 446 539 q 464 531 457 539 q 468 511 471 522 q 457 492 465 500 q 438 483 449 483 q 419 492 426 483 q 414 511 411 500 q 426 531 417 522 q 446 539 435 539 m 439 496 q 456 511 453 496 q 444 526 458 526 q 426 511 429 526 q 439 496 424 496 m 571 535 q 590 526 582 535 q 594 507 597 518 q 583 488 593 496 q 563 479 574 479 q 544 488 551 479 q 539 507 538 496 q 551 526 542 518 q 571 535 560 535 m 565 493 q 577 497 572 493 q 582 507 582 501 q 569 522 585 522 q 551 507 554 522 q 565 493 551 493 m 643 214 q 661 206 654 214 q 667 186 668 197 q 655 167 664 175 q 635 158 646 158 q 617 167 624 158 q 613 186 610 175 q 623 206 614 197 q 643 214 632 214 m 636 172 q 654 186 651 172 q 651 197 656 193 q 640 201 647 201 q 625 186 628 201 q 636 172 622 172 m 683 485 q 665 493 672 485 q 660 513 657 501 q 672 532 663 524 q 692 540 681 540 q 710 532 703 540 q 715 513 718 524 q 703 493 713 501 q 683 485 694 485 m 690 526 q 672 513 675 526 q 685 497 669 497 q 703 513 700 497 q 690 526 706 526 m 331 640 q 349 632 342 640 q 353 613 356 624 q 342 593 351 601 q 321 585 332 585 q 303 593 310 585 q 297 613 296 601 q 310 632 300 624 q 331 640 319 640 m 324 597 q 340 613 338 597 q 328 626 343 626 q 310 613 313 626 q 313 601 308 606 q 324 597 317 597 m 260 206 q 278 198 271 206 q 283 179 286 190 q 272 159 281 167 q 251 151 263 151 q 233 159 240 151 q 228 179 225 167 q 240 198 231 190 q 260 206 249 206 m 253 164 q 271 179 268 164 q 258 193 274 193 q 242 179 244 193 q 253 164 239 164 m 278 317 q 296 308 289 317 q 300 289 303 300 q 289 269 299 278 q 268 261 279 261 q 250 269 257 261 q 244 289 243 278 q 257 308 247 300 q 278 317 267 317 m 271 274 q 288 289 285 274 q 275 304 290 304 q 258 289 261 304 q 271 274 256 274 m 660 324 q 678 315 671 324 q 683 296 686 307 q 672 276 681 285 q 651 268 663 268 q 633 276 640 268 q 629 296 626 285 q 640 315 632 307 q 660 324 649 324 m 653 281 q 671 296 668 281 q 658 311 674 311 q 642 296 644 311 q 653 281 639 281 m 313 536 q 331 528 324 536 q 335 508 338 519 q 324 489 333 497 q 303 481 314 481 q 285 489 292 481 q 279 508 278 497 q 292 528 282 519 q 313 536 301 536 m 306 493 q 317 497 313 493 q 322 508 322 501 q 310 522 325 522 q 293 508 296 522 q 306 493 293 493 m 294 425 q 313 417 306 425 q 318 397 321 408 q 306 378 315 386 q 286 369 297 369 q 267 378 275 369 q 263 397 260 386 q 274 417 265 408 q 294 425 283 425 m 288 383 q 306 397 303 383 q 293 413 308 413 q 276 397 279 413 q 288 383 274 383 m 719 701 q 702 710 708 701 q 699 729 696 718 q 709 749 700 740 q 729 757 718 757 q 747 749 740 757 q 753 729 754 740 q 740 710 750 718 q 719 701 731 701 m 726 744 q 711 729 714 744 q 722 714 708 714 q 740 729 738 714 q 738 740 742 736 q 726 744 733 744 m 678 433 q 696 425 689 433 q 701 406 703 417 q 690 386 699 394 q 669 378 681 378 q 651 386 658 378 q 647 406 644 394 q 658 425 649 417 q 678 433 667 433 m 671 390 q 689 406 686 390 q 686 415 690 411 q 675 419 682 419 q 660 406 663 419 q 671 390 657 390 m 713 644 q 731 636 724 644 q 736 617 739 628 q 724 597 733 606 q 704 589 715 589 q 685 597 693 589 q 681 617 678 606 q 692 636 683 628 q 713 644 701 644 m 706 601 q 724 617 721 601 q 722 627 725 622 q 711 632 718 632 q 700 627 704 632 q 694 617 696 622 q 706 601 692 601 m 747 864 q 766 856 758 864 q 771 836 774 847 q 759 817 768 825 q 739 808 750 808 q 720 817 728 808 q 715 836 713 825 q 727 856 718 847 q 747 864 736 864 m 740 822 q 758 836 756 822 q 746 851 761 851 q 729 836 732 851 q 740 822 726 822 m 708 207 q 706 158 704 179 q 710 119 707 136 l 546 113 q 575 207 567 146 l 613 439 l 367 439 l 329 207 q 326 158 325 179 q 329 119 326 136 q 246 116 283 119 q 165 113 208 113 q 182 153 174 129 q 194 207 190 176 l 289 804 q 293 859 294 836 q 286 899 292 882 l 460 899 q 424 804 433 867 l 388 572 l 633 572 l 669 804 q 663 899 679 865 l 840 899 q 817 859 826 882 q 803 804 808 836 l 708 207 m 249 133 q 283 147 268 133 q 301 179 299 160 q 293 210 304 197 q 263 224 282 224 q 228 210 243 224 q 211 179 214 197 q 219 147 208 160 q 249 133 229 133 m 265 243 q 300 256 285 243 q 318 289 315 269 q 310 321 321 308 q 281 333 300 333 q 246 321 261 333 q 228 289 231 308 q 235 256 225 269 q 265 243 246 243 m 283 353 q 318 365 303 353 q 336 397 333 378 q 328 430 339 417 q 297 443 317 443 q 263 430 278 443 q 246 397 249 417 q 253 365 243 378 q 283 353 264 353 m 300 463 q 335 476 319 463 q 353 508 350 489 q 345 540 356 528 q 315 553 335 553 q 281 540 296 553 q 263 508 265 528 q 270 476 260 489 q 300 463 281 463 m 318 567 q 352 580 338 567 q 369 613 367 593 q 362 644 372 632 q 332 657 351 657 q 297 644 313 657 q 279 613 282 632 q 288 580 276 593 q 318 567 299 567 m 339 676 q 373 690 358 676 q 390 722 388 703 q 383 754 393 742 q 353 767 372 767 q 318 754 333 767 q 300 722 303 742 q 308 690 297 703 q 339 676 319 676 m 356 788 q 390 800 375 788 q 408 832 406 813 q 401 865 411 851 q 371 878 390 878 q 336 865 351 878 q 318 832 321 851 q 326 800 315 813 q 356 788 336 788 m 435 465 q 469 478 454 465 q 486 511 483 492 q 478 543 489 531 q 449 556 468 556 q 414 543 429 556 q 396 511 399 531 q 404 478 393 492 q 435 465 415 465 m 560 463 q 594 475 579 463 q 611 507 608 488 q 604 540 614 526 q 575 553 594 553 q 540 540 556 553 q 521 507 524 526 q 529 475 518 488 q 560 463 540 463 m 694 557 q 660 544 675 557 q 642 513 644 532 q 650 480 639 493 q 681 467 661 467 q 715 480 700 467 q 732 513 729 493 q 724 544 735 532 q 694 557 714 557 m 632 142 q 667 154 651 142 q 685 186 682 167 q 676 218 688 206 q 646 231 665 231 q 612 218 626 231 q 594 186 597 206 q 602 154 592 167 q 632 142 613 142 m 649 251 q 683 264 668 251 q 701 296 699 276 q 693 328 704 315 q 663 342 682 342 q 628 328 643 342 q 611 296 614 315 q 619 264 608 276 q 649 251 629 251 m 667 360 q 701 373 686 360 q 719 406 717 386 q 711 438 722 425 q 681 450 700 450 q 647 438 661 450 q 629 406 632 425 q 637 373 626 386 q 667 360 647 360 m 701 571 q 736 584 721 571 q 754 617 751 597 q 746 649 757 636 q 715 661 735 661 q 681 649 696 661 q 664 617 667 636 q 672 584 661 597 q 701 571 682 571 m 681 729 q 688 697 678 710 q 718 685 699 685 q 753 697 738 685 q 771 729 768 710 q 763 762 774 749 q 732 775 751 775 q 698 762 713 775 q 681 729 683 749 m 736 792 q 771 804 756 792 q 789 836 786 817 q 781 868 792 856 q 750 881 769 881 q 716 868 731 881 q 699 836 701 856 q 706 804 696 817 q 736 792 717 792 z "},"i":{"ha":419,"x_min":7,"x_max":560,"o":"m 7 0 q 43 38 29 18 q 64 74 57 57 q 74 107 71 92 q 81 133 78 122 l 174 728 q 174 797 181 765 q 153 861 168 829 l 228 926 l 219 944 l 469 944 l 560 944 q 528 908 540 928 q 507 870 515 889 q 494 833 499 851 q 485 800 489 815 l 389 206 q 387 134 383 171 q 408 61 390 97 l 390 61 l 321 0 l 7 0 m 274 901 q 285 800 297 882 l 190 206 q 173 142 183 168 q 147 104 163 115 q 145 99 144 101 q 151 97 146 97 l 361 97 q 366 99 364 97 q 365 104 368 101 q 353 206 340 128 l 361 261 l 396 478 l 422 647 l 439 749 l 447 800 q 492 901 460 881 q 493 906 494 904 q 489 908 492 908 l 464 908 l 408 908 l 279 908 q 274 901 269 908 m 343 649 q 362 640 354 649 q 367 621 369 632 q 356 601 365 610 q 335 593 346 593 q 317 601 324 593 q 311 621 310 610 q 323 640 314 632 q 343 649 332 649 m 338 606 q 354 621 351 606 q 342 635 357 635 q 324 621 326 635 q 326 610 322 614 q 338 606 331 606 m 351 703 q 333 711 340 703 q 328 731 325 719 q 340 750 331 742 q 360 758 349 758 q 379 750 372 758 q 383 731 386 742 q 372 711 381 719 q 351 703 364 703 m 358 746 q 342 731 344 746 q 353 715 339 715 q 371 731 368 715 q 358 746 374 746 m 315 482 q 297 490 304 482 q 293 510 290 499 q 304 529 294 521 q 325 538 314 538 q 344 529 338 538 q 349 510 350 521 q 337 490 346 499 q 315 482 328 482 m 322 524 q 312 519 317 524 q 307 510 307 515 q 318 494 304 494 q 336 510 333 494 q 322 524 336 524 m 299 371 q 280 379 288 371 q 275 399 272 388 q 287 418 278 410 q 307 426 296 426 q 326 418 319 426 q 331 399 333 410 q 319 379 328 388 q 299 371 311 371 m 306 414 q 289 399 292 414 q 300 383 286 383 q 318 399 315 383 q 306 414 321 414 m 369 813 q 351 821 358 813 q 346 840 344 829 q 358 860 349 851 q 378 868 367 868 q 397 860 389 868 q 401 840 404 851 q 390 821 400 829 q 369 813 381 813 m 376 856 q 358 840 361 856 q 361 830 357 833 q 372 826 365 826 q 389 840 386 826 q 376 856 392 856 m 176 113 q 193 153 185 129 q 206 207 201 176 l 300 800 q 306 854 304 831 q 300 894 307 878 l 408 894 l 463 894 q 444 854 449 875 q 433 800 439 833 l 339 207 q 336 153 335 176 q 343 113 338 129 l 176 113 m 382 886 q 347 873 363 886 q 329 840 332 860 q 337 808 326 821 q 367 796 347 796 q 401 808 386 796 q 419 840 417 821 q 412 873 422 860 q 382 886 401 886 m 363 775 q 329 763 344 775 q 311 731 314 750 q 319 698 308 711 q 349 685 331 685 q 383 698 368 685 q 401 731 399 711 q 393 763 404 750 q 363 775 382 775 m 385 621 q 376 652 388 639 q 346 665 365 665 q 312 652 326 665 q 294 621 297 639 q 302 588 292 601 q 332 575 313 575 q 367 588 351 575 q 385 621 382 601 m 328 554 q 294 541 310 554 q 276 510 279 528 q 284 477 274 490 q 313 464 294 464 q 348 477 332 464 q 367 510 364 490 q 358 541 369 528 q 328 554 347 554 m 310 443 q 276 431 292 443 q 258 399 261 418 q 267 367 256 379 q 296 354 278 354 q 331 367 315 354 q 349 399 346 379 q 340 431 351 418 q 310 443 329 443 m 293 335 q 260 322 275 335 q 242 290 244 310 q 249 258 239 271 q 278 244 260 244 q 313 258 297 244 q 332 290 329 271 q 324 322 335 310 q 293 335 313 335 m 275 221 q 242 208 257 221 q 224 176 226 194 q 231 144 221 157 q 260 131 242 131 q 295 144 279 131 q 314 176 311 157 q 306 208 317 194 q 275 221 294 221 m 281 263 q 263 271 269 263 q 258 290 256 279 q 269 309 260 301 q 290 317 279 317 q 309 309 303 317 q 314 290 315 301 q 302 271 311 279 q 281 263 293 263 m 288 304 q 277 300 282 304 q 272 290 272 296 q 283 275 269 275 q 301 290 299 275 q 288 304 301 304 m 263 149 q 244 157 251 149 q 240 176 238 165 q 251 196 242 188 q 272 204 261 204 q 291 196 285 204 q 296 176 297 188 q 284 157 293 165 q 263 149 275 149 m 269 190 q 254 176 257 190 q 265 161 251 161 q 283 176 281 161 q 269 190 286 190 z "},"j":{"ha":764,"x_min":79,"x_max":903,"o":"m 299 931 l 903 924 q 863 851 878 888 q 843 789 847 815 l 776 363 q 708 206 763 276 q 574 96 653 136 l 565 85 q 465 22 519 44 q 347 0 410 0 q 238 23 288 0 q 156 85 189 46 q 107 178 122 125 q 101 292 92 232 q 79 422 113 361 l 153 488 l 144 504 l 422 504 l 433 440 q 404 363 413 422 q 418 313 400 335 q 464 292 436 292 l 475 292 l 529 639 l 288 639 q 241 636 260 639 q 207 625 222 633 l 190 607 q 165 605 178 596 q 157 643 151 614 l 168 718 q 150 849 181 785 l 221 913 l 213 931 l 299 931 m 281 686 q 275 683 278 683 q 272 679 272 682 l 281 686 m 579 99 l 582 103 q 579 99 582 99 m 853 889 q 854 893 856 892 q 850 894 853 894 l 292 894 l 269 894 q 267 889 261 894 q 275 789 288 864 l 267 736 l 264 714 q 267 708 263 708 q 275 711 271 708 q 374 736 297 736 l 640 736 l 624 629 l 599 469 l 582 363 q 540 288 575 319 q 458 256 504 256 q 388 288 415 256 q 368 363 361 319 q 411 463 379 438 q 414 467 415 465 q 410 469 413 469 l 385 469 l 225 469 l 203 469 q 199 463 194 469 q 212 425 210 451 q 208 363 214 399 q 213 260 200 308 q 257 174 226 211 q 333 117 288 138 q 432 96 378 96 q 540 117 488 96 q 633 174 592 138 q 704 260 675 211 q 742 363 733 308 l 808 789 q 853 889 821 861 m 553 222 q 572 215 564 222 q 576 196 579 207 q 565 176 574 185 q 544 168 556 168 q 526 176 533 168 q 521 196 518 185 q 533 215 524 207 q 553 222 542 222 m 546 181 q 563 196 560 181 q 550 210 565 210 q 533 196 536 210 q 546 181 531 181 m 638 300 q 661 274 664 300 q 649 254 658 263 q 629 246 640 246 q 611 254 618 246 q 607 274 604 263 q 617 292 608 285 q 638 300 626 300 m 631 258 q 649 274 646 258 q 635 288 649 288 q 624 283 629 288 q 619 274 619 279 q 631 258 617 258 m 686 515 q 705 507 697 515 q 710 488 713 499 q 698 469 707 476 q 678 461 689 461 q 656 488 651 461 q 667 507 658 499 q 686 515 675 515 m 681 474 q 697 488 694 474 q 685 503 700 503 q 668 488 671 503 q 671 477 667 481 q 681 474 675 474 m 451 201 q 470 194 463 201 q 475 175 478 186 q 464 156 474 164 q 443 147 454 147 q 425 156 432 147 q 419 175 418 164 q 431 194 422 186 q 451 201 440 201 m 446 160 q 458 164 453 160 q 463 175 463 168 q 450 189 465 189 q 432 175 435 189 q 446 160 432 160 m 463 839 q 472 823 471 833 q 467 803 474 813 q 449 790 460 793 q 429 792 438 786 q 418 809 419 799 q 424 829 417 819 q 442 842 431 839 q 463 839 454 846 m 457 808 q 460 820 460 814 q 456 829 461 826 q 433 824 443 833 q 436 803 425 811 q 457 808 449 797 m 561 843 q 571 826 571 838 q 564 806 571 815 q 546 793 557 796 q 526 796 535 790 q 516 812 517 801 q 522 833 515 822 q 540 846 529 843 q 561 843 551 849 m 554 813 q 551 832 564 825 q 542 833 549 835 q 532 826 536 832 q 535 807 522 814 q 554 813 544 800 m 660 839 q 670 823 669 833 q 664 803 671 813 q 646 790 657 793 q 626 792 635 786 q 616 809 617 799 q 622 829 615 819 q 640 842 629 839 q 660 839 651 846 m 656 808 q 658 820 658 814 q 651 829 658 826 q 631 824 642 835 q 633 803 622 811 q 656 808 646 799 m 307 315 q 326 307 318 315 q 331 288 333 299 q 319 269 329 276 q 299 261 310 261 q 276 288 274 261 q 288 307 279 299 q 307 315 296 315 m 301 274 q 317 288 314 274 q 306 303 319 303 q 289 288 292 303 q 301 274 286 274 m 358 232 q 377 224 369 232 q 382 204 385 215 q 370 185 379 193 q 350 178 361 178 q 332 185 339 178 q 328 204 325 193 q 339 224 331 215 q 358 232 347 232 m 351 190 q 369 204 367 190 q 357 219 372 219 q 340 204 343 219 q 351 190 338 190 m 324 385 q 313 366 322 374 q 292 358 303 358 q 269 385 267 358 q 300 411 274 411 q 319 403 311 411 q 324 385 326 396 m 282 385 q 285 374 281 378 q 294 371 289 371 q 311 385 308 371 q 299 399 314 399 q 282 385 285 399 m 669 406 q 687 397 681 406 q 692 378 693 389 q 681 359 689 367 q 661 351 672 351 q 642 359 650 351 q 638 378 635 367 q 649 397 639 389 q 669 406 658 406 m 663 364 q 679 378 676 364 q 676 389 681 385 q 667 393 672 393 q 650 378 653 393 q 663 364 647 364 m 368 839 q 378 823 376 833 q 372 803 379 813 q 353 790 365 793 q 333 792 342 786 q 324 809 325 799 q 329 829 322 819 q 347 842 336 839 q 368 839 358 846 m 363 808 q 365 820 365 814 q 360 829 365 826 q 339 824 349 833 q 342 803 331 811 q 363 808 354 797 m 721 731 q 740 723 732 731 q 744 704 747 715 q 733 685 742 693 q 713 676 724 676 q 694 685 701 676 q 690 704 688 693 q 721 731 694 731 m 714 689 q 732 704 729 689 q 729 714 733 710 q 718 718 725 718 q 703 704 706 718 q 714 689 700 689 m 758 836 q 768 820 767 831 q 763 799 769 810 q 743 785 754 789 q 722 789 732 782 q 713 805 714 794 q 719 826 713 815 q 738 839 726 836 q 758 836 749 842 m 751 804 q 750 825 760 817 q 729 819 739 832 q 726 808 725 814 q 732 800 726 803 q 742 799 735 797 q 751 804 749 800 m 694 568 q 676 576 683 568 q 671 594 669 583 q 683 614 674 606 q 703 622 692 622 q 721 614 714 622 q 725 594 728 606 q 715 576 724 583 q 694 568 706 568 m 701 610 q 683 594 686 610 q 686 585 682 589 q 697 581 690 581 q 713 594 710 581 q 701 610 715 610 m 825 879 q 808 838 814 860 q 796 788 801 817 l 729 360 q 694 263 721 308 q 627 183 667 217 q 538 128 588 149 q 436 108 489 108 q 341 128 383 108 q 269 183 299 149 q 228 263 240 217 q 224 360 215 308 q 227 413 228 388 q 219 453 226 438 l 388 453 q 364 412 368 432 q 356 360 360 392 q 378 276 347 311 q 457 240 408 240 q 506 250 482 240 q 548 276 529 260 q 580 315 567 293 q 597 360 593 336 l 658 749 l 378 749 q 319 745 342 749 q 282 731 297 742 l 290 788 q 297 840 296 817 q 292 879 297 864 l 825 879 m 385 793 q 394 827 396 810 q 379 854 393 844 q 345 858 364 864 q 315 838 326 853 q 306 805 304 822 q 322 778 308 788 q 356 773 338 768 q 385 793 374 778 m 481 793 q 490 827 492 810 q 474 854 489 844 q 440 858 458 864 q 411 838 422 853 q 401 805 400 822 q 418 778 403 788 q 451 773 433 768 q 481 793 469 778 m 578 797 q 588 831 590 813 q 571 857 586 849 q 539 862 557 867 q 508 842 521 857 q 499 808 497 826 q 515 781 500 790 q 549 777 531 772 q 578 797 567 782 m 615 778 q 649 773 631 768 q 678 793 667 778 q 688 827 689 810 q 671 854 686 844 q 638 858 656 864 q 608 838 619 853 q 599 805 597 822 q 615 778 600 788 m 253 385 q 260 353 250 365 q 289 340 271 340 q 323 353 308 340 q 340 385 338 365 q 333 417 343 404 q 303 429 322 429 q 270 417 285 429 q 253 385 256 404 m 258 288 q 266 256 256 269 q 296 243 276 243 q 330 256 315 243 q 347 288 344 269 q 340 319 350 307 q 310 332 329 332 q 276 319 290 332 q 258 288 261 307 m 347 161 q 381 174 367 161 q 399 204 396 186 q 391 236 401 224 q 361 249 381 249 q 328 236 343 249 q 310 204 313 224 q 318 174 307 186 q 347 161 329 161 m 440 131 q 474 143 460 131 q 492 175 489 156 q 484 206 494 193 q 454 218 474 218 q 421 206 436 218 q 403 175 406 193 q 411 143 400 156 q 440 131 422 131 m 542 151 q 574 164 560 151 q 592 196 589 176 q 584 227 594 214 q 556 240 574 240 q 522 227 536 240 q 504 196 507 214 q 512 164 501 176 q 542 151 522 151 m 626 229 q 660 242 646 229 q 678 274 675 254 q 670 305 681 292 q 640 318 660 318 q 607 305 622 318 q 589 274 592 292 q 597 242 586 254 q 626 229 608 229 m 658 333 q 692 347 676 333 q 710 378 707 360 q 701 410 713 397 q 672 422 690 422 q 638 410 653 422 q 619 378 622 397 q 628 347 617 360 q 658 333 639 333 m 675 443 q 709 456 694 443 q 726 488 724 469 q 719 519 729 507 q 689 532 708 532 q 656 519 671 532 q 638 488 640 507 q 646 456 635 469 q 675 443 657 443 m 653 594 q 661 564 650 576 q 692 551 672 551 q 725 564 710 551 q 743 594 740 576 q 735 627 746 614 q 707 640 725 640 q 672 627 688 640 q 653 594 656 614 m 710 660 q 744 672 729 660 q 761 704 758 685 q 753 735 764 722 q 724 749 743 749 q 690 735 706 749 q 672 704 675 722 q 681 672 669 685 q 710 660 692 660 m 776 790 q 785 824 788 806 q 769 851 783 842 q 735 855 754 860 q 706 835 717 850 q 695 801 693 819 q 713 774 697 783 q 745 770 726 765 q 776 790 764 775 z "},"k":{"ha":742,"x_min":15,"x_max":871,"o":"m 724 203 q 725 136 718 171 q 749 61 732 101 l 718 61 l 649 0 l 333 0 l 350 21 l 353 25 l 388 61 l 372 61 l 304 0 l 15 0 q 42 42 33 22 q 57 78 51 61 q 65 108 63 94 q 72 132 68 121 l 164 718 q 147 811 176 785 q 144 825 143 817 q 151 839 144 833 l 214 893 q 227 919 213 906 q 274 932 242 932 l 481 932 q 524 911 515 932 q 513 875 532 890 q 485 840 497 861 q 467 789 472 818 l 458 729 l 447 636 q 496 650 476 643 q 503 672 500 661 q 508 690 507 682 l 513 718 q 492 811 522 782 q 492 823 488 817 q 504 836 497 829 l 560 885 q 583 916 563 900 q 618 932 603 932 l 824 932 q 852 926 842 932 q 867 911 863 919 q 869 893 871 903 q 857 875 867 883 q 831 841 842 861 q 815 789 821 821 l 811 761 q 766 634 800 694 q 681 522 732 574 q 735 281 758 424 l 724 203 m 432 210 q 427 274 439 244 q 393 319 415 304 l 375 203 q 376 142 371 175 q 397 75 381 110 q 411 104 404 90 q 421 132 418 118 l 432 210 m 690 96 q 698 98 697 96 q 696 103 699 100 q 688 203 675 128 l 696 256 l 699 281 q 692 415 710 351 q 628 522 674 478 q 726 629 689 568 q 775 761 764 690 l 779 789 q 819 885 792 865 q 824 892 824 888 q 818 896 825 896 l 613 896 q 607 892 610 896 q 606 885 604 888 q 619 789 632 863 l 615 761 q 593 699 610 728 q 551 648 576 669 q 495 614 526 626 q 431 601 464 601 l 403 601 l 424 729 l 432 789 q 475 885 444 863 q 478 892 478 888 q 475 896 479 896 l 268 896 q 261 892 263 896 q 263 885 260 888 q 271 789 283 865 l 179 203 q 139 103 167 129 q 135 98 136 100 q 140 96 135 96 l 268 96 l 322 96 l 347 96 q 351 103 358 96 q 340 203 328 131 l 349 256 l 365 363 l 378 440 l 406 440 q 466 428 439 440 q 511 394 493 415 q 537 343 529 372 q 539 281 544 314 l 536 256 l 528 203 q 509 141 521 165 q 482 103 497 117 q 481 98 479 100 q 485 96 482 96 l 690 96 m 336 683 q 319 692 325 683 q 315 711 313 700 q 326 731 317 722 q 346 739 335 739 q 364 731 357 739 q 369 711 371 722 q 357 692 367 700 q 336 683 347 683 m 343 726 q 328 711 331 726 q 339 697 325 697 q 357 711 354 697 q 354 722 358 718 q 343 726 350 726 m 331 635 q 348 626 342 635 q 353 607 354 618 q 342 588 350 596 q 322 579 333 579 q 303 588 311 579 q 299 607 296 596 q 310 626 300 618 q 331 635 319 635 m 324 592 q 340 607 338 592 q 328 622 343 622 q 313 607 315 622 q 324 592 310 592 m 418 551 q 437 543 429 551 q 442 524 444 535 q 431 505 440 513 q 410 497 421 497 q 392 505 399 497 q 388 524 386 513 q 399 543 390 535 q 418 551 407 551 m 413 510 q 429 524 426 510 q 417 539 432 539 q 400 524 403 539 q 413 510 397 510 m 364 843 q 381 835 375 843 q 386 817 388 828 q 374 797 383 806 q 354 789 365 789 q 336 797 343 789 q 332 817 329 806 q 343 835 333 828 q 364 843 353 843 m 357 801 q 374 817 371 801 q 361 831 376 831 q 346 817 349 831 q 357 801 343 801 m 311 525 q 330 517 322 525 q 335 499 338 510 q 324 479 333 488 q 303 471 314 471 q 285 479 292 471 q 281 499 279 488 q 292 517 283 510 q 311 525 300 525 m 306 483 q 322 499 319 483 q 310 513 325 513 q 293 499 296 513 q 306 483 290 483 m 517 554 q 539 528 542 554 q 528 509 536 517 q 508 501 519 501 q 490 509 497 501 q 485 528 482 517 q 496 547 486 539 q 517 554 506 554 m 510 514 q 526 528 524 514 q 514 542 529 542 q 497 528 500 542 q 510 514 494 514 m 675 672 q 657 681 664 672 q 651 700 650 689 q 663 719 654 711 q 683 726 672 726 q 701 719 694 726 q 706 700 708 711 q 695 681 704 689 q 675 672 686 672 m 682 714 q 664 700 667 714 q 667 689 663 693 q 678 685 671 685 q 693 700 690 685 q 682 714 696 714 m 294 417 q 313 408 306 417 q 318 389 321 400 q 306 370 315 378 q 286 363 297 363 q 268 370 275 363 q 264 389 261 378 q 275 408 267 400 q 294 417 283 417 m 288 375 q 306 389 303 375 q 293 404 308 404 q 276 389 279 404 q 288 375 274 375 m 601 574 q 583 581 590 574 q 578 600 575 589 q 590 619 581 611 q 610 628 599 628 q 628 619 621 628 q 632 600 635 611 q 621 581 629 589 q 601 574 613 574 m 608 615 q 590 600 593 615 q 603 586 588 586 q 619 600 617 586 q 608 615 622 615 m 260 199 q 278 190 271 199 q 283 171 286 182 q 272 152 281 160 q 251 144 263 144 q 233 152 240 144 q 229 171 226 160 q 240 190 232 182 q 260 199 249 199 m 253 157 q 271 171 268 157 q 258 186 274 186 q 242 171 244 186 q 253 157 239 157 m 278 310 q 296 301 289 310 q 301 282 303 293 q 290 263 299 271 q 269 256 281 256 q 251 263 258 256 q 247 282 244 271 q 258 301 249 293 q 278 310 267 310 m 271 268 q 289 282 286 268 q 286 293 290 289 q 275 297 282 297 q 260 282 263 297 q 271 268 257 268 m 704 786 q 687 794 693 786 q 682 814 681 803 q 693 833 685 825 q 713 840 701 840 q 731 833 724 840 q 736 814 739 825 q 725 794 735 803 q 704 786 715 786 m 711 828 q 694 814 697 828 q 707 799 692 799 q 724 814 721 799 q 711 828 726 828 m 613 236 q 595 244 601 236 q 592 264 589 253 q 602 283 593 275 q 622 292 611 292 q 640 283 633 292 q 646 264 647 275 q 633 244 643 253 q 613 236 624 236 m 619 278 q 604 264 607 278 q 615 249 601 249 q 633 264 631 249 q 631 274 635 271 q 619 278 626 278 m 674 201 q 670 155 671 178 q 672 117 669 132 q 591 113 628 117 q 511 110 554 110 q 531 151 522 129 q 543 201 539 172 l 556 279 q 552 347 561 315 q 524 403 543 379 q 474 440 504 426 q 408 454 444 454 l 367 454 l 326 201 q 329 110 318 143 l 167 110 q 182 149 174 125 q 194 201 190 172 l 288 788 q 282 879 300 853 l 456 879 q 419 788 431 854 l 388 585 l 429 585 q 499 599 465 585 q 561 636 533 613 q 608 692 589 660 q 632 760 626 724 l 636 788 q 638 843 642 819 q 626 879 635 867 l 800 879 q 780 843 788 867 q 767 788 772 819 l 763 760 q 712 633 751 694 q 604 521 672 572 q 676 408 656 471 q 686 279 697 344 l 674 201 m 715 857 q 682 844 697 857 q 664 814 667 832 q 672 782 661 794 q 701 769 683 769 q 735 782 721 769 q 753 814 750 794 q 745 844 756 832 q 715 857 735 857 m 686 744 q 652 731 667 744 q 635 700 638 718 q 642 668 632 681 q 672 656 653 656 q 705 668 690 656 q 722 700 719 681 q 715 731 725 718 q 686 744 704 744 m 613 644 q 578 632 593 644 q 561 600 564 619 q 569 569 558 582 q 599 556 579 556 q 632 569 617 556 q 650 600 647 582 q 642 632 653 619 q 613 644 631 644 m 249 126 q 283 140 268 126 q 300 171 297 153 q 292 203 303 190 q 263 215 282 215 q 229 203 244 215 q 211 171 214 190 q 219 140 208 153 q 249 126 231 126 m 267 239 q 301 251 286 239 q 318 282 315 264 q 310 314 321 301 q 281 326 300 326 q 247 314 263 326 q 229 282 232 301 q 238 251 226 264 q 267 239 249 239 m 283 344 q 317 358 303 344 q 335 389 332 371 q 327 421 338 408 q 297 433 317 433 q 264 421 279 433 q 246 389 249 408 q 254 358 243 371 q 283 344 265 344 m 300 454 q 334 467 319 454 q 351 499 349 479 q 344 529 354 517 q 314 542 333 542 q 281 529 296 542 q 263 499 265 517 q 271 467 260 479 q 300 454 282 454 m 319 563 q 353 576 339 563 q 371 607 368 589 q 363 639 374 626 q 333 651 353 651 q 299 639 314 651 q 282 607 285 626 q 290 576 279 589 q 319 563 300 563 m 297 711 q 306 679 294 692 q 335 667 317 667 q 369 679 354 667 q 386 711 383 692 q 378 743 389 731 q 349 756 368 756 q 315 743 331 756 q 297 711 300 731 m 353 772 q 387 785 372 772 q 404 817 401 797 q 397 848 407 835 q 367 861 386 861 q 333 848 347 861 q 315 817 318 835 q 323 785 313 797 q 353 772 333 772 m 407 479 q 441 492 426 479 q 458 524 456 506 q 451 556 461 543 q 421 568 440 568 q 388 556 403 568 q 369 524 372 543 q 378 492 367 506 q 407 479 389 479 m 506 483 q 539 496 524 483 q 557 528 554 508 q 549 560 560 547 q 519 572 538 572 q 485 560 500 572 q 468 528 471 547 q 476 496 465 508 q 506 483 486 483 m 574 410 q 608 422 593 410 q 625 454 622 435 q 617 485 628 472 q 588 499 607 499 q 555 485 569 499 q 538 454 540 472 q 545 422 535 435 q 574 410 556 410 m 575 364 q 583 331 572 344 q 613 318 593 318 q 646 331 631 318 q 664 364 661 344 q 656 395 667 382 q 626 408 644 408 q 592 395 607 408 q 575 364 578 382 m 625 307 q 592 294 607 307 q 574 264 576 282 q 582 232 571 244 q 611 219 593 219 q 646 232 631 219 q 664 264 661 244 q 656 294 667 282 q 625 307 644 307 m 599 122 q 633 135 618 122 q 651 167 649 149 q 644 199 654 186 q 614 211 633 211 q 580 199 594 211 q 563 167 565 186 q 569 135 560 149 q 599 122 579 122 m 646 364 q 635 344 643 353 q 615 336 626 336 q 597 344 604 336 q 592 364 589 353 q 603 383 594 375 q 624 390 613 390 q 642 383 635 390 q 646 364 649 375 m 604 364 q 617 349 601 349 q 633 364 631 349 q 622 378 636 378 q 604 364 607 378 m 611 194 q 629 186 622 194 q 635 167 636 178 q 622 148 632 156 q 601 140 613 140 q 583 148 590 140 q 579 167 576 156 q 590 186 581 178 q 611 194 600 194 m 604 153 q 622 167 619 153 q 608 182 622 182 q 597 178 601 182 q 592 167 592 174 q 604 153 589 153 m 585 481 q 603 473 596 481 q 608 454 611 465 q 597 435 607 443 q 576 426 588 426 q 559 435 565 426 q 554 454 553 443 q 565 473 557 465 q 585 481 574 481 m 579 439 q 596 454 593 439 q 583 468 599 468 q 567 454 569 468 q 569 443 565 447 q 579 439 574 439 z "},"l":{"ha":675,"x_min":28,"x_max":686,"o":"m 38 50 q 58 83 50 64 q 72 133 67 103 l 167 731 q 161 810 175 793 q 147 832 146 818 q 157 854 147 846 l 225 913 q 241 937 226 925 q 278 949 256 949 l 485 949 q 510 940 501 949 q 521 918 519 931 q 515 892 522 906 q 492 868 508 878 l 493 872 q 485 848 490 865 q 475 803 479 831 l 394 296 l 521 296 q 569 297 551 296 q 592 303 588 297 l 588 303 q 615 323 600 318 q 642 324 629 328 q 661 309 654 319 q 665 282 668 299 l 653 206 q 651 153 647 174 q 667 118 656 132 q 674 82 686 97 q 636 61 661 67 l 578 10 q 559 2 571 4 q 533 0 547 0 l 56 0 q 31 6 33 0 q 33 46 28 11 l 38 50 m 267 901 q 280 866 276 890 q 276 803 283 842 l 190 260 l 182 206 q 164 143 175 168 q 142 107 153 118 q 136 101 135 104 q 140 97 138 97 l 143 97 l 599 97 l 621 97 q 625 107 635 97 q 615 206 603 129 l 624 260 l 628 282 q 624 289 628 288 q 618 285 621 290 q 515 260 593 260 l 353 260 l 369 368 l 379 422 l 404 586 l 422 694 l 439 803 q 479 901 451 879 q 485 908 486 904 q 479 913 485 913 l 272 913 q 264 908 267 913 q 267 901 261 904 m 506 147 q 488 156 494 147 q 482 175 481 164 q 494 194 485 186 q 515 203 504 203 q 533 194 526 203 q 538 175 540 186 q 526 156 536 164 q 506 147 517 147 m 513 190 q 494 175 497 190 q 508 160 494 160 q 519 164 514 160 q 525 175 525 168 q 522 186 526 182 q 513 190 518 190 m 308 481 q 290 489 297 481 q 285 508 283 497 q 297 528 288 519 q 318 536 307 536 q 336 528 329 536 q 340 508 343 519 q 329 489 339 497 q 308 481 319 481 m 315 522 q 297 508 300 522 q 311 493 297 493 q 323 497 318 493 q 328 508 328 501 q 315 522 331 522 m 326 588 q 308 596 315 588 q 304 615 301 604 q 315 635 306 626 q 336 643 325 643 q 354 635 347 643 q 360 615 361 626 q 347 596 357 604 q 326 588 338 588 m 333 631 q 317 615 319 631 q 329 601 314 601 q 346 615 343 601 q 333 631 349 631 m 381 151 q 362 159 369 151 q 357 179 354 167 q 369 199 360 190 q 389 207 378 207 q 408 199 400 207 q 413 179 415 190 q 401 159 410 167 q 381 151 392 151 m 388 193 q 369 179 372 193 q 382 164 367 164 q 399 179 396 164 q 388 193 401 193 m 363 808 q 344 817 351 808 q 339 836 336 825 q 351 856 342 847 q 371 864 360 864 q 390 856 382 864 q 394 836 397 847 q 383 817 392 825 q 363 808 374 808 m 368 850 q 351 836 354 850 q 364 821 349 821 q 381 836 378 821 q 368 850 383 850 m 356 753 q 374 744 367 753 q 379 725 382 736 q 367 706 376 714 q 347 697 358 697 q 328 706 336 697 q 324 725 321 714 q 335 744 326 736 q 356 753 344 753 m 349 710 q 360 715 356 710 q 367 725 365 719 q 354 740 369 740 q 336 725 339 740 q 338 715 335 719 q 349 710 342 710 m 290 365 q 272 374 279 365 q 267 393 265 382 q 278 413 269 404 q 299 421 288 421 q 317 413 310 421 q 322 393 325 404 q 311 374 321 382 q 290 365 301 365 m 297 408 q 279 393 282 408 q 293 379 279 379 q 305 383 300 379 q 310 393 310 388 q 297 408 313 408 m 160 110 q 181 148 171 125 q 197 204 192 171 l 292 801 q 293 856 296 832 q 285 896 290 879 l 463 896 q 439 853 449 876 q 425 801 429 829 l 336 243 l 515 243 q 567 249 542 243 q 613 265 592 254 l 603 204 q 606 110 592 143 l 160 110 m 518 221 q 483 208 499 221 q 465 175 468 194 q 473 143 463 156 q 503 131 483 131 q 537 143 522 131 q 554 175 551 156 q 547 208 557 194 q 518 221 538 221 m 392 224 q 357 210 372 224 q 339 179 342 197 q 347 147 336 160 q 378 133 358 133 q 412 147 397 133 q 429 179 426 160 q 422 210 432 197 q 392 224 411 224 m 374 881 q 339 868 354 881 q 321 836 324 856 q 329 803 318 817 q 360 790 340 790 q 394 803 379 790 q 411 836 408 817 q 403 868 414 856 q 374 881 393 881 m 396 725 q 388 758 399 744 q 358 771 378 771 q 324 758 339 771 q 306 725 308 744 q 314 693 303 706 q 344 681 325 681 q 378 693 364 681 q 396 725 393 706 m 339 661 q 304 648 319 661 q 286 615 289 635 q 294 583 283 596 q 325 571 306 571 q 359 583 344 571 q 376 615 374 596 q 369 648 379 635 q 339 661 358 661 m 321 553 q 286 540 301 553 q 268 508 271 528 q 276 476 265 489 q 306 463 286 463 q 340 476 325 463 q 358 508 356 489 q 351 540 361 528 q 321 553 340 553 m 303 439 q 268 426 283 439 q 250 393 253 413 q 258 361 247 374 q 288 349 268 349 q 322 361 307 349 q 340 393 338 374 q 333 426 343 413 q 303 439 322 439 m 286 333 q 251 320 267 333 q 233 288 236 307 q 241 256 231 269 q 271 243 251 243 q 306 256 290 243 q 324 288 321 269 q 316 320 326 307 q 286 333 306 333 m 268 224 q 234 210 249 224 q 217 179 219 197 q 224 147 214 160 q 254 133 235 133 q 289 147 274 133 q 307 179 304 160 q 299 210 310 197 q 268 224 288 224 m 274 261 q 256 269 263 261 q 250 288 249 276 q 262 307 253 299 q 282 315 271 315 q 301 307 293 315 q 306 288 308 299 q 294 269 304 276 q 274 261 285 261 m 281 303 q 263 288 265 303 q 265 278 261 282 q 276 274 269 274 q 293 288 290 274 q 281 303 296 303 m 257 151 q 238 159 246 151 q 233 179 231 167 q 245 199 236 190 q 265 207 254 207 q 284 199 276 207 q 289 179 292 190 q 277 159 286 167 q 257 151 268 151 m 264 193 q 246 179 249 193 q 258 164 243 164 q 276 179 274 164 q 264 193 279 193 z "},"m":{"ha":951,"x_min":17,"x_max":1065,"o":"m 779 906 q 797 934 783 922 q 821 946 810 946 l 1029 946 q 1056 938 1047 946 q 1065 917 1064 929 q 1060 892 1065 906 q 1043 869 1054 879 l 1043 874 q 1022 801 1033 868 l 928 206 q 926 143 922 174 q 949 72 931 113 l 922 61 l 851 0 l 17 0 q 57 70 40 36 q 79 133 74 104 l 174 729 q 173 785 179 761 q 151 824 167 808 q 151 835 147 829 q 163 849 156 842 l 221 899 q 243 930 224 914 q 279 946 263 946 l 488 946 q 515 938 504 946 q 528 919 525 931 q 526 896 531 908 q 510 874 522 883 q 499 859 506 867 q 492 849 493 851 l 490 838 q 530 674 510 750 q 572 513 550 597 l 715 761 l 711 758 q 716 765 715 764 q 714 772 717 767 q 708 804 714 799 q 705 831 699 815 q 719 856 711 847 l 779 906 m 949 910 l 815 910 q 810 906 813 910 q 810 899 807 901 q 825 856 822 889 q 819 824 826 842 l 565 382 l 456 824 q 455 841 454 835 q 457 856 456 847 q 470 882 463 871 q 485 899 478 893 q 490 906 492 901 q 482 910 489 910 l 407 910 l 274 910 q 269 906 271 910 q 269 899 267 901 q 285 863 281 888 q 282 801 289 839 l 188 206 q 169 143 181 168 q 144 106 158 118 q 142 100 140 103 q 146 97 143 97 l 354 97 q 363 100 361 97 q 360 106 365 103 q 350 206 338 131 l 354 235 l 356 238 l 383 419 l 442 188 q 439 106 454 132 q 438 100 436 103 q 442 97 439 97 l 604 97 q 609 100 607 97 q 608 106 611 103 q 610 139 604 118 q 632 188 617 160 l 763 415 l 729 206 q 685 106 717 133 q 683 100 682 103 q 688 97 685 97 l 896 97 q 901 106 904 97 q 892 206 879 128 l 900 260 l 935 476 l 961 646 l 969 693 l 978 747 l 986 801 q 1002 863 993 839 q 1026 899 1011 888 q 1029 906 1029 901 q 1024 910 1029 910 l 949 910 m 451 594 q 440 575 450 583 q 419 567 431 567 q 401 575 408 567 q 396 594 394 583 q 408 614 399 606 q 428 622 417 622 q 447 614 439 622 q 451 594 454 606 m 408 594 q 411 583 407 588 q 422 579 415 579 q 439 594 436 579 q 426 610 442 610 q 408 594 411 610 m 661 421 q 680 413 672 421 q 685 394 688 406 q 674 375 683 383 q 653 367 664 367 q 635 375 642 367 q 631 394 629 383 q 642 413 633 406 q 661 421 650 421 m 656 379 q 667 383 663 379 q 672 394 672 388 q 660 408 675 408 q 643 394 646 408 q 656 379 643 379 m 300 426 q 319 418 311 426 q 324 399 326 410 q 312 379 321 388 q 292 371 303 371 q 273 379 281 371 q 268 399 265 388 q 280 418 271 410 q 300 426 289 426 m 293 383 q 310 399 307 383 q 299 413 313 413 q 281 399 283 413 q 293 383 278 383 m 283 317 q 307 290 310 317 q 294 271 304 279 q 274 263 285 263 q 256 271 263 263 q 251 290 249 279 q 263 309 253 301 q 283 317 272 317 m 276 275 q 293 290 290 275 q 290 301 294 297 q 281 304 286 304 q 264 290 267 304 q 276 275 261 275 m 833 317 q 851 309 844 317 q 857 290 858 301 q 844 270 854 278 q 824 263 835 263 q 806 270 813 263 q 803 290 800 278 q 813 309 804 301 q 833 317 822 317 m 826 275 q 844 290 840 275 q 831 304 844 304 q 815 290 815 304 q 826 275 811 275 m 265 204 q 283 196 276 204 q 289 176 290 188 q 276 157 286 165 q 256 149 267 149 q 238 157 244 149 q 233 176 231 165 q 244 196 235 188 q 265 204 254 204 m 258 161 q 269 166 264 161 q 275 176 274 171 q 272 188 276 183 q 263 192 268 192 q 246 176 249 192 q 248 166 244 171 q 258 161 251 161 m 815 204 q 833 196 826 204 q 839 176 840 188 q 826 157 836 165 q 806 149 817 149 q 788 157 794 149 q 785 176 782 165 q 795 196 786 188 q 815 204 804 204 m 808 161 q 826 176 824 161 q 824 187 828 183 q 813 190 819 190 q 797 176 800 190 q 808 161 794 161 m 721 522 q 740 515 732 522 q 744 494 747 507 q 733 476 742 483 q 713 468 724 468 q 695 476 701 468 q 692 494 689 483 q 702 515 694 507 q 721 522 710 522 m 714 481 q 732 494 729 481 q 719 510 735 510 q 704 494 707 510 q 714 481 701 481 m 782 629 q 801 622 793 629 q 806 603 808 614 q 794 583 803 592 q 774 575 785 575 q 756 583 763 575 q 751 603 749 592 q 763 622 754 614 q 782 629 771 629 m 775 588 q 793 603 790 588 q 781 617 796 617 q 764 603 767 617 q 775 588 761 588 m 503 393 q 492 374 501 382 q 471 367 482 367 q 447 393 444 367 q 459 413 450 404 q 479 421 468 421 q 498 413 490 421 q 503 393 506 404 m 460 393 q 474 379 457 379 q 489 393 486 379 q 478 408 492 408 q 460 393 463 408 m 538 219 q 556 211 549 219 q 560 192 563 203 q 549 172 558 181 q 528 164 539 164 q 510 172 517 164 q 504 192 503 181 q 517 211 507 203 q 538 219 526 219 m 531 176 q 547 192 544 176 q 535 207 550 207 q 518 192 521 207 q 521 181 517 185 q 531 176 525 176 m 343 701 q 325 710 332 701 q 321 729 318 718 q 332 749 322 740 q 353 757 342 757 q 371 749 364 757 q 376 729 378 740 q 364 710 374 718 q 343 701 354 701 m 350 743 q 338 739 343 743 q 333 729 333 735 q 346 714 331 714 q 363 729 360 714 q 350 743 363 743 m 369 867 q 388 858 381 867 q 393 839 396 850 q 381 819 390 828 q 361 811 372 811 q 342 819 350 811 q 338 839 335 828 q 349 858 340 850 q 369 867 358 867 m 364 825 q 381 839 378 825 q 368 853 383 853 q 351 839 354 853 q 364 825 349 825 m 474 494 q 462 475 471 483 q 442 467 453 467 q 423 475 431 467 q 418 494 415 483 q 430 514 421 506 q 450 522 439 522 q 469 514 461 522 q 474 494 476 506 m 431 494 q 443 479 428 479 q 461 494 458 479 q 449 510 464 510 q 431 494 433 510 m 335 647 q 353 639 346 647 q 358 619 361 631 q 347 600 356 608 q 326 592 338 592 q 308 600 315 592 q 303 619 300 608 q 315 639 306 631 q 335 647 324 647 m 328 604 q 346 619 343 604 q 333 635 349 635 q 317 619 319 635 q 328 604 314 604 m 318 536 q 336 528 329 536 q 340 508 343 519 q 329 489 339 497 q 308 481 319 481 q 290 489 297 481 q 285 508 283 497 q 297 528 288 519 q 318 536 307 536 m 311 493 q 322 497 317 493 q 326 508 326 501 q 315 524 329 524 q 297 508 300 524 q 311 493 297 493 m 532 294 q 520 275 529 283 q 500 267 511 267 q 481 275 489 267 q 476 294 474 283 q 488 314 479 306 q 508 322 497 322 q 527 314 519 322 q 532 294 535 306 m 489 294 q 501 279 486 279 q 518 294 515 279 q 507 308 521 308 q 489 294 492 308 m 603 322 q 621 314 614 322 q 625 294 628 306 q 614 275 622 283 q 594 267 606 267 q 576 275 583 267 q 572 294 569 283 q 583 314 575 306 q 603 322 592 322 m 596 279 q 613 294 610 279 q 601 310 615 310 q 585 294 588 310 q 596 279 582 279 m 886 646 q 905 638 897 646 q 910 618 913 629 q 898 599 907 607 q 878 592 889 592 q 859 599 867 592 q 854 618 851 607 q 866 638 857 629 q 886 646 875 646 m 879 604 q 896 618 893 604 q 885 633 899 633 q 867 618 869 633 q 879 604 864 604 m 921 865 q 940 857 932 865 q 944 838 947 849 q 933 819 942 826 q 913 811 924 811 q 894 819 901 811 q 889 838 886 826 q 901 857 892 849 q 921 865 910 865 m 914 824 q 931 838 928 824 q 919 853 933 853 q 901 838 904 853 q 914 824 899 824 m 876 204 q 872 153 872 181 q 874 110 871 126 l 708 110 q 728 151 719 129 q 742 204 736 174 l 775 417 l 750 421 l 617 189 q 601 146 608 168 q 592 110 594 124 l 457 110 q 454 189 464 150 l 394 424 l 368 421 l 335 204 q 331 153 331 181 q 335 110 332 126 l 168 110 q 188 151 179 129 q 201 204 196 174 l 296 799 q 297 853 300 829 q 285 893 293 878 l 461 893 q 449 876 454 885 q 442 857 444 868 q 439 838 440 846 q 439 818 438 829 l 558 342 l 828 811 q 838 857 842 840 l 825 893 l 1001 893 q 983 853 992 878 q 971 799 975 829 l 876 204 m 813 736 q 794 703 797 722 q 803 671 792 685 q 826 658 811 661 q 828 667 826 663 q 831 676 829 672 q 817 683 825 678 q 812 703 810 692 q 824 724 814 715 q 840 732 832 732 q 842 743 842 739 q 842 750 842 747 q 813 736 824 747 m 415 746 q 413 737 414 742 q 410 728 411 732 q 417 725 413 726 q 424 721 421 724 q 428 701 431 713 q 417 681 426 689 q 400 672 411 675 q 399 662 399 667 q 399 654 400 657 q 429 668 415 657 q 447 701 444 682 q 438 733 449 719 q 415 746 429 743 m 413 711 q 404 715 408 715 l 401 686 q 408 690 406 686 q 415 701 415 694 q 413 711 415 707 m 254 132 q 288 144 272 132 q 306 176 303 157 q 297 209 308 196 q 268 222 286 222 q 233 209 249 222 q 215 176 218 196 q 224 144 213 157 q 254 132 235 132 m 271 244 q 305 258 289 244 q 324 290 321 271 q 315 322 326 310 q 286 335 304 335 q 251 322 267 335 q 233 290 236 310 q 241 258 231 271 q 271 244 251 244 m 289 354 q 322 367 307 354 q 340 399 338 379 q 332 431 343 418 q 303 443 321 443 q 268 431 283 443 q 250 399 253 418 q 258 367 247 379 q 289 354 269 354 m 306 464 q 339 476 324 464 q 357 508 354 489 q 349 540 360 528 q 321 553 339 553 q 285 540 301 553 q 267 508 269 528 q 275 476 264 489 q 306 464 286 464 m 324 575 q 358 588 343 575 q 375 619 372 600 q 367 651 378 639 q 338 664 357 664 q 303 651 318 664 q 286 619 289 639 q 294 588 283 600 q 324 575 304 575 m 303 729 q 310 697 300 710 q 340 683 321 683 q 374 697 358 683 q 393 729 390 710 q 385 761 396 749 q 356 774 374 774 q 321 761 336 774 q 303 729 306 749 m 358 794 q 392 807 378 794 q 410 839 407 819 q 402 871 413 858 q 372 883 392 883 q 338 871 353 883 q 321 839 324 858 q 328 807 318 819 q 358 794 339 794 m 379 594 q 387 563 376 575 q 417 550 397 550 q 451 563 436 550 q 469 594 467 575 q 462 627 472 614 q 432 640 451 640 q 397 627 413 640 q 379 594 382 614 m 401 494 q 409 462 399 475 q 439 449 419 449 q 474 462 458 449 q 492 494 489 475 q 483 526 494 514 q 453 539 472 539 q 419 526 433 539 q 401 494 404 514 m 429 393 q 438 361 426 374 q 468 349 449 349 q 501 361 486 349 q 519 393 517 374 q 511 425 522 413 q 482 438 500 438 q 447 425 463 438 q 429 393 432 413 m 460 294 q 467 263 457 275 q 497 250 478 250 q 531 263 517 250 q 549 294 546 275 q 541 326 551 313 q 511 339 531 339 q 477 326 492 339 q 460 294 463 313 m 525 146 q 560 159 544 146 q 578 192 575 172 q 569 224 581 211 q 539 236 558 236 q 505 224 519 236 q 488 192 490 211 q 495 159 485 172 q 525 146 506 146 m 592 250 q 624 263 610 250 q 642 294 639 275 q 634 327 644 314 q 606 340 624 340 q 573 327 588 340 q 556 294 558 314 q 563 263 553 275 q 592 250 574 250 m 650 349 q 683 362 669 349 q 700 394 697 375 q 694 426 703 414 q 665 439 685 439 q 632 426 647 439 q 614 394 617 414 q 622 362 611 375 q 650 349 632 349 m 710 450 q 744 463 729 450 q 761 494 758 476 q 753 527 764 514 q 724 540 743 540 q 691 527 706 540 q 674 494 676 514 q 681 463 671 476 q 710 450 692 450 m 771 557 q 804 570 789 557 q 822 603 819 583 q 814 635 825 622 q 785 647 803 647 q 752 635 767 647 q 735 603 738 622 q 742 570 732 583 q 771 557 753 557 m 829 693 q 836 689 831 689 l 840 719 q 832 715 833 717 q 829 693 819 703 m 804 132 q 839 144 824 132 q 857 176 854 157 q 849 208 860 196 q 818 221 838 221 q 784 208 799 221 q 767 176 769 196 q 774 144 764 157 q 804 132 785 132 m 821 244 q 856 258 840 244 q 875 290 872 271 q 867 322 878 308 q 836 335 856 335 q 802 322 817 335 q 785 290 788 308 q 792 258 782 271 q 821 244 801 244 m 839 353 q 874 365 858 353 q 892 397 889 378 q 883 430 894 417 q 853 443 872 443 q 819 430 833 443 q 801 397 804 417 q 809 365 799 378 q 839 353 819 353 m 856 463 q 890 476 875 463 q 908 508 906 489 q 901 540 911 528 q 871 553 890 553 q 836 540 851 553 q 818 508 821 528 q 826 476 815 489 q 856 463 836 463 m 875 574 q 909 587 894 574 q 926 618 924 600 q 919 651 929 638 q 889 664 908 664 q 855 651 869 664 q 838 618 840 638 q 845 587 835 600 q 875 574 856 574 m 853 728 q 860 697 850 710 q 890 683 871 683 q 925 697 910 683 q 943 728 940 710 q 935 760 946 747 q 906 772 925 772 q 871 760 886 772 q 853 728 856 747 m 910 793 q 944 806 929 793 q 961 838 958 819 q 953 870 964 857 q 924 883 943 883 q 890 870 904 883 q 872 838 875 857 q 880 806 869 819 q 910 793 890 793 m 893 700 q 876 708 882 700 q 871 728 869 717 q 883 747 874 739 q 903 756 892 756 q 921 747 914 756 q 925 728 928 739 q 914 708 924 717 q 893 700 904 700 m 900 743 q 883 728 886 743 q 896 714 883 714 q 908 718 903 714 q 913 728 913 722 q 900 743 915 743 m 868 536 q 886 528 879 536 q 890 508 893 519 q 879 489 889 497 q 858 481 869 481 q 841 489 847 481 q 836 508 835 497 q 848 528 839 519 q 868 536 857 536 m 861 493 q 873 497 868 493 q 878 508 878 501 q 865 522 881 522 q 849 508 851 522 q 861 493 849 493 m 850 425 q 869 417 861 425 q 874 397 876 408 q 862 378 871 386 q 842 369 853 369 q 824 378 831 369 q 819 397 817 386 q 831 417 822 408 q 850 425 839 425 m 843 383 q 861 397 858 383 q 849 413 864 413 q 832 397 835 413 q 843 383 829 383 z "},"n":{"ha":788,"x_min":17,"x_max":918,"o":"m 60 0 q 23 15 29 0 q 29 40 17 29 l 49 54 q 76 135 68 82 l 171 729 q 161 813 182 796 q 168 856 157 846 l 231 907 q 279 946 233 946 l 489 946 q 526 941 514 946 q 538 926 538 936 q 528 902 538 917 q 506 867 519 888 l 492 844 q 490 817 489 833 q 494 790 490 801 l 546 704 l 550 729 q 540 813 561 796 q 547 856 536 846 l 610 907 q 658 946 610 946 l 868 946 q 905 942 893 946 q 917 931 917 939 q 911 911 918 924 q 894 881 904 899 q 871 849 882 869 q 856 801 860 829 l 761 206 q 763 153 757 176 q 781 119 769 131 q 783 86 794 104 q 746 61 771 68 l 685 11 q 647 0 671 0 l 438 0 q 416 6 422 0 q 410 22 410 13 q 415 42 410 32 q 428 58 419 51 l 432 61 q 442 81 439 68 q 451 108 444 93 q 453 137 456 119 q 444 163 450 154 l 390 253 l 383 206 q 385 153 379 176 q 401 119 390 131 q 404 86 417 104 q 367 61 392 68 l 306 11 q 268 0 292 0 l 60 0 m 269 899 q 279 801 292 878 l 193 260 l 185 206 q 169 144 178 168 q 144 108 160 119 q 141 102 142 106 q 146 99 140 99 l 356 99 q 363 102 361 99 q 361 108 364 106 q 345 144 350 119 q 347 206 340 168 l 372 368 l 382 422 l 397 524 l 553 250 q 563 216 560 233 q 560 178 565 199 q 544 135 553 153 q 524 108 535 117 q 520 102 521 106 q 525 99 519 99 l 735 99 q 741 102 740 99 q 739 108 742 106 q 726 206 714 133 l 821 801 q 864 899 833 878 q 863 910 871 910 l 653 910 q 649 899 644 910 q 658 801 671 876 l 642 693 l 624 585 l 610 499 l 461 769 q 448 811 449 790 q 457 856 447 832 q 486 899 469 889 q 483 910 492 910 l 274 910 q 269 899 265 910 m 303 421 q 322 413 314 421 q 326 393 329 404 q 315 374 325 382 q 294 367 306 367 q 271 393 268 367 q 283 413 274 404 q 303 421 292 421 m 297 379 q 309 383 304 379 q 314 393 314 388 q 301 408 317 408 q 283 393 286 408 q 297 379 283 379 m 563 444 q 581 436 574 444 q 586 417 589 428 q 574 397 583 406 q 554 389 565 389 q 535 397 543 389 q 531 417 528 406 q 542 436 533 428 q 563 444 551 444 m 556 401 q 572 417 569 401 q 561 432 575 432 q 543 417 546 432 q 556 401 540 401 m 713 204 q 708 148 707 172 q 719 111 710 124 l 546 111 q 561 140 553 122 q 575 176 569 157 q 565 256 588 219 l 390 565 l 333 204 q 340 111 322 138 l 167 111 q 188 146 181 124 q 201 204 194 168 l 296 800 q 299 853 300 828 q 290 893 297 878 l 464 893 l 444 857 q 436 806 433 829 q 450 760 439 783 l 618 453 l 674 800 q 677 853 678 828 q 669 893 676 878 l 843 893 q 822 853 832 878 q 807 800 811 829 l 713 204 m 257 126 q 291 140 276 126 q 308 172 306 153 q 301 204 311 192 q 271 217 290 217 q 237 204 251 217 q 219 172 222 192 q 227 140 217 153 q 257 126 238 126 m 275 240 q 309 253 294 240 q 326 285 324 265 q 319 317 329 304 q 289 331 308 331 q 255 317 269 331 q 238 285 240 304 q 245 253 235 265 q 275 240 256 240 m 292 349 q 326 362 311 349 q 343 393 340 375 q 336 426 346 413 q 307 439 326 439 q 272 426 288 439 q 254 393 257 413 q 262 362 251 375 q 292 349 272 349 m 310 458 q 344 472 329 458 q 361 504 358 485 q 353 536 364 524 q 324 549 343 549 q 290 536 304 549 q 272 504 275 524 q 280 472 269 485 q 310 458 290 458 m 326 569 q 362 583 346 569 q 381 615 378 596 q 372 647 383 633 q 342 660 361 660 q 308 647 324 660 q 290 615 293 633 q 298 583 288 596 q 326 569 308 569 m 307 725 q 315 692 304 706 q 344 679 325 679 q 378 692 364 679 q 396 725 393 706 q 388 756 399 743 q 358 769 378 769 q 324 756 339 769 q 307 725 310 743 m 361 789 q 397 802 381 789 q 415 835 413 815 q 407 866 418 853 q 376 879 396 879 q 343 866 358 879 q 325 835 328 853 q 333 802 322 815 q 361 789 343 789 m 408 672 q 415 675 410 672 q 419 697 428 688 q 410 701 415 701 l 408 672 m 408 658 q 406 647 407 651 q 406 640 406 643 q 435 654 424 643 q 453 687 450 668 q 444 719 456 706 q 421 732 433 731 q 419 723 419 728 q 418 714 419 718 q 429 707 426 711 q 435 687 436 699 q 425 667 435 675 q 416 662 419 664 q 408 658 413 660 m 413 597 q 421 565 410 578 q 450 553 432 553 q 484 565 469 553 q 501 597 499 578 q 494 629 504 617 q 464 642 483 642 q 431 629 446 642 q 413 597 415 617 m 465 513 q 473 480 463 493 q 503 467 483 467 q 538 480 522 467 q 556 513 553 493 q 547 544 558 532 q 517 557 536 557 q 483 544 497 557 q 465 513 468 532 m 513 417 q 521 385 510 397 q 551 372 532 372 q 585 385 571 372 q 603 417 600 397 q 595 449 606 436 q 565 461 585 461 q 531 449 546 461 q 513 417 515 436 m 599 269 q 603 288 603 279 q 590 296 597 289 q 585 315 583 304 q 597 335 586 326 q 614 344 603 342 q 615 361 615 351 q 586 347 600 361 q 568 315 571 333 q 576 282 565 296 q 599 269 585 271 m 610 300 l 611 331 q 608 328 610 329 q 606 326 607 328 q 598 315 599 322 q 601 304 597 308 l 610 300 m 638 136 q 672 149 657 136 q 690 181 688 161 q 682 212 693 199 q 651 225 671 225 q 618 212 633 225 q 600 181 603 199 q 608 149 597 161 q 638 136 619 136 m 656 249 q 690 262 675 249 q 708 293 706 275 q 700 325 711 313 q 669 338 689 338 q 636 325 651 338 q 618 293 621 313 q 626 262 615 275 q 656 249 638 249 m 672 357 q 707 369 692 357 q 725 401 722 382 q 717 434 728 421 q 686 447 706 447 q 653 434 668 447 q 635 401 638 421 q 643 369 632 382 q 672 357 654 357 m 690 467 q 725 480 710 467 q 743 513 740 493 q 735 544 746 531 q 704 557 724 557 q 671 544 686 557 q 653 513 656 531 q 661 480 650 493 q 690 467 672 467 m 708 578 q 743 591 728 578 q 761 622 758 604 q 753 655 764 642 q 724 668 743 668 q 689 655 704 668 q 671 622 674 642 q 678 591 668 604 q 708 578 689 578 m 688 732 q 696 700 685 713 q 725 688 707 688 q 760 700 744 688 q 778 732 775 713 q 769 765 781 751 q 739 778 758 778 q 706 765 721 778 q 688 732 690 751 m 743 797 q 778 810 763 797 q 797 843 794 824 q 789 874 800 861 q 758 888 778 888 q 724 874 739 888 q 707 843 710 861 q 714 810 704 824 q 743 797 724 797 m 347 697 q 328 705 336 697 q 324 725 321 713 q 335 744 326 736 q 356 751 344 751 q 374 744 367 751 q 379 725 382 736 q 367 705 376 713 q 347 697 358 697 m 354 739 q 336 725 339 739 q 349 710 333 710 q 367 725 364 710 q 354 739 369 739 m 321 531 q 340 523 332 531 q 344 504 347 515 q 333 485 342 493 q 313 476 324 476 q 294 485 301 476 q 289 504 286 493 q 301 523 292 515 q 321 531 310 531 m 314 489 q 332 504 329 489 q 319 518 335 518 q 301 504 304 518 q 314 489 299 489 m 667 321 q 685 313 678 321 q 690 293 693 304 q 678 274 688 282 q 658 265 669 265 q 640 274 647 265 q 635 293 632 282 q 647 313 638 304 q 667 321 656 321 m 660 279 q 678 293 675 279 q 665 308 681 308 q 649 293 651 308 q 660 279 646 279 m 514 540 q 533 532 525 540 q 538 513 540 524 q 526 493 535 501 q 506 485 517 485 q 488 493 494 485 q 483 513 481 501 q 494 532 486 524 q 514 540 503 540 m 507 497 q 525 513 522 497 q 513 528 528 528 q 496 513 499 528 q 507 497 493 497 m 683 429 q 702 421 694 429 q 707 401 710 413 q 696 382 706 390 q 675 374 686 374 q 657 382 664 374 q 651 401 650 390 q 663 421 654 413 q 683 429 672 429 m 678 386 q 694 401 692 386 q 682 417 697 417 q 665 401 668 417 q 668 390 664 394 q 678 386 672 386 m 339 643 q 357 635 350 643 q 363 615 364 626 q 350 596 360 604 q 329 588 340 588 q 312 596 318 588 q 308 615 306 604 q 319 635 310 626 q 339 643 328 643 m 332 600 q 350 615 347 600 q 336 629 350 629 q 326 625 331 629 q 321 615 321 621 q 332 600 318 600 m 701 540 q 720 532 713 540 q 725 513 728 524 q 713 493 722 501 q 693 485 704 485 q 674 493 682 485 q 669 513 667 501 q 681 532 672 524 q 701 540 690 540 m 694 497 q 713 513 710 497 q 700 526 715 526 q 683 513 686 526 q 694 497 681 497 m 756 869 q 774 862 767 869 q 779 843 781 854 q 767 824 776 832 q 746 815 757 815 q 728 824 735 815 q 724 843 721 832 q 735 862 725 854 q 756 869 744 869 m 749 828 q 767 843 764 828 q 753 857 767 857 q 741 853 746 857 q 736 843 736 849 q 749 828 733 828 m 649 208 q 667 200 660 208 q 672 181 675 192 q 660 161 669 169 q 640 153 651 153 q 622 161 629 153 q 617 181 614 169 q 628 200 619 192 q 649 208 638 208 m 642 165 q 660 181 657 165 q 647 194 663 194 q 631 181 633 194 q 642 165 628 165 m 721 650 q 739 642 732 650 q 743 622 746 633 q 732 603 742 611 q 711 596 722 596 q 693 603 700 596 q 688 622 686 611 q 700 642 690 633 q 721 650 710 650 m 714 608 q 726 613 721 608 q 731 622 731 617 q 729 633 733 629 q 718 638 725 638 q 700 622 704 638 q 714 608 700 608 m 374 861 q 397 835 400 861 q 385 815 394 822 q 365 807 376 807 q 343 835 339 807 q 353 853 344 846 q 374 861 363 861 m 367 819 q 385 835 382 819 q 371 849 388 849 q 356 835 358 849 q 367 819 353 819 m 268 200 q 287 192 279 200 q 292 172 294 183 q 280 153 289 161 q 260 144 271 144 q 241 153 249 144 q 236 172 233 161 q 248 192 239 183 q 268 200 257 200 m 261 157 q 279 172 276 157 q 267 188 282 188 q 249 172 251 188 q 261 157 246 157 m 286 313 q 305 304 297 313 q 310 285 313 296 q 298 265 307 274 q 278 257 289 257 q 259 265 267 257 q 254 285 251 274 q 266 304 257 296 q 286 313 275 313 m 279 271 q 297 285 294 271 q 285 300 300 300 q 267 285 269 300 q 279 271 264 271 m 461 625 q 479 617 472 625 q 485 597 486 608 q 472 578 482 586 q 451 569 463 569 q 433 578 440 569 q 429 597 426 586 q 440 617 431 608 q 461 625 450 625 m 454 582 q 472 597 469 582 q 469 608 474 604 q 458 613 465 613 q 443 597 446 613 q 454 582 440 582 m 728 704 q 709 713 717 704 q 704 732 701 721 q 716 751 707 743 q 736 760 725 760 q 755 751 747 760 q 760 732 763 743 q 748 713 757 721 q 728 704 739 704 m 735 747 q 718 732 721 747 q 720 722 717 726 q 729 717 724 717 q 741 722 736 717 q 747 732 746 726 q 735 747 750 747 z "},"o":{"ha":785,"x_min":64,"x_max":871,"o":"m 325 0 q 213 23 264 0 q 128 86 163 46 q 78 181 93 126 q 74 297 64 235 l 117 568 q 158 684 126 629 q 236 779 190 739 l 254 793 q 381 905 303 861 q 547 949 460 949 l 601 949 q 717 924 665 949 q 805 858 769 900 q 856 761 840 817 q 861 642 871 706 l 818 369 q 749 210 803 279 q 619 101 694 140 l 601 88 q 498 24 554 47 q 379 0 442 0 l 325 0 m 185 369 q 189 263 175 313 q 234 177 203 214 q 311 119 265 140 q 413 97 357 97 l 467 97 q 575 119 522 97 q 671 177 628 140 q 743 263 714 214 q 782 369 772 313 l 825 642 q 819 747 833 697 q 774 833 806 796 q 697 891 743 869 q 596 913 651 913 l 542 913 q 433 891 486 913 q 338 833 381 869 q 265 747 294 796 q 228 642 236 697 l 185 369 m 438 261 q 367 292 393 261 q 347 369 340 324 l 364 478 l 372 532 l 390 642 q 434 717 397 685 q 515 750 471 750 l 569 750 q 642 717 615 750 q 661 642 668 685 l 643 532 l 635 478 l 618 369 q 574 292 611 324 q 492 261 538 261 l 438 261 m 383 369 q 397 318 378 339 q 443 297 415 297 l 497 297 l 508 297 l 551 568 q 538 627 557 601 q 482 653 518 653 l 428 653 l 426 642 l 383 369 m 296 279 q 315 271 307 279 q 319 251 322 263 q 308 232 317 240 q 288 224 299 224 q 269 232 276 224 q 264 251 261 240 q 276 271 267 263 q 296 279 285 279 m 290 238 q 306 251 303 238 q 294 267 308 267 q 276 251 279 267 q 279 241 275 244 q 290 238 283 238 m 279 433 q 260 442 268 433 q 256 461 253 450 q 267 481 258 474 q 288 489 276 489 q 306 481 299 489 q 311 461 314 474 q 299 442 308 450 q 279 433 290 433 m 286 476 q 268 461 271 476 q 281 447 265 447 q 297 461 294 447 q 286 476 300 476 m 485 208 q 503 200 496 208 q 507 181 510 192 q 496 161 504 169 q 476 153 488 153 q 458 161 465 153 q 453 181 450 169 q 465 200 456 192 q 485 208 474 208 m 478 165 q 494 181 492 165 q 483 196 497 196 q 465 181 468 196 q 478 165 463 165 m 382 219 q 400 211 393 219 q 404 192 407 203 q 393 172 403 181 q 372 164 383 164 q 354 172 361 164 q 349 192 347 181 q 361 211 351 203 q 382 219 371 219 m 375 176 q 390 192 388 176 q 379 207 393 207 q 361 192 364 207 q 364 181 360 185 q 375 176 368 176 m 299 538 q 280 546 288 538 q 275 565 272 554 q 287 585 278 576 q 307 593 296 593 q 326 585 318 593 q 331 565 333 576 q 319 546 328 554 q 299 538 310 538 m 306 581 q 289 565 292 581 q 300 551 286 551 q 318 565 315 551 q 306 581 321 581 m 696 763 q 678 771 685 763 q 674 790 671 779 q 685 810 675 801 q 706 818 694 818 q 724 810 717 818 q 729 790 731 801 q 717 771 726 779 q 696 763 707 763 m 703 806 q 686 790 689 806 q 699 775 683 775 q 717 790 714 775 q 714 801 718 797 q 703 806 710 806 m 586 235 q 605 226 597 235 q 610 207 613 218 q 598 187 607 194 q 578 179 589 179 q 559 187 567 179 q 554 207 551 194 q 566 226 557 218 q 586 235 575 235 m 579 192 q 596 207 593 192 q 585 221 599 221 q 567 207 569 221 q 579 192 564 192 m 733 663 q 715 671 722 663 q 710 690 707 679 q 722 710 713 701 q 742 718 731 718 q 760 710 753 718 q 765 690 768 701 q 753 671 763 679 q 733 663 744 663 m 740 706 q 722 690 725 706 q 735 675 719 675 q 753 690 750 675 q 740 706 756 706 m 325 650 q 306 658 314 650 q 301 678 299 667 q 313 697 304 689 q 333 706 322 706 q 352 697 344 706 q 357 678 360 689 q 345 658 354 667 q 325 650 336 650 m 332 693 q 320 688 325 693 q 314 678 315 683 q 326 663 311 663 q 343 678 340 663 q 342 688 344 683 q 332 693 339 693 m 600 796 q 582 804 589 796 q 576 824 575 813 q 589 843 579 835 q 610 851 599 851 q 628 843 622 851 q 632 824 635 835 q 622 804 631 813 q 600 796 613 796 m 607 838 q 590 824 593 838 q 603 808 588 808 q 619 824 617 808 q 607 838 622 838 m 489 807 q 471 815 478 807 q 467 835 464 822 q 477 853 468 846 q 497 861 486 861 q 521 835 524 861 q 509 815 518 822 q 489 807 500 807 m 494 849 q 484 844 489 849 q 479 835 479 840 q 490 819 476 819 q 508 835 506 819 q 494 849 508 849 m 385 750 q 366 758 374 750 q 361 778 358 767 q 373 797 364 789 q 393 806 382 806 q 412 797 404 806 q 417 778 419 789 q 405 758 414 767 q 385 750 396 750 m 392 793 q 375 778 378 793 q 388 764 372 764 q 404 778 401 764 q 392 793 407 793 m 296 350 q 285 331 294 339 q 264 322 275 322 q 246 331 253 322 q 240 350 239 339 q 253 369 243 361 q 274 378 263 378 q 292 369 285 378 q 296 350 299 361 m 254 350 q 267 335 251 335 q 283 350 281 335 q 271 365 286 365 q 254 350 257 365 m 722 508 q 741 500 733 508 q 746 481 749 492 q 735 461 744 469 q 714 453 725 453 q 696 461 703 453 q 690 481 689 469 q 702 500 693 492 q 722 508 711 508 m 717 465 q 733 481 731 465 q 721 496 736 496 q 710 492 715 496 q 703 481 704 488 q 706 469 701 474 q 717 465 711 465 m 708 415 q 726 407 719 415 q 732 388 733 399 q 720 368 729 376 q 700 360 711 360 q 681 368 689 360 q 676 388 674 376 q 688 407 678 399 q 708 415 697 415 m 701 374 q 719 388 717 374 q 717 399 721 394 q 706 403 713 403 q 689 388 692 403 q 692 378 688 382 q 701 374 696 374 m 669 315 q 688 307 681 315 q 693 288 696 299 q 682 268 692 276 q 661 260 672 260 q 643 268 650 260 q 638 288 636 276 q 649 307 640 299 q 669 315 658 315 m 664 272 q 681 288 678 272 q 678 299 682 294 q 668 303 674 303 q 650 288 653 303 q 653 276 649 281 q 664 272 657 272 m 739 613 q 758 604 751 613 q 763 585 765 596 q 751 565 760 574 q 731 557 743 557 q 713 565 719 557 q 708 585 706 574 q 719 604 711 596 q 739 613 728 613 m 732 569 q 750 585 747 569 q 738 599 753 599 q 721 585 724 599 q 732 569 718 569 m 593 901 q 690 881 646 901 q 763 826 733 861 q 805 743 792 790 q 810 643 818 696 l 767 372 q 731 271 758 318 q 663 189 703 224 q 572 135 622 154 q 469 115 522 115 l 415 115 q 319 135 363 115 q 245 189 275 154 q 203 271 215 224 q 199 372 190 318 l 242 643 q 278 743 250 696 q 346 826 306 790 q 436 881 386 861 q 539 901 486 901 l 593 901 m 783 690 q 775 722 786 710 q 744 735 764 735 q 710 722 725 735 q 692 690 694 710 q 700 658 689 671 q 731 646 711 646 q 765 658 750 646 q 783 690 781 671 m 708 836 q 674 823 689 836 q 657 790 660 810 q 665 758 654 771 q 694 746 675 746 q 729 758 714 746 q 747 790 744 771 q 739 823 750 810 q 708 836 728 836 m 611 868 q 578 856 593 868 q 560 824 563 843 q 568 791 557 804 q 597 778 579 778 q 632 791 617 778 q 650 824 647 804 q 642 856 653 843 q 611 868 631 868 m 500 879 q 466 866 481 879 q 449 835 451 853 q 456 802 446 815 q 485 789 465 789 q 520 802 504 789 q 539 835 536 815 q 531 866 542 853 q 500 879 519 879 m 396 824 q 362 810 376 824 q 344 778 347 797 q 352 747 342 760 q 382 733 363 733 q 417 747 401 733 q 435 778 432 760 q 426 810 438 797 q 396 824 415 824 m 336 722 q 301 710 317 722 q 283 678 286 697 q 292 645 281 658 q 322 632 303 632 q 356 645 342 632 q 374 678 371 658 q 366 710 376 697 q 336 722 356 722 m 310 610 q 276 597 292 610 q 258 565 261 585 q 267 533 256 546 q 296 521 278 521 q 331 533 315 521 q 349 565 346 546 q 340 597 351 585 q 310 610 329 610 m 290 507 q 256 494 271 507 q 238 461 240 481 q 246 430 235 443 q 276 417 257 417 q 310 430 296 417 q 328 461 325 443 q 320 494 331 481 q 290 507 310 507 m 224 350 q 232 317 221 331 q 261 304 243 304 q 296 317 281 304 q 314 350 311 331 q 306 382 317 369 q 275 394 294 394 q 242 382 257 394 q 224 350 226 369 m 285 207 q 318 219 303 207 q 336 251 333 232 q 328 283 339 271 q 299 296 317 296 q 264 283 279 296 q 246 251 249 271 q 254 219 243 232 q 285 207 265 207 m 369 146 q 403 159 389 146 q 421 192 418 172 q 414 224 424 211 q 385 238 404 238 q 349 224 365 238 q 331 192 333 211 q 339 159 328 172 q 369 146 350 146 m 332 372 q 334 324 328 346 q 355 285 340 301 q 390 258 369 268 q 436 249 411 249 l 490 249 q 583 284 542 249 q 632 372 624 319 l 675 643 q 673 690 679 668 q 653 729 667 713 q 618 756 639 746 q 572 767 597 767 l 518 767 q 469 756 493 767 q 426 729 446 746 q 392 690 406 713 q 375 643 379 668 l 332 372 m 474 135 q 508 148 493 135 q 525 181 522 161 q 517 213 528 200 q 488 225 507 225 q 453 213 468 225 q 435 181 438 200 q 443 148 432 161 q 474 135 454 135 m 575 161 q 608 174 593 161 q 626 207 624 188 q 618 238 629 225 q 589 251 607 251 q 554 238 569 251 q 536 207 539 225 q 544 174 533 188 q 575 161 556 161 m 658 242 q 692 255 678 242 q 710 288 707 268 q 702 319 713 307 q 672 332 692 332 q 638 319 653 332 q 619 288 622 307 q 628 255 617 268 q 658 242 639 242 m 697 343 q 731 356 717 343 q 749 388 746 369 q 741 420 751 407 q 711 433 731 433 q 677 420 692 433 q 660 388 663 407 q 667 356 657 369 q 697 343 678 343 m 711 435 q 745 448 731 435 q 763 481 760 461 q 755 513 765 500 q 725 525 744 525 q 691 513 706 525 q 674 481 676 500 q 681 448 671 461 q 711 435 692 435 m 728 539 q 763 552 747 539 q 781 585 778 565 q 772 617 783 604 q 742 629 761 629 q 708 617 724 629 q 690 585 693 604 q 699 552 688 565 q 728 539 710 539 z "}}}
